<ttFont>
    <TTGlyph name=".notdef" xMin="55" yMin="0" xMax="545" yMax="660">
      <contour>
        <pt x="55" y="660" on="1"/>
        <pt x="545" y="660" on="1"/>
        <pt x="545" y="0" on="1"/>
        <pt x="55" y="0" on="1"/>
      </contour>
      <contour>
        <pt x="248" y="340" on="1"/>
        <pt x="129" y="560" on="1"/>
        <pt x="129" y="122" on="1"/>
      </contour>
      <contour>
        <pt x="470" y="122" on="1"/>
        <pt x="470" y="560" on="1"/>
        <pt x="352" y="340" on="1"/>
      </contour>
      <contour>
        <pt x="415" y="67" on="1"/>
        <pt x="351" y="185" on="1"/>
        <pt x="302" y="286" on="1"/>
        <pt x="298" y="286" on="1"/>
        <pt x="248" y="185" on="1"/>
        <pt x="183" y="67" on="1"/>
      </contour>
      <contour>
        <pt x="302" y="394" on="1"/>
        <pt x="349" y="488" on="1"/>
        <pt x="406" y="592" on="1"/>
        <pt x="193" y="592" on="1"/>
        <pt x="250" y="488" on="1"/>
        <pt x="298" y="394" on="1"/>
      </contour>
    </TTGlyph>
    <TTGlyph name="A" xMin="26" yMin="0" xMax="574" yMax="655">
      <contour>
        <pt x="389" y="267" on="1"/>
        <pt x="362" y="357" on="1"/>
        <pt x="346" y="411" on="0"/>
        <pt x="315" y="520" on="0"/>
        <pt x="300" y="575" on="1"/>
        <pt x="296" y="575" on="1"/>
        <pt x="282" y="519" on="0"/>
        <pt x="251" y="411" on="0"/>
        <pt x="235" y="357" on="1"/>
        <pt x="208" y="267" on="1"/>
      </contour>
      <contour>
        <pt x="412" y="188" on="1"/>
        <pt x="184" y="188" on="1"/>
        <pt x="128" y="0" on="1"/>
        <pt x="26" y="0" on="1"/>
        <pt x="242" y="655" on="1"/>
        <pt x="358" y="655" on="1"/>
        <pt x="574" y="0" on="1"/>
        <pt x="468" y="0" on="1"/>
      </contour>
    </TTGlyph>
    <TTGlyph name="AE" xMin="-2" yMin="0" xMax="592" yMax="655">
      <contour>
        <pt x="316" y="259" on="1"/>
        <pt x="316" y="578" on="1"/>
        <pt x="312" y="578" on="1"/>
        <pt x="294" y="524" on="0"/>
        <pt x="256" y="423" on="0"/>
        <pt x="237" y="372" on="1"/>
        <pt x="196" y="259" on="1"/>
      </contour>
      <contour>
        <pt x="592" y="84" on="1"/>
        <pt x="592" y="0" on="1"/>
        <pt x="316" y="0" on="1"/>
        <pt x="316" y="180" on="1"/>
        <pt x="167" y="180" on="1"/>
        <pt x="102" y="0" on="1"/>
        <pt x="-2" y="0" on="1"/>
        <pt x="246" y="655" on="1"/>
        <pt x="583" y="655" on="1"/>
        <pt x="583" y="571" on="1"/>
        <pt x="406" y="571" on="1"/>
        <pt x="406" y="385" on="1"/>
        <pt x="545" y="385" on="1"/>
        <pt x="545" y="301" on="1"/>
        <pt x="406" y="301" on="1"/>
        <pt x="406" y="84" on="1"/>
      </contour>
    </TTGlyph>
    <TTGlyph name="Aacute" xMin="26" yMin="0" xMax="574" yMax="819">
      <component glyphName="A" x="0" y="0" flags="0x204"/>
      <component glyphName="uni0301.cap" x="0" y="0" flags="0x4"/>
    </TTGlyph>
    <TTGlyph name="Abreve" xMin="26" yMin="0" xMax="574" yMax="819">
      <component glyphName="A" x="0" y="0" flags="0x204"/>
      <component glyphName="uni0306.cap" x="0" y="0" flags="0x4"/>
    </TTGlyph>
    <TTGlyph name="Acircumflex" xMin="26" yMin="0" xMax="574" yMax="819">
      <component glyphName="A" x="0" y="0" flags="0x204"/>
      <component glyphName="uni0302.cap" x="0" y="0" flags="0x4"/>
    </TTGlyph>
    <TTGlyph name="Adieresis" xMin="26" yMin="0" xMax="574" yMax="820">
      <component glyphName="A" x="0" y="0" flags="0x204"/>
      <component glyphName="uni0308.cap" x="0" y="0" flags="0x4"/>
    </TTGlyph>
    <TTGlyph name="Agrave" xMin="26" yMin="0" xMax="574" yMax="819">
      <component glyphName="A" x="0" y="0" flags="0x204"/>
      <component glyphName="uni0300.cap" x="0" y="0" flags="0x4"/>
    </TTGlyph>
    <TTGlyph name="Amacron" xMin="26" yMin="0" xMax="574" yMax="793">
      <component glyphName="A" x="0" y="0" flags="0x204"/>
      <component glyphName="uni0304.cap" x="0" y="0" flags="0x4"/>
    </TTGlyph>
    <TTGlyph name="Aogonek" xMin="26" yMin="-215" xMax="603" yMax="655">
      <contour>
        <pt x="389" y="267" on="1"/>
        <pt x="362" y="357" on="1"/>
        <pt x="345" y="411" on="0"/>
        <pt x="315" y="520" on="0"/>
        <pt x="300" y="575" on="1"/>
        <pt x="296" y="575" on="1"/>
        <pt x="282" y="519" on="0"/>
        <pt x="252" y="411" on="0"/>
        <pt x="235" y="357" on="1"/>
        <pt x="208" y="267" on="1"/>
      </contour>
      <contour>
        <pt x="603" y="-185" on="1"/>
        <pt x="587" y="-198" on="0"/>
        <pt x="538" y="-215" on="0"/>
        <pt x="516" y="-215" on="1"/>
        <pt x="474" y="-215" on="0"/>
        <pt x="416" y="-170" on="0"/>
        <pt x="416" y="-126" on="1"/>
        <pt x="416" y="-105" on="0"/>
        <pt x="430" y="-67" on="0"/>
        <pt x="453" y="-34" on="0"/>
        <pt x="480" y="-8" on="0"/>
        <pt x="493" y="0" on="1"/>
        <pt x="468" y="0" on="1"/>
        <pt x="412" y="188" on="1"/>
        <pt x="184" y="188" on="1"/>
        <pt x="128" y="0" on="1"/>
        <pt x="26" y="0" on="1"/>
        <pt x="242" y="655" on="1"/>
        <pt x="358" y="655" on="1"/>
        <pt x="574" y="0" on="1"/>
        <pt x="556" y="-6" on="0"/>
        <pt x="526" y="-27" on="0"/>
        <pt x="504" y="-55" on="0"/>
        <pt x="492" y="-87" on="0"/>
        <pt x="492" y="-103" on="1"/>
        <pt x="492" y="-125" on="0"/>
        <pt x="519" y="-147" on="0"/>
        <pt x="536" y="-147" on="1"/>
        <pt x="548" y="-147" on="0"/>
        <pt x="568" y="-139" on="0"/>
        <pt x="577" y="-133" on="1"/>
      </contour>
    </TTGlyph>
    <TTGlyph name="Aring" xMin="26" yMin="0" xMax="574" yMax="879">
      <component glyphName="A" x="0" y="0" flags="0x204"/>
      <component glyphName="uni030A.cap" x="0" y="0" flags="0x4"/>
    </TTGlyph>
    <TTGlyph name="Atilde" xMin="26" yMin="0" xMax="574" yMax="824">
      <component glyphName="A" x="0" y="0" flags="0x204"/>
      <component glyphName="uni0303.cap" x="0" y="0" flags="0x4"/>
    </TTGlyph>
    <TTGlyph name="B" xMin="98" yMin="0" xMax="548" yMax="655">
      <contour>
        <pt x="98" y="655" on="1"/>
        <pt x="284" y="655" on="1"/>
        <pt x="334" y="655" on="0"/>
        <pt x="418" y="638" on="0"/>
        <pt x="479" y="600" on="0"/>
        <pt x="513" y="538" on="0"/>
        <pt x="513" y="494" on="1"/>
        <pt x="513" y="446" on="0"/>
        <pt x="457" y="367" on="0"/>
        <pt x="399" y="352" on="1"/>
        <pt x="399" y="348" on="1"/>
        <pt x="471" y="336" on="0"/>
        <pt x="548" y="259" on="0"/>
        <pt x="548" y="192" on="1"/>
        <pt x="548" y="143" on="0"/>
        <pt x="511" y="71" on="0"/>
        <pt x="445" y="23" on="0"/>
        <pt x="354" y="0" on="0"/>
        <pt x="300" y="0" on="1"/>
        <pt x="98" y="0" on="1"/>
      </contour>
      <contour>
        <pt x="272" y="380" on="1"/>
        <pt x="348" y="380" on="0"/>
        <pt x="415" y="433" on="0"/>
        <pt x="415" y="484" on="1"/>
        <pt x="415" y="533" on="0"/>
        <pt x="345" y="577" on="0"/>
        <pt x="275" y="577" on="1"/>
        <pt x="198" y="577" on="1"/>
        <pt x="198" y="380" on="1"/>
      </contour>
      <contour>
        <pt x="288" y="79" on="1"/>
        <pt x="366" y="79" on="0"/>
        <pt x="450" y="137" on="0"/>
        <pt x="450" y="198" on="1"/>
        <pt x="450" y="255" on="0"/>
        <pt x="368" y="307" on="0"/>
        <pt x="288" y="307" on="1"/>
        <pt x="198" y="307" on="1"/>
        <pt x="198" y="79" on="1"/>
      </contour>
    </TTGlyph>
    <TTGlyph name="C" xMin="63" yMin="-12" xMax="558" yMax="667">
      <contour>
        <pt x="63" y="326" on="1"/>
        <pt x="63" y="406" on="0"/>
        <pt x="108" y="532" on="0"/>
        <pt x="187" y="620" on="0"/>
        <pt x="296" y="667" on="0"/>
        <pt x="361" y="667" on="1"/>
        <pt x="421" y="667" on="0"/>
        <pt x="514" y="618" on="0"/>
        <pt x="543" y="586" on="1"/>
        <pt x="487" y="523" on="1"/>
        <pt x="462" y="549" on="0"/>
        <pt x="401" y="580" on="0"/>
        <pt x="361" y="580" on="1"/>
        <pt x="317" y="580" on="0"/>
        <pt x="245" y="545" on="0"/>
        <pt x="194" y="480" on="0"/>
        <pt x="166" y="387" on="0"/>
        <pt x="166" y="329" on="1"/>
        <pt x="166" y="270" on="0"/>
        <pt x="194" y="176" on="0"/>
        <pt x="246" y="110" on="0"/>
        <pt x="318" y="75" on="0"/>
        <pt x="363" y="75" on="1"/>
        <pt x="405" y="75" on="0"/>
        <pt x="472" y="111" on="0"/>
        <pt x="502" y="144" on="1"/>
        <pt x="558" y="83" on="1"/>
        <pt x="518" y="37" on="0"/>
        <pt x="420" y="-12" on="0"/>
        <pt x="357" y="-12" on="1"/>
        <pt x="295" y="-12" on="0"/>
        <pt x="187" y="33" on="0"/>
        <pt x="108" y="120" on="0"/>
        <pt x="63" y="245" on="0"/>
      </contour>
    </TTGlyph>
    <TTGlyph name="Cacute" xMin="63" yMin="-12" xMax="558" yMax="819">
      <component glyphName="C" x="0" y="0" flags="0x204"/>
      <component glyphName="uni0301.cap" x="49" y="0" flags="0x4"/>
    </TTGlyph>
    <TTGlyph name="Ccaron" xMin="63" yMin="-12" xMax="558" yMax="819">
      <component glyphName="C" x="0" y="0" flags="0x204"/>
      <component glyphName="uni030C.cap" x="49" y="0" flags="0x4"/>
    </TTGlyph>
    <TTGlyph name="Ccedilla" xMin="63" yMin="-215" xMax="558" yMax="667">
      <component glyphName="C" x="0" y="0" flags="0x204"/>
      <component glyphName="uni0327.cap" x="47" y="0" flags="0x4"/>
    </TTGlyph>
    <TTGlyph name="Ccircumflex" xMin="63" yMin="-12" xMax="558" yMax="819">
      <component glyphName="C" x="0" y="0" flags="0x204"/>
      <component glyphName="uni0302.cap" x="49" y="0" flags="0x4"/>
    </TTGlyph>
    <TTGlyph name="Cdotaccent" xMin="63" yMin="-12" xMax="558" yMax="830">
      <component glyphName="C" x="0" y="0" flags="0x204"/>
      <component glyphName="uni0307.cap" x="49" y="0" flags="0x4"/>
    </TTGlyph>
    <TTGlyph name="D" xMin="80" yMin="0" xMax="551" yMax="655">
      <contour>
        <pt x="80" y="655" on="1"/>
        <pt x="245" y="655" on="1"/>
        <pt x="392" y="655" on="0"/>
        <pt x="551" y="491" on="0"/>
        <pt x="551" y="330" on="1"/>
        <pt x="551" y="170" on="0"/>
        <pt x="393" y="0" on="0"/>
        <pt x="249" y="0" on="1"/>
        <pt x="80" y="0" on="1"/>
      </contour>
      <contour>
        <pt x="238" y="81" on="1"/>
        <pt x="341" y="81" on="0"/>
        <pt x="448" y="207" on="0"/>
        <pt x="448" y="330" on="1"/>
        <pt x="448" y="453" on="0"/>
        <pt x="341" y="574" on="0"/>
        <pt x="238" y="574" on="1"/>
        <pt x="180" y="574" on="1"/>
        <pt x="180" y="81" on="1"/>
      </contour>
    </TTGlyph>
    <TTGlyph name="Dcaron" xMin="80" yMin="0" xMax="551" yMax="819">
      <component glyphName="D" x="0" y="0" flags="0x204"/>
      <component glyphName="uni030C.cap" x="-1" y="0" flags="0x4"/>
    </TTGlyph>
    <TTGlyph name="Dcroat" xMin="12" yMin="0" xMax="557" yMax="655">
      <component glyphName="Eth" x="0" y="0" flags="0x204"/>
    </TTGlyph>
    <TTGlyph name="E" xMin="110" yMin="0" xMax="531" yMax="655">
      <contour>
        <pt x="110" y="655" on="1"/>
        <pt x="521" y="655" on="1"/>
        <pt x="521" y="571" on="1"/>
        <pt x="210" y="571" on="1"/>
        <pt x="210" y="384" on="1"/>
        <pt x="473" y="384" on="1"/>
        <pt x="473" y="300" on="1"/>
        <pt x="210" y="300" on="1"/>
        <pt x="210" y="84" on="1"/>
        <pt x="531" y="84" on="1"/>
        <pt x="531" y="0" on="1"/>
        <pt x="110" y="0" on="1"/>
      </contour>
    </TTGlyph>
    <TTGlyph name="Eacute" xMin="110" yMin="0" xMax="531" yMax="819">
      <component glyphName="E" x="0" y="0" flags="0x204"/>
      <component glyphName="uni0301.cap" x="28" y="0" flags="0x4"/>
    </TTGlyph>
    <TTGlyph name="Ebreve" xMin="110" yMin="0" xMax="531" yMax="819">
      <component glyphName="E" x="0" y="0" flags="0x204"/>
      <component glyphName="uni0306.cap" x="28" y="0" flags="0x4"/>
    </TTGlyph>
    <TTGlyph name="Ecaron" xMin="110" yMin="0" xMax="531" yMax="819">
      <component glyphName="E" x="0" y="0" flags="0x204"/>
      <component glyphName="uni030C.cap" x="28" y="0" flags="0x4"/>
    </TTGlyph>
    <TTGlyph name="Ecircumflex" xMin="110" yMin="0" xMax="531" yMax="819">
      <component glyphName="E" x="0" y="0" flags="0x204"/>
      <component glyphName="uni0302.cap" x="28" y="0" flags="0x4"/>
    </TTGlyph>
    <TTGlyph name="Edieresis" xMin="110" yMin="0" xMax="531" yMax="820">
      <component glyphName="E" x="0" y="0" flags="0x204"/>
      <component glyphName="uni0308.cap" x="28" y="0" flags="0x4"/>
    </TTGlyph>
    <TTGlyph name="Edotaccent" xMin="110" yMin="0" xMax="531" yMax="830">
      <component glyphName="E" x="0" y="0" flags="0x204"/>
      <component glyphName="uni0307.cap" x="28" y="0" flags="0x4"/>
    </TTGlyph>
    <TTGlyph name="Egrave" xMin="110" yMin="0" xMax="531" yMax="819">
      <component glyphName="E" x="0" y="0" flags="0x204"/>
      <component glyphName="uni0300.cap" x="28" y="0" flags="0x4"/>
    </TTGlyph>
    <TTGlyph name="Emacron" xMin="110" yMin="0" xMax="531" yMax="793">
      <component glyphName="E" x="0" y="0" flags="0x204"/>
      <component glyphName="uni0304.cap" x="28" y="0" flags="0x4"/>
    </TTGlyph>
    <TTGlyph name="Eogonek" xMin="110" yMin="-215" xMax="548" yMax="655">
      <contour>
        <pt x="110" y="655" on="1"/>
        <pt x="521" y="655" on="1"/>
        <pt x="521" y="571" on="1"/>
        <pt x="210" y="571" on="1"/>
        <pt x="210" y="384" on="1"/>
        <pt x="473" y="384" on="1"/>
        <pt x="473" y="300" on="1"/>
        <pt x="210" y="300" on="1"/>
        <pt x="210" y="84" on="1"/>
        <pt x="531" y="84" on="1"/>
        <pt x="531" y="0" on="1"/>
        <pt x="527" y="0" on="1"/>
        <pt x="510" y="-2" on="0"/>
        <pt x="477" y="-20" on="0"/>
        <pt x="452" y="-48" on="0"/>
        <pt x="437" y="-84" on="0"/>
        <pt x="437" y="-103" on="1"/>
        <pt x="437" y="-126" on="0"/>
        <pt x="466" y="-147" on="0"/>
        <pt x="483" y="-147" on="1"/>
        <pt x="494" y="-147" on="0"/>
        <pt x="513" y="-139" on="0"/>
        <pt x="522" y="-133" on="1"/>
        <pt x="548" y="-185" on="1"/>
        <pt x="532" y="-198" on="0"/>
        <pt x="483" y="-215" on="0"/>
        <pt x="461" y="-215" on="1"/>
        <pt x="419" y="-215" on="0"/>
        <pt x="361" y="-170" on="0"/>
        <pt x="361" y="-126" on="1"/>
        <pt x="361" y="-84" on="0"/>
        <pt x="409" y="-17" on="0"/>
        <pt x="437" y="0" on="1"/>
        <pt x="110" y="0" on="1"/>
      </contour>
    </TTGlyph>
    <TTGlyph name="Eth" xMin="12" yMin="0" xMax="557" yMax="655">
      <contour>
        <pt x="86" y="316" on="1"/>
        <pt x="12" y="316" on="1"/>
        <pt x="12" y="364" on="1"/>
        <pt x="86" y="369" on="1"/>
        <pt x="86" y="655" on="1"/>
        <pt x="251" y="655" on="1"/>
        <pt x="397" y="655" on="0"/>
        <pt x="557" y="491" on="0"/>
        <pt x="557" y="330" on="1"/>
        <pt x="557" y="170" on="0"/>
        <pt x="399" y="0" on="0"/>
        <pt x="256" y="0" on="1"/>
        <pt x="86" y="0" on="1"/>
      </contour>
      <contour>
        <pt x="244" y="81" on="1"/>
        <pt x="347" y="81" on="0"/>
        <pt x="454" y="207" on="0"/>
        <pt x="454" y="330" on="1"/>
        <pt x="454" y="453" on="0"/>
        <pt x="347" y="574" on="0"/>
        <pt x="244" y="574" on="1"/>
        <pt x="186" y="574" on="1"/>
        <pt x="186" y="369" on="1"/>
        <pt x="320" y="369" on="1"/>
        <pt x="320" y="316" on="1"/>
        <pt x="186" y="316" on="1"/>
        <pt x="186" y="81" on="1"/>
      </contour>
    </TTGlyph>
    <TTGlyph name="Euro" xMin="54" yMin="-12" xMax="570" yMax="649">
      <contour>
        <pt x="570" y="81" on="1"/>
        <pt x="532" y="36" on="0"/>
        <pt x="438" y="-12" on="0"/>
        <pt x="376" y="-12" on="1"/>
        <pt x="276" y="-12" on="0"/>
        <pt x="139" y="114" on="0"/>
        <pt x="119" y="230" on="1"/>
        <pt x="54" y="230" on="1"/>
        <pt x="54" y="280" on="1"/>
        <pt x="113" y="284" on="1"/>
        <pt x="112" y="292" on="0"/>
        <pt x="112" y="309" on="0"/>
        <pt x="112" y="317" on="1"/>
        <pt x="112" y="325" on="0"/>
        <pt x="112" y="339" on="0"/>
        <pt x="113" y="347" on="1"/>
        <pt x="54" y="347" on="1"/>
        <pt x="54" y="398" on="1"/>
        <pt x="119" y="403" on="1"/>
        <pt x="139" y="520" on="0"/>
        <pt x="282" y="649" on="0"/>
        <pt x="389" y="649" on="1"/>
        <pt x="440" y="649" on="0"/>
        <pt x="530" y="606" on="0"/>
        <pt x="561" y="571" on="1"/>
        <pt x="504" y="516" on="1"/>
        <pt x="479" y="540" on="0"/>
        <pt x="422" y="571" on="0"/>
        <pt x="386" y="571" on="1"/>
        <pt x="318" y="571" on="0"/>
        <pt x="234" y="483" on="0"/>
        <pt x="220" y="403" on="1"/>
        <pt x="503" y="403" on="1"/>
        <pt x="503" y="347" on="1"/>
        <pt x="214" y="347" on="1"/>
        <pt x="213" y="340" on="0"/>
        <pt x="213" y="327" on="0"/>
        <pt x="213" y="320" on="1"/>
        <pt x="213" y="311" on="0"/>
        <pt x="213" y="293" on="0"/>
        <pt x="214" y="285" on="1"/>
        <pt x="463" y="285" on="1"/>
        <pt x="463" y="230" on="1"/>
        <pt x="221" y="230" on="1"/>
        <pt x="236" y="152" on="0"/>
        <pt x="318" y="67" on="0"/>
        <pt x="382" y="67" on="1"/>
        <pt x="423" y="67" on="0"/>
        <pt x="485" y="101" on="0"/>
        <pt x="513" y="133" on="1"/>
      </contour>
    </TTGlyph>
    <TTGlyph name="F" xMin="128" yMin="0" xMax="536" yMax="655">
      <contour>
        <pt x="128" y="655" on="1"/>
        <pt x="536" y="655" on="1"/>
        <pt x="536" y="571" on="1"/>
        <pt x="227" y="571" on="1"/>
        <pt x="227" y="368" on="1"/>
        <pt x="489" y="368" on="1"/>
        <pt x="489" y="283" on="1"/>
        <pt x="227" y="283" on="1"/>
        <pt x="227" y="0" on="1"/>
        <pt x="128" y="0" on="1"/>
      </contour>
    </TTGlyph>
    <TTGlyph name="G" xMin="51" yMin="-12" xMax="537" yMax="667">
      <contour>
        <pt x="51" y="326" on="1"/>
        <pt x="51" y="406" on="0"/>
        <pt x="95" y="533" on="0"/>
        <pt x="173" y="621" on="0"/>
        <pt x="281" y="667" on="0"/>
        <pt x="344" y="667" on="1"/>
        <pt x="409" y="667" on="0"/>
        <pt x="499" y="616" on="0"/>
        <pt x="528" y="586" on="1"/>
        <pt x="472" y="523" on="1"/>
        <pt x="449" y="548" on="0"/>
        <pt x="389" y="580" on="0"/>
        <pt x="344" y="580" on="1"/>
        <pt x="302" y="580" on="0"/>
        <pt x="232" y="545" on="0"/>
        <pt x="182" y="480" on="0"/>
        <pt x="154" y="387" on="0"/>
        <pt x="154" y="329" on="1"/>
        <pt x="154" y="211" on="0"/>
        <pt x="252" y="75" on="0"/>
        <pt x="345" y="75" on="1"/>
        <pt x="375" y="75" on="0"/>
        <pt x="428" y="93" on="0"/>
        <pt x="445" y="109" on="1"/>
        <pt x="445" y="265" on="1"/>
        <pt x="324" y="265" on="1"/>
        <pt x="324" y="347" on="1"/>
        <pt x="537" y="347" on="1"/>
        <pt x="537" y="65" on="1"/>
        <pt x="505" y="33" on="0"/>
        <pt x="402" y="-12" on="0"/>
        <pt x="339" y="-12" on="1"/>
        <pt x="277" y="-12" on="0"/>
        <pt x="171" y="33" on="0"/>
        <pt x="94" y="120" on="0"/>
        <pt x="51" y="245" on="0"/>
      </contour>
    </TTGlyph>
    <TTGlyph name="Gbreve" xMin="51" yMin="-12" xMax="537" yMax="819">
      <component glyphName="G" x="0" y="0" flags="0x204"/>
      <component glyphName="uni0306.cap" x="31" y="0" flags="0x4"/>
    </TTGlyph>
    <TTGlyph name="Gcaron" xMin="51" yMin="-12" xMax="537" yMax="819">
      <component glyphName="G" x="0" y="0" flags="0x204"/>
      <component glyphName="uni030C.cap" x="31" y="0" flags="0x4"/>
    </TTGlyph>
    <TTGlyph name="Gcircumflex" xMin="51" yMin="-12" xMax="537" yMax="819">
      <component glyphName="G" x="0" y="0" flags="0x204"/>
      <component glyphName="uni0302.cap" x="31" y="0" flags="0x4"/>
    </TTGlyph>
    <TTGlyph name="Gdotaccent" xMin="51" yMin="-12" xMax="537" yMax="830">
      <component glyphName="G" x="0" y="0" flags="0x204"/>
      <component glyphName="uni0307.cap" x="31" y="0" flags="0x4"/>
    </TTGlyph>
    <TTGlyph name="H" xMin="75" yMin="0" xMax="525" yMax="655">
      <contour>
        <pt x="75" y="655" on="1"/>
        <pt x="176" y="655" on="1"/>
        <pt x="176" y="386" on="1"/>
        <pt x="424" y="386" on="1"/>
        <pt x="424" y="655" on="1"/>
        <pt x="525" y="655" on="1"/>
        <pt x="525" y="0" on="1"/>
        <pt x="424" y="0" on="1"/>
        <pt x="424" y="299" on="1"/>
        <pt x="176" y="299" on="1"/>
        <pt x="176" y="0" on="1"/>
        <pt x="75" y="0" on="1"/>
      </contour>
    </TTGlyph>
    <TTGlyph name="Hbar" xMin="8" yMin="0" xMax="592" yMax="655">
      <contour>
        <pt x="424" y="490" on="1"/>
        <pt x="176" y="490" on="1"/>
        <pt x="176" y="386" on="1"/>
        <pt x="424" y="386" on="1"/>
      </contour>
      <contour>
        <pt x="592" y="490" on="1"/>
        <pt x="525" y="490" on="1"/>
        <pt x="525" y="0" on="1"/>
        <pt x="424" y="0" on="1"/>
        <pt x="424" y="299" on="1"/>
        <pt x="176" y="299" on="1"/>
        <pt x="176" y="0" on="1"/>
        <pt x="75" y="0" on="1"/>
        <pt x="75" y="490" on="1"/>
        <pt x="8" y="490" on="1"/>
        <pt x="8" y="538" on="1"/>
        <pt x="75" y="543" on="1"/>
        <pt x="75" y="655" on="1"/>
        <pt x="176" y="655" on="1"/>
        <pt x="176" y="543" on="1"/>
        <pt x="424" y="543" on="1"/>
        <pt x="424" y="655" on="1"/>
        <pt x="525" y="655" on="1"/>
        <pt x="525" y="543" on="1"/>
        <pt x="592" y="543" on="1"/>
      </contour>
    </TTGlyph>
    <TTGlyph name="Hcircumflex" xMin="75" yMin="0" xMax="525" yMax="819">
      <component glyphName="H" x="0" y="0" flags="0x204"/>
      <component glyphName="uni0302.cap" x="0" y="0" flags="0x4"/>
    </TTGlyph>
    <TTGlyph name="I" xMin="90" yMin="0" xMax="510" yMax="655">
      <contour>
        <pt x="90" y="84" on="1"/>
        <pt x="250" y="84" on="1"/>
        <pt x="250" y="571" on="1"/>
        <pt x="90" y="571" on="1"/>
        <pt x="90" y="655" on="1"/>
        <pt x="510" y="655" on="1"/>
        <pt x="510" y="571" on="1"/>
        <pt x="350" y="571" on="1"/>
        <pt x="350" y="84" on="1"/>
        <pt x="510" y="84" on="1"/>
        <pt x="510" y="0" on="1"/>
        <pt x="90" y="0" on="1"/>
      </contour>
    </TTGlyph>
    <TTGlyph name="Iacute" xMin="90" yMin="0" xMax="510" yMax="819">
      <component glyphName="I" x="0" y="0" flags="0x204"/>
      <component glyphName="uni0301.cap" x="0" y="0" flags="0x4"/>
    </TTGlyph>
    <TTGlyph name="Icircumflex" xMin="90" yMin="0" xMax="510" yMax="819">
      <component glyphName="I" x="0" y="0" flags="0x204"/>
      <component glyphName="uni0302.cap" x="0" y="0" flags="0x4"/>
    </TTGlyph>
    <TTGlyph name="Idieresis" xMin="90" yMin="0" xMax="510" yMax="820">
      <component glyphName="I" x="0" y="0" flags="0x204"/>
      <component glyphName="uni0308.cap" x="0" y="0" flags="0x4"/>
    </TTGlyph>
    <TTGlyph name="Idotaccent" xMin="90" yMin="0" xMax="510" yMax="830">
      <component glyphName="I" x="0" y="0" flags="0x204"/>
      <component glyphName="uni0307.cap" x="0" y="0" flags="0x4"/>
    </TTGlyph>
    <TTGlyph name="Igrave" xMin="90" yMin="0" xMax="510" yMax="819">
      <component glyphName="I" x="0" y="0" flags="0x204"/>
      <component glyphName="uni0300.cap" x="0" y="0" flags="0x4"/>
    </TTGlyph>
    <TTGlyph name="Imacron" xMin="90" yMin="0" xMax="510" yMax="793">
      <component glyphName="I" x="0" y="0" flags="0x204"/>
      <component glyphName="uni0304.cap" x="0" y="0" flags="0x4"/>
    </TTGlyph>
    <TTGlyph name="Iogonek" xMin="90" yMin="-215" xMax="510" yMax="655">
      <contour>
        <pt x="90" y="84" on="1"/>
        <pt x="250" y="84" on="1"/>
        <pt x="250" y="571" on="1"/>
        <pt x="90" y="571" on="1"/>
        <pt x="90" y="655" on="1"/>
        <pt x="510" y="655" on="1"/>
        <pt x="510" y="571" on="1"/>
        <pt x="350" y="571" on="1"/>
        <pt x="350" y="84" on="1"/>
        <pt x="510" y="84" on="1"/>
        <pt x="510" y="0" on="1"/>
        <pt x="350" y="0" on="1"/>
        <pt x="282" y="-44" on="0"/>
        <pt x="282" y="-103" on="1"/>
        <pt x="282" y="-126" on="0"/>
        <pt x="311" y="-147" on="0"/>
        <pt x="328" y="-147" on="1"/>
        <pt x="340" y="-147" on="0"/>
        <pt x="360" y="-139" on="0"/>
        <pt x="368" y="-133" on="1"/>
        <pt x="393" y="-185" on="1"/>
        <pt x="377" y="-198" on="0"/>
        <pt x="329" y="-215" on="0"/>
        <pt x="307" y="-215" on="1"/>
        <pt x="265" y="-215" on="0"/>
        <pt x="207" y="-170" on="0"/>
        <pt x="207" y="-126" on="1"/>
        <pt x="207" y="-104" on="0"/>
        <pt x="220" y="-67" on="0"/>
        <pt x="239" y="-35" on="0"/>
        <pt x="263" y="-10" on="0"/>
        <pt x="275" y="0" on="1"/>
        <pt x="90" y="0" on="1"/>
      </contour>
    </TTGlyph>
    <TTGlyph name="Itilde" xMin="90" yMin="0" xMax="510" yMax="824">
      <component glyphName="I" x="0" y="0" flags="0x204"/>
      <component glyphName="uni0303.cap" x="0" y="0" flags="0x4"/>
    </TTGlyph>
    <TTGlyph name="J" xMin="75" yMin="-12" xMax="499" yMax="656">
      <contour>
        <pt x="138" y="157" on="1"/>
        <pt x="166" y="115" on="0"/>
        <pt x="236" y="75" on="0"/>
        <pt x="273" y="75" on="1"/>
        <pt x="338" y="75" on="0"/>
        <pt x="399" y="143" on="0"/>
        <pt x="399" y="221" on="1"/>
        <pt x="399" y="572" on="1"/>
        <pt x="130" y="572" on="1"/>
        <pt x="130" y="656" on="1"/>
        <pt x="499" y="656" on="1"/>
        <pt x="499" y="213" on="1"/>
        <pt x="499" y="166" on="0"/>
        <pt x="476" y="85" on="0"/>
        <pt x="424" y="23" on="0"/>
        <pt x="338" y="-12" on="0"/>
        <pt x="275" y="-12" on="1"/>
        <pt x="220" y="-12" on="0"/>
        <pt x="111" y="39" on="0"/>
        <pt x="75" y="97" on="1"/>
      </contour>
    </TTGlyph>
    <TTGlyph name="Jcircumflex" xMin="75" yMin="-12" xMax="499" yMax="819">
      <component glyphName="J" x="0" y="0" flags="0x204"/>
      <component glyphName="uni0302.cap" x="21" y="0" flags="0x4"/>
    </TTGlyph>
    <TTGlyph name="K" xMin="90" yMin="0" xMax="583" yMax="655">
      <contour>
        <pt x="90" y="655" on="1"/>
        <pt x="191" y="655" on="1"/>
        <pt x="191" y="342" on="1"/>
        <pt x="194" y="342" on="1"/>
        <pt x="448" y="655" on="1"/>
        <pt x="560" y="655" on="1"/>
        <pt x="357" y="402" on="1"/>
        <pt x="583" y="0" on="1"/>
        <pt x="472" y="0" on="1"/>
        <pt x="296" y="324" on="1"/>
        <pt x="191" y="199" on="1"/>
        <pt x="191" y="0" on="1"/>
        <pt x="90" y="0" on="1"/>
      </contour>
    </TTGlyph>
    <TTGlyph name="L" xMin="127" yMin="0" xMax="541" yMax="655">
      <contour>
        <pt x="127" y="655" on="1"/>
        <pt x="226" y="655" on="1"/>
        <pt x="226" y="84" on="1"/>
        <pt x="541" y="84" on="1"/>
        <pt x="541" y="0" on="1"/>
        <pt x="127" y="0" on="1"/>
      </contour>
    </TTGlyph>
    <TTGlyph name="Lacute" xMin="127" yMin="0" xMax="541" yMax="819">
      <component glyphName="L" x="0" y="0" flags="0x204"/>
      <component glyphName="uni0301.cap" x="-108" y="0" flags="0x4"/>
    </TTGlyph>
    <TTGlyph name="Lcaron" xMin="127" yMin="0" xMax="541" yMax="729">
      <component glyphName="L" x="0" y="0" flags="0x204"/>
      <component glyphName="uni030C.a" x="125" y="-34" flags="0x4"/>
    </TTGlyph>
    <TTGlyph name="Ldot" xMin="127" yMin="0" xMax="541" yMax="655">
      <component glyphName="L" x="0" y="0" flags="0x204"/>
      <component glyphName="uni0307" x="136" y="-302" flags="0x4"/>
    </TTGlyph>
    <TTGlyph name="Lslash" xMin="48" yMin="0" xMax="541" yMax="655">
      <contour>
        <pt x="541" y="84" on="1"/>
        <pt x="541" y="0" on="1"/>
        <pt x="127" y="0" on="1"/>
        <pt x="127" y="220" on="1"/>
        <pt x="48" y="177" on="1"/>
        <pt x="48" y="256" on="1"/>
        <pt x="127" y="299" on="1"/>
        <pt x="127" y="655" on="1"/>
        <pt x="226" y="655" on="1"/>
        <pt x="226" y="347" on="1"/>
        <pt x="446" y="466" on="1"/>
        <pt x="446" y="386" on="1"/>
        <pt x="226" y="268" on="1"/>
        <pt x="226" y="84" on="1"/>
      </contour>
    </TTGlyph>
    <TTGlyph name="M" xMin="77" yMin="0" xMax="523" yMax="655">
      <contour>
        <pt x="77" y="655" on="1"/>
        <pt x="183" y="655" on="1"/>
        <pt x="269" y="389" on="1"/>
        <pt x="299" y="286" on="1"/>
        <pt x="303" y="286" on="1"/>
        <pt x="332" y="389" on="1"/>
        <pt x="417" y="655" on="1"/>
        <pt x="523" y="655" on="1"/>
        <pt x="523" y="0" on="1"/>
        <pt x="439" y="0" on="1"/>
        <pt x="439" y="329" on="1"/>
        <pt x="439" y="351" on="0"/>
        <pt x="442" y="410" on="0"/>
        <pt x="446" y="473" on="0"/>
        <pt x="450" y="533" on="0"/>
        <pt x="452" y="555" on="1"/>
        <pt x="449" y="555" on="1"/>
        <pt x="404" y="405" on="1"/>
        <pt x="324" y="177" on="1"/>
        <pt x="274" y="177" on="1"/>
        <pt x="194" y="405" on="1"/>
        <pt x="149" y="555" on="1"/>
        <pt x="146" y="555" on="1"/>
        <pt x="148" y="533" on="0"/>
        <pt x="152" y="473" on="0"/>
        <pt x="156" y="410" on="0"/>
        <pt x="159" y="351" on="0"/>
        <pt x="159" y="329" on="1"/>
        <pt x="159" y="0" on="1"/>
        <pt x="77" y="0" on="1"/>
      </contour>
    </TTGlyph>
    <TTGlyph name="N" xMin="79" yMin="0" xMax="521" yMax="655">
      <contour>
        <pt x="79" y="655" on="1"/>
        <pt x="180" y="655" on="1"/>
        <pt x="374" y="264" on="1"/>
        <pt x="437" y="128" on="1"/>
        <pt x="440" y="128" on="1"/>
        <pt x="437" y="178" on="0"/>
        <pt x="426" y="290" on="0"/>
        <pt x="426" y="343" on="1"/>
        <pt x="426" y="655" on="1"/>
        <pt x="521" y="655" on="1"/>
        <pt x="521" y="0" on="1"/>
        <pt x="420" y="0" on="1"/>
        <pt x="226" y="391" on="1"/>
        <pt x="163" y="527" on="1"/>
        <pt x="160" y="527" on="1"/>
        <pt x="163" y="476" on="0"/>
        <pt x="174" y="368" on="0"/>
        <pt x="174" y="314" on="1"/>
        <pt x="174" y="0" on="1"/>
        <pt x="79" y="0" on="1"/>
      </contour>
    </TTGlyph>
    <TTGlyph name="Nacute" xMin="79" yMin="0" xMax="521" yMax="819">
      <component glyphName="N" x="0" y="0" flags="0x204"/>
      <component glyphName="uni0301.cap" x="6" y="0" flags="0x4"/>
    </TTGlyph>
    <TTGlyph name="Ncaron" xMin="79" yMin="0" xMax="521" yMax="819">
      <component glyphName="N" x="0" y="0" flags="0x204"/>
      <component glyphName="uni030C.cap" x="6" y="0" flags="0x4"/>
    </TTGlyph>
    <TTGlyph name="Ntilde" xMin="79" yMin="0" xMax="521" yMax="824">
      <component glyphName="N" x="0" y="0" flags="0x204"/>
      <component glyphName="uni0303.cap" x="6" y="0" flags="0x4"/>
    </TTGlyph>
    <TTGlyph name="O" xMin="45" yMin="-12" xMax="555" yMax="667">
      <contour>
        <pt x="300" y="-12" on="1"/>
        <pt x="244" y="-12" on="0"/>
        <pt x="150" y="36" on="0"/>
        <pt x="82" y="124" on="0"/>
        <pt x="45" y="251" on="0"/>
        <pt x="45" y="330" on="1"/>
        <pt x="45" y="409" on="0"/>
        <pt x="82" y="534" on="0"/>
        <pt x="150" y="621" on="0"/>
        <pt x="244" y="667" on="0"/>
        <pt x="300" y="667" on="1"/>
        <pt x="356" y="667" on="0"/>
        <pt x="450" y="621" on="0"/>
        <pt x="517" y="534" on="0"/>
        <pt x="555" y="409" on="0"/>
        <pt x="555" y="330" on="1"/>
        <pt x="555" y="251" on="0"/>
        <pt x="517" y="124" on="0"/>
        <pt x="450" y="36" on="0"/>
        <pt x="356" y="-12" on="0"/>
      </contour>
      <contour>
        <pt x="300" y="75" on="1"/>
        <pt x="334" y="75" on="0"/>
        <pt x="390" y="111" on="0"/>
        <pt x="430" y="178" on="0"/>
        <pt x="452" y="272" on="0"/>
        <pt x="452" y="330" on="1"/>
        <pt x="452" y="447" on="0"/>
        <pt x="369" y="580" on="0"/>
        <pt x="300" y="580" on="1"/>
        <pt x="231" y="580" on="0"/>
        <pt x="148" y="447" on="0"/>
        <pt x="148" y="330" on="1"/>
        <pt x="148" y="272" on="0"/>
        <pt x="170" y="178" on="0"/>
        <pt x="210" y="111" on="0"/>
        <pt x="266" y="75" on="0"/>
      </contour>
    </TTGlyph>
    <TTGlyph name="OE" xMin="29" yMin="0" xMax="592" yMax="656">
      <contour>
        <pt x="29" y="330" on="1"/>
        <pt x="29" y="410" on="0"/>
        <pt x="67" y="532" on="0"/>
        <pt x="137" y="614" on="0"/>
        <pt x="236" y="656" on="0"/>
        <pt x="298" y="656" on="1"/>
        <pt x="582" y="656" on="1"/>
        <pt x="582" y="572" on="1"/>
        <pt x="397" y="572" on="1"/>
        <pt x="397" y="384" on="1"/>
        <pt x="538" y="384" on="1"/>
        <pt x="538" y="300" on="1"/>
        <pt x="397" y="300" on="1"/>
        <pt x="397" y="84" on="1"/>
        <pt x="592" y="84" on="1"/>
        <pt x="592" y="0" on="1"/>
        <pt x="294" y="0" on="1"/>
        <pt x="233" y="0" on="0"/>
        <pt x="135" y="43" on="0"/>
        <pt x="66" y="127" on="0"/>
        <pt x="29" y="250" on="0"/>
      </contour>
      <contour>
        <pt x="132" y="330" on="1"/>
        <pt x="132" y="206" on="0"/>
        <pt x="209" y="81" on="0"/>
        <pt x="286" y="81" on="1"/>
        <pt x="306" y="81" on="1"/>
        <pt x="306" y="574" on="1"/>
        <pt x="286" y="574" on="1"/>
        <pt x="209" y="574" on="0"/>
        <pt x="132" y="455" on="0"/>
      </contour>
    </TTGlyph>
    <TTGlyph name="Oacute" xMin="45" yMin="-12" xMax="555" yMax="819">
      <component glyphName="O" x="0" y="0" flags="0x204"/>
      <component glyphName="uni0301.cap" x="0" y="0" flags="0x4"/>
    </TTGlyph>
    <TTGlyph name="Ocircumflex" xMin="45" yMin="-12" xMax="555" yMax="819">
      <component glyphName="O" x="0" y="0" flags="0x204"/>
      <component glyphName="uni0302.cap" x="0" y="0" flags="0x4"/>
    </TTGlyph>
    <TTGlyph name="Odieresis" xMin="45" yMin="-12" xMax="555" yMax="820">
      <component glyphName="O" x="0" y="0" flags="0x204"/>
      <component glyphName="uni0308.cap" x="0" y="0" flags="0x4"/>
    </TTGlyph>
    <TTGlyph name="Ograve" xMin="45" yMin="-12" xMax="555" yMax="819">
      <component glyphName="O" x="0" y="0" flags="0x204"/>
      <component glyphName="uni0300.cap" x="0" y="0" flags="0x4"/>
    </TTGlyph>
    <TTGlyph name="Ohorn" xMin="45" yMin="-12" xMax="571" yMax="776">
      <contour>
        <pt x="300" y="75" on="1"/>
        <pt x="334" y="75" on="0"/>
        <pt x="390" y="111" on="0"/>
        <pt x="430" y="178" on="0"/>
        <pt x="452" y="272" on="0"/>
        <pt x="452" y="330" on="1"/>
        <pt x="452" y="447" on="0"/>
        <pt x="369" y="580" on="0"/>
        <pt x="300" y="580" on="1"/>
        <pt x="231" y="580" on="0"/>
        <pt x="148" y="447" on="0"/>
        <pt x="148" y="330" on="1"/>
        <pt x="148" y="272" on="0"/>
        <pt x="170" y="178" on="0"/>
        <pt x="210" y="111" on="0"/>
        <pt x="266" y="75" on="0"/>
      </contour>
      <contour>
        <pt x="546" y="776" on="1"/>
        <pt x="557" y="762" on="0"/>
        <pt x="571" y="727" on="0"/>
        <pt x="571" y="707" on="1"/>
        <pt x="571" y="660" on="0"/>
        <pt x="513" y="608" on="0"/>
        <pt x="467" y="597" on="1"/>
        <pt x="509" y="553" on="0"/>
        <pt x="555" y="419" on="0"/>
        <pt x="555" y="330" on="1"/>
        <pt x="555" y="251" on="0"/>
        <pt x="517" y="124" on="0"/>
        <pt x="450" y="36" on="0"/>
        <pt x="356" y="-12" on="0"/>
        <pt x="300" y="-12" on="1"/>
        <pt x="244" y="-12" on="0"/>
        <pt x="150" y="36" on="0"/>
        <pt x="82" y="124" on="0"/>
        <pt x="45" y="251" on="0"/>
        <pt x="45" y="330" on="1"/>
        <pt x="45" y="409" on="0"/>
        <pt x="82" y="534" on="0"/>
        <pt x="150" y="621" on="0"/>
        <pt x="244" y="667" on="0"/>
        <pt x="300" y="667" on="1"/>
        <pt x="364" y="667" on="0"/>
        <pt x="418" y="636" on="1"/>
        <pt x="453" y="642" on="0"/>
        <pt x="491" y="671" on="0"/>
        <pt x="491" y="700" on="1"/>
        <pt x="491" y="723" on="0"/>
        <pt x="476" y="743" on="1"/>
      </contour>
    </TTGlyph>
    <TTGlyph name="Ohungarumlaut" xMin="45" yMin="-12" xMax="555" yMax="819">
      <component glyphName="O" x="0" y="0" flags="0x204"/>
      <component glyphName="uni030B.cap" x="0" y="0" flags="0x4"/>
    </TTGlyph>
    <TTGlyph name="Omacron" xMin="45" yMin="-12" xMax="555" yMax="793">
      <component glyphName="O" x="0" y="0" flags="0x204"/>
      <component glyphName="uni0304.cap" x="0" y="0" flags="0x4"/>
    </TTGlyph>
    <TTGlyph name="Oslash" xMin="41" yMin="-33" xMax="562" yMax="688">
      <contour>
        <pt x="204" y="124" on="1"/>
        <pt x="242" y="75" on="0"/>
        <pt x="300" y="75" on="1"/>
        <pt x="334" y="75" on="0"/>
        <pt x="390" y="111" on="0"/>
        <pt x="430" y="178" on="0"/>
        <pt x="452" y="272" on="0"/>
        <pt x="452" y="330" on="1"/>
        <pt x="452" y="368" on="0"/>
        <pt x="442" y="434" on="0"/>
        <pt x="433" y="462" on="1"/>
      </contour>
      <contour>
        <pt x="399" y="529" on="1"/>
        <pt x="359" y="580" on="0"/>
        <pt x="300" y="580" on="1"/>
        <pt x="231" y="580" on="0"/>
        <pt x="148" y="447" on="0"/>
        <pt x="148" y="330" on="1"/>
        <pt x="148" y="251" on="0"/>
        <pt x="168" y="191" on="1"/>
      </contour>
      <contour>
        <pt x="498" y="557" on="1"/>
        <pt x="525" y="514" on="0"/>
        <pt x="555" y="400" on="0"/>
        <pt x="555" y="330" on="1"/>
        <pt x="555" y="251" on="0"/>
        <pt x="517" y="124" on="0"/>
        <pt x="450" y="36" on="0"/>
        <pt x="356" y="-12" on="0"/>
        <pt x="300" y="-12" on="1"/>
        <pt x="214" y="-12" on="0"/>
        <pt x="149" y="44" on="1"/>
        <pt x="97" y="-33" on="1"/>
        <pt x="41" y="4" on="1"/>
        <pt x="104" y="97" on="1"/>
        <pt x="76" y="141" on="0"/>
        <pt x="45" y="258" on="0"/>
        <pt x="45" y="330" on="1"/>
        <pt x="45" y="409" on="0"/>
        <pt x="82" y="534" on="0"/>
        <pt x="150" y="621" on="0"/>
        <pt x="244" y="667" on="0"/>
        <pt x="300" y="667" on="1"/>
        <pt x="389" y="667" on="0"/>
        <pt x="454" y="610" on="1"/>
        <pt x="507" y="688" on="1"/>
        <pt x="562" y="651" on="1"/>
      </contour>
    </TTGlyph>
    <TTGlyph name="Otilde" xMin="45" yMin="-12" xMax="555" yMax="824">
      <component glyphName="O" x="0" y="0" flags="0x204"/>
      <component glyphName="uni0303.cap" x="0" y="0" flags="0x4"/>
    </TTGlyph>
    <TTGlyph name="P" xMin="94" yMin="0" xMax="551" yMax="655">
      <contour>
        <pt x="94" y="655" on="1"/>
        <pt x="305" y="655" on="1"/>
        <pt x="359" y="655" on="0"/>
        <pt x="449" y="635" on="0"/>
        <pt x="515" y="588" on="0"/>
        <pt x="551" y="513" on="0"/>
        <pt x="551" y="458" on="1"/>
        <pt x="551" y="405" on="0"/>
        <pt x="514" y="326" on="0"/>
        <pt x="448" y="275" on="0"/>
        <pt x="358" y="250" on="0"/>
        <pt x="305" y="250" on="1"/>
        <pt x="194" y="250" on="1"/>
        <pt x="194" y="0" on="1"/>
        <pt x="94" y="0" on="1"/>
      </contour>
      <contour>
        <pt x="295" y="331" on="1"/>
        <pt x="375" y="331" on="0"/>
        <pt x="452" y="392" on="0"/>
        <pt x="452" y="458" on="1"/>
        <pt x="452" y="524" on="0"/>
        <pt x="373" y="575" on="0"/>
        <pt x="295" y="575" on="1"/>
        <pt x="194" y="575" on="1"/>
        <pt x="194" y="331" on="1"/>
      </contour>
    </TTGlyph>
    <TTGlyph name="Q" xMin="46" yMin="-167" xMax="560" yMax="668">
      <contour>
        <pt x="148" y="330" on="1"/>
        <pt x="148" y="272" on="0"/>
        <pt x="169" y="178" on="0"/>
        <pt x="208" y="111" on="0"/>
        <pt x="263" y="74" on="0"/>
        <pt x="298" y="74" on="1"/>
        <pt x="333" y="74" on="0"/>
        <pt x="388" y="111" on="0"/>
        <pt x="427" y="178" on="0"/>
        <pt x="448" y="272" on="0"/>
        <pt x="448" y="330" on="1"/>
        <pt x="448" y="388" on="0"/>
        <pt x="427" y="481" on="0"/>
        <pt x="388" y="546" on="0"/>
        <pt x="333" y="581" on="0"/>
        <pt x="298" y="581" on="1"/>
        <pt x="263" y="581" on="0"/>
        <pt x="208" y="546" on="0"/>
        <pt x="169" y="481" on="0"/>
        <pt x="148" y="388" on="0"/>
      </contour>
      <contour>
        <pt x="560" y="-151" on="1"/>
        <pt x="544" y="-158" on="0"/>
        <pt x="504" y="-167" on="0"/>
        <pt x="480" y="-167" on="1"/>
        <pt x="436" y="-167" on="0"/>
        <pt x="363" y="-143" on="0"/>
        <pt x="305" y="-100" on="0"/>
        <pt x="263" y="-42" on="0"/>
        <pt x="250" y="-7" on="1"/>
        <pt x="203" y="2" on="0"/>
        <pt x="128" y="57" on="0"/>
        <pt x="75" y="144" on="0"/>
        <pt x="46" y="260" on="0"/>
        <pt x="46" y="330" on="1"/>
        <pt x="46" y="409" on="0"/>
        <pt x="83" y="535" on="0"/>
        <pt x="149" y="622" on="0"/>
        <pt x="242" y="668" on="0"/>
        <pt x="298" y="668" on="1"/>
        <pt x="354" y="668" on="0"/>
        <pt x="447" y="621" on="0"/>
        <pt x="513" y="534" on="0"/>
        <pt x="550" y="409" on="0"/>
        <pt x="550" y="330" on="1"/>
        <pt x="550" y="262" on="0"/>
        <pt x="522" y="148" on="0"/>
        <pt x="471" y="63" on="0"/>
        <pt x="400" y="6" on="0"/>
        <pt x="356" y="-5" on="1"/>
        <pt x="373" y="-46" on="0"/>
        <pt x="444" y="-83" on="0"/>
        <pt x="492" y="-83" on="1"/>
        <pt x="522" y="-83" on="0"/>
        <pt x="542" y="-73" on="1"/>
      </contour>
    </TTGlyph>
    <TTGlyph name="R" xMin="92" yMin="0" xMax="561" yMax="655">
      <contour>
        <pt x="192" y="347" on="1"/>
        <pt x="291" y="347" on="1"/>
        <pt x="363" y="347" on="0"/>
        <pt x="439" y="406" on="0"/>
        <pt x="439" y="466" on="1"/>
        <pt x="439" y="526" on="0"/>
        <pt x="363" y="575" on="0"/>
        <pt x="291" y="575" on="1"/>
        <pt x="192" y="575" on="1"/>
      </contour>
      <contour>
        <pt x="448" y="0" on="1"/>
        <pt x="299" y="266" on="1"/>
        <pt x="192" y="266" on="1"/>
        <pt x="192" y="0" on="1"/>
        <pt x="92" y="0" on="1"/>
        <pt x="92" y="655" on="1"/>
        <pt x="303" y="655" on="1"/>
        <pt x="354" y="655" on="0"/>
        <pt x="440" y="636" on="0"/>
        <pt x="503" y="591" on="0"/>
        <pt x="538" y="519" on="0"/>
        <pt x="538" y="466" on="1"/>
        <pt x="538" y="390" on="0"/>
        <pt x="463" y="298" on="0"/>
        <pt x="400" y="279" on="1"/>
        <pt x="561" y="0" on="1"/>
      </contour>
    </TTGlyph>
    <TTGlyph name="Racute" xMin="92" yMin="0" xMax="561" yMax="819">
      <component glyphName="R" x="0" y="0" flags="0x204"/>
      <component glyphName="uni0301.cap" x="4" y="0" flags="0x4"/>
    </TTGlyph>
    <TTGlyph name="Rcaron" xMin="92" yMin="0" xMax="561" yMax="819">
      <component glyphName="R" x="0" y="0" flags="0x204"/>
      <component glyphName="uni030C.cap" x="4" y="0" flags="0x4"/>
    </TTGlyph>
    <TTGlyph name="S" xMin="63" yMin="-12" xMax="541" yMax="667">
      <contour>
        <pt x="121" y="153" on="1"/>
        <pt x="159" y="118" on="0"/>
        <pt x="254" y="75" on="0"/>
        <pt x="305" y="75" on="1"/>
        <pt x="370" y="75" on="0"/>
        <pt x="439" y="127" on="0"/>
        <pt x="439" y="171" on="1"/>
        <pt x="439" y="193" on="0"/>
        <pt x="422" y="225" on="0"/>
        <pt x="392" y="248" on="0"/>
        <pt x="350" y="266" on="0"/>
        <pt x="325" y="276" on="1"/>
        <pt x="233" y="317" on="1"/>
        <pt x="208" y="327" on="0"/>
        <pt x="158" y="356" on="0"/>
        <pt x="118" y="397" on="0"/>
        <pt x="93" y="452" on="0"/>
        <pt x="93" y="488" on="1"/>
        <pt x="93" y="526" on="0"/>
        <pt x="125" y="592" on="0"/>
        <pt x="184" y="640" on="0"/>
        <pt x="265" y="667" on="0"/>
        <pt x="314" y="667" on="1"/>
        <pt x="375" y="667" on="0"/>
        <pt x="481" y="623" on="0"/>
        <pt x="519" y="585" on="1"/>
        <pt x="467" y="521" on="1"/>
        <pt x="435" y="549" on="0"/>
        <pt x="361" y="580" on="0"/>
        <pt x="314" y="580" on="1"/>
        <pt x="258" y="580" on="0"/>
        <pt x="194" y="534" on="0"/>
        <pt x="194" y="494" on="1"/>
        <pt x="194" y="472" on="0"/>
        <pt x="213" y="442" on="0"/>
        <pt x="245" y="419" on="0"/>
        <pt x="286" y="402" on="0"/>
        <pt x="308" y="393" on="1"/>
        <pt x="397" y="354" on="1"/>
        <pt x="428" y="342" on="0"/>
        <pt x="480" y="311" on="0"/>
        <pt x="519" y="270" on="0"/>
        <pt x="541" y="215" on="0"/>
        <pt x="541" y="179" on="1"/>
        <pt x="541" y="140" on="0"/>
        <pt x="509" y="70" on="0"/>
        <pt x="447" y="18" on="0"/>
        <pt x="359" y="-12" on="0"/>
        <pt x="303" y="-12" on="1"/>
        <pt x="232" y="-12" on="0"/>
        <pt x="110" y="39" on="0"/>
        <pt x="63" y="85" on="1"/>
      </contour>
    </TTGlyph>
    <TTGlyph name="Sacute" xMin="63" yMin="-12" xMax="541" yMax="819">
      <component glyphName="S" x="0" y="0" flags="0x204"/>
      <component glyphName="uni0301.cap" x="10" y="0" flags="0x4"/>
    </TTGlyph>
    <TTGlyph name="Scaron" xMin="63" yMin="-12" xMax="541" yMax="819">
      <component glyphName="S" x="0" y="0" flags="0x204"/>
      <component glyphName="uni030C.cap" x="10" y="0" flags="0x4"/>
    </TTGlyph>
    <TTGlyph name="Scircumflex" xMin="63" yMin="-12" xMax="541" yMax="819">
      <component glyphName="S" x="0" y="0" flags="0x204"/>
      <component glyphName="uni0302.cap" x="10" y="0" flags="0x4"/>
    </TTGlyph>
    <TTGlyph name="T" xMin="39" yMin="0" xMax="561" yMax="655">
      <contour>
        <pt x="250" y="571" on="1"/>
        <pt x="39" y="571" on="1"/>
        <pt x="39" y="655" on="1"/>
        <pt x="561" y="655" on="1"/>
        <pt x="561" y="571" on="1"/>
        <pt x="350" y="571" on="1"/>
        <pt x="350" y="0" on="1"/>
        <pt x="250" y="0" on="1"/>
      </contour>
    </TTGlyph>
    <TTGlyph name="Tcaron" xMin="39" yMin="0" xMax="561" yMax="819">
      <component glyphName="T" x="0" y="0" flags="0x204"/>
      <component glyphName="uni030C.cap" x="0" y="0" flags="0x4"/>
    </TTGlyph>
    <TTGlyph name="Thorn" xMin="94" yMin="0" xMax="550" yMax="655">
      <contour>
        <pt x="94" y="655" on="1"/>
        <pt x="194" y="655" on="1"/>
        <pt x="194" y="548" on="1"/>
        <pt x="305" y="548" on="1"/>
        <pt x="359" y="548" on="0"/>
        <pt x="449" y="528" on="0"/>
        <pt x="514" y="481" on="0"/>
        <pt x="550" y="405" on="0"/>
        <pt x="550" y="350" on="1"/>
        <pt x="550" y="297" on="0"/>
        <pt x="513" y="219" on="0"/>
        <pt x="448" y="168" on="0"/>
        <pt x="358" y="143" on="0"/>
        <pt x="305" y="143" on="1"/>
        <pt x="194" y="143" on="1"/>
        <pt x="194" y="0" on="1"/>
        <pt x="94" y="0" on="1"/>
      </contour>
      <contour>
        <pt x="295" y="223" on="1"/>
        <pt x="375" y="223" on="0"/>
        <pt x="451" y="284" on="0"/>
        <pt x="451" y="350" on="1"/>
        <pt x="451" y="416" on="0"/>
        <pt x="373" y="467" on="0"/>
        <pt x="295" y="467" on="1"/>
        <pt x="194" y="467" on="1"/>
        <pt x="194" y="223" on="1"/>
      </contour>
    </TTGlyph>
    <TTGlyph name="U" xMin="75" yMin="-12" xMax="525" yMax="655">
      <contour>
        <pt x="75" y="655" on="1"/>
        <pt x="176" y="655" on="1"/>
        <pt x="176" y="243" on="1"/>
        <pt x="176" y="153" on="0"/>
        <pt x="245" y="75" on="0"/>
        <pt x="301" y="75" on="1"/>
        <pt x="357" y="75" on="0"/>
        <pt x="428" y="153" on="0"/>
        <pt x="428" y="243" on="1"/>
        <pt x="428" y="655" on="1"/>
        <pt x="525" y="655" on="1"/>
        <pt x="525" y="249" on="1"/>
        <pt x="525" y="180" on="0"/>
        <pt x="493" y="81" on="0"/>
        <pt x="435" y="18" on="0"/>
        <pt x="352" y="-12" on="0"/>
        <pt x="301" y="-12" on="1"/>
        <pt x="250" y="-12" on="0"/>
        <pt x="167" y="18" on="0"/>
        <pt x="107" y="81" on="0"/>
        <pt x="75" y="180" on="0"/>
        <pt x="75" y="249" on="1"/>
      </contour>
    </TTGlyph>
    <TTGlyph name="Uacute" xMin="75" yMin="-12" xMax="525" yMax="819">
      <component glyphName="U" x="0" y="0" flags="0x204"/>
      <component glyphName="uni0301.cap" x="0" y="0" flags="0x4"/>
    </TTGlyph>
    <TTGlyph name="Ubreve" xMin="75" yMin="-12" xMax="525" yMax="819">
      <component glyphName="U" x="0" y="0" flags="0x204"/>
      <component glyphName="uni0306.cap" x="0" y="0" flags="0x4"/>
    </TTGlyph>
    <TTGlyph name="Ucircumflex" xMin="75" yMin="-12" xMax="525" yMax="819">
      <component glyphName="U" x="0" y="0" flags="0x204"/>
      <component glyphName="uni0302.cap" x="0" y="0" flags="0x4"/>
    </TTGlyph>
    <TTGlyph name="Udieresis" xMin="75" yMin="-12" xMax="525" yMax="820">
      <component glyphName="U" x="0" y="0" flags="0x204"/>
      <component glyphName="uni0308.cap" x="0" y="0" flags="0x4"/>
    </TTGlyph>
    <TTGlyph name="Ugrave" xMin="75" yMin="-12" xMax="525" yMax="819">
      <component glyphName="U" x="0" y="0" flags="0x204"/>
      <component glyphName="uni0300.cap" x="0" y="0" flags="0x4"/>
    </TTGlyph>
    <TTGlyph name="Uhorn" xMin="75" yMin="-12" xMax="638" yMax="796">
      <contour>
        <pt x="613" y="796" on="1"/>
        <pt x="624" y="782" on="0"/>
        <pt x="638" y="747" on="0"/>
        <pt x="638" y="727" on="1"/>
        <pt x="638" y="701" on="0"/>
        <pt x="620" y="663" on="0"/>
        <pt x="589" y="636" on="0"/>
        <pt x="548" y="619" on="0"/>
        <pt x="525" y="614" on="1"/>
        <pt x="525" y="249" on="1"/>
        <pt x="525" y="180" on="0"/>
        <pt x="493" y="81" on="0"/>
        <pt x="435" y="18" on="0"/>
        <pt x="352" y="-12" on="0"/>
        <pt x="301" y="-12" on="1"/>
        <pt x="250" y="-12" on="0"/>
        <pt x="167" y="18" on="0"/>
        <pt x="107" y="81" on="0"/>
        <pt x="75" y="180" on="0"/>
        <pt x="75" y="249" on="1"/>
        <pt x="75" y="655" on="1"/>
        <pt x="176" y="655" on="1"/>
        <pt x="176" y="243" on="1"/>
        <pt x="176" y="153" on="0"/>
        <pt x="245" y="75" on="0"/>
        <pt x="301" y="75" on="1"/>
        <pt x="357" y="75" on="0"/>
        <pt x="428" y="153" on="0"/>
        <pt x="428" y="243" on="1"/>
        <pt x="428" y="655" on="1"/>
        <pt x="472" y="655" on="1"/>
        <pt x="510" y="659" on="0"/>
        <pt x="559" y="685" on="0"/>
        <pt x="559" y="720" on="1"/>
        <pt x="559" y="732" on="0"/>
        <pt x="550" y="754" on="0"/>
        <pt x="544" y="763" on="1"/>
      </contour>
    </TTGlyph>
    <TTGlyph name="Uhungarumlaut" xMin="75" yMin="-12" xMax="525" yMax="819">
      <component glyphName="U" x="0" y="0" flags="0x204"/>
      <component glyphName="uni030B.cap" x="0" y="0" flags="0x4"/>
    </TTGlyph>
    <TTGlyph name="Umacron" xMin="75" yMin="-12" xMax="525" yMax="793">
      <component glyphName="U" x="0" y="0" flags="0x204"/>
      <component glyphName="uni0304.cap" x="0" y="0" flags="0x4"/>
    </TTGlyph>
    <TTGlyph name="Uogonek" xMin="75" yMin="-215" xMax="525" yMax="655">
      <contour>
        <pt x="75" y="655" on="1"/>
        <pt x="176" y="655" on="1"/>
        <pt x="176" y="243" on="1"/>
        <pt x="176" y="153" on="0"/>
        <pt x="244" y="75" on="0"/>
        <pt x="300" y="75" on="1"/>
        <pt x="356" y="75" on="0"/>
        <pt x="428" y="153" on="0"/>
        <pt x="428" y="243" on="1"/>
        <pt x="428" y="655" on="1"/>
        <pt x="525" y="655" on="1"/>
        <pt x="525" y="249" on="1"/>
        <pt x="525" y="149" on="0"/>
        <pt x="458" y="32" on="0"/>
        <pt x="401" y="6" on="1"/>
        <pt x="347" y="-19" on="0"/>
        <pt x="301" y="-77" on="0"/>
        <pt x="301" y="-103" on="1"/>
        <pt x="301" y="-126" on="0"/>
        <pt x="330" y="-147" on="0"/>
        <pt x="347" y="-147" on="1"/>
        <pt x="359" y="-147" on="0"/>
        <pt x="378" y="-139" on="0"/>
        <pt x="387" y="-133" on="1"/>
        <pt x="412" y="-185" on="1"/>
        <pt x="396" y="-198" on="0"/>
        <pt x="348" y="-215" on="0"/>
        <pt x="326" y="-215" on="1"/>
        <pt x="284" y="-215" on="0"/>
        <pt x="226" y="-170" on="0"/>
        <pt x="226" y="-126" on="1"/>
        <pt x="226" y="-105" on="0"/>
        <pt x="240" y="-70" on="0"/>
        <pt x="259" y="-41" on="0"/>
        <pt x="282" y="-19" on="0"/>
        <pt x="291" y="-11" on="1"/>
        <pt x="182" y="-8" on="0"/>
        <pt x="75" y="126" on="0"/>
        <pt x="75" y="249" on="1"/>
      </contour>
    </TTGlyph>
    <TTGlyph name="Uring" xMin="75" yMin="-12" xMax="525" yMax="879">
      <component glyphName="U" x="0" y="0" flags="0x204"/>
      <component glyphName="uni030A.cap" x="0" y="0" flags="0x4"/>
    </TTGlyph>
    <TTGlyph name="Utilde" xMin="75" yMin="-12" xMax="525" yMax="824">
      <component glyphName="U" x="0" y="0" flags="0x204"/>
      <component glyphName="uni0303.cap" x="0" y="0" flags="0x4"/>
    </TTGlyph>
    <TTGlyph name="V" xMin="35" yMin="0" xMax="565" yMax="655">
      <contour>
        <pt x="35" y="655" on="1"/>
        <pt x="141" y="655" on="1"/>
        <pt x="240" y="314" on="1"/>
        <pt x="257" y="257" on="0"/>
        <pt x="283" y="156" on="0"/>
        <pt x="300" y="99" on="1"/>
        <pt x="304" y="99" on="1"/>
        <pt x="322" y="156" on="0"/>
        <pt x="348" y="257" on="0"/>
        <pt x="365" y="314" on="1"/>
        <pt x="463" y="655" on="1"/>
        <pt x="565" y="655" on="1"/>
        <pt x="359" y="0" on="1"/>
        <pt x="242" y="0" on="1"/>
      </contour>
    </TTGlyph>
    <TTGlyph name="W" xMin="9" yMin="0" xMax="591" yMax="656">
      <contour>
        <pt x="9" y="656" on="1"/>
        <pt x="109" y="656" on="1"/>
        <pt x="153" y="260" on="1"/>
        <pt x="155" y="219" on="0"/>
        <pt x="162" y="139" on="0"/>
        <pt x="165" y="97" on="1"/>
        <pt x="168" y="97" on="1"/>
        <pt x="178" y="139" on="0"/>
        <pt x="199" y="219" on="0"/>
        <pt x="208" y="260" on="1"/>
        <pt x="271" y="487" on="1"/>
        <pt x="337" y="487" on="1"/>
        <pt x="400" y="260" on="1"/>
        <pt x="408" y="220" on="0"/>
        <pt x="429" y="139" on="0"/>
        <pt x="439" y="97" on="1"/>
        <pt x="443" y="97" on="1"/>
        <pt x="446" y="139" on="0"/>
        <pt x="452" y="220" on="0"/>
        <pt x="455" y="260" on="1"/>
        <pt x="497" y="656" on="1"/>
        <pt x="591" y="656" on="1"/>
        <pt x="499" y="0" on="1"/>
        <pt x="391" y="0" on="1"/>
        <pt x="325" y="257" on="1"/>
        <pt x="318" y="287" on="0"/>
        <pt x="307" y="348" on="0"/>
        <pt x="302" y="377" on="1"/>
        <pt x="299" y="377" on="1"/>
        <pt x="294" y="348" on="0"/>
        <pt x="283" y="287" on="0"/>
        <pt x="275" y="257" on="1"/>
        <pt x="212" y="0" on="1"/>
        <pt x="106" y="0" on="1"/>
      </contour>
    </TTGlyph>
    <TTGlyph name="Wacute" xMin="9" yMin="0" xMax="591" yMax="819">
      <component glyphName="W" x="0" y="0" flags="0x204"/>
      <component glyphName="uni0301.cap" x="0" y="0" flags="0x4"/>
    </TTGlyph>
    <TTGlyph name="Wcircumflex" xMin="9" yMin="0" xMax="591" yMax="819">
      <component glyphName="W" x="0" y="0" flags="0x204"/>
      <component glyphName="uni0302.cap" x="0" y="0" flags="0x4"/>
    </TTGlyph>
    <TTGlyph name="Wdieresis" xMin="9" yMin="0" xMax="591" yMax="820">
      <component glyphName="W" x="0" y="0" flags="0x204"/>
      <component glyphName="uni0308.cap" x="0" y="0" flags="0x4"/>
    </TTGlyph>
    <TTGlyph name="Wgrave" xMin="9" yMin="0" xMax="591" yMax="819">
      <component glyphName="W" x="0" y="0" flags="0x204"/>
      <component glyphName="uni0300.cap" x="0" y="0" flags="0x4"/>
    </TTGlyph>
    <TTGlyph name="X" xMin="45" yMin="0" xMax="555" yMax="655">
      <contour>
        <pt x="239" y="338" on="1"/>
        <pt x="57" y="655" on="1"/>
        <pt x="168" y="655" on="1"/>
        <pt x="253" y="499" on="1"/>
        <pt x="265" y="476" on="0"/>
        <pt x="289" y="430" on="0"/>
        <pt x="304" y="401" on="1"/>
        <pt x="308" y="401" on="1"/>
        <pt x="322" y="430" on="0"/>
        <pt x="343" y="476" on="0"/>
        <pt x="355" y="499" on="1"/>
        <pt x="437" y="655" on="1"/>
        <pt x="543" y="655" on="1"/>
        <pt x="361" y="333" on="1"/>
        <pt x="555" y="0" on="1"/>
        <pt x="445" y="0" on="1"/>
        <pt x="353" y="165" on="1"/>
        <pt x="339" y="190" on="0"/>
        <pt x="312" y="241" on="0"/>
        <pt x="297" y="271" on="1"/>
        <pt x="293" y="271" on="1"/>
        <pt x="279" y="241" on="0"/>
        <pt x="253" y="190" on="0"/>
        <pt x="240" y="165" on="1"/>
        <pt x="150" y="0" on="1"/>
        <pt x="45" y="0" on="1"/>
      </contour>
    </TTGlyph>
    <TTGlyph name="Y" xMin="33" yMin="0" xMax="567" yMax="655">
      <contour>
        <pt x="250" y="230" on="1"/>
        <pt x="33" y="655" on="1"/>
        <pt x="139" y="655" on="1"/>
        <pt x="229" y="470" on="1"/>
        <pt x="247" y="432" on="0"/>
        <pt x="281" y="357" on="0"/>
        <pt x="300" y="318" on="1"/>
        <pt x="304" y="318" on="1"/>
        <pt x="323" y="357" on="0"/>
        <pt x="359" y="432" on="0"/>
        <pt x="377" y="470" on="1"/>
        <pt x="464" y="655" on="1"/>
        <pt x="567" y="655" on="1"/>
        <pt x="350" y="230" on="1"/>
        <pt x="350" y="0" on="1"/>
        <pt x="250" y="0" on="1"/>
      </contour>
    </TTGlyph>
    <TTGlyph name="Yacute" xMin="33" yMin="0" xMax="567" yMax="819">
      <component glyphName="Y" x="0" y="0" flags="0x204"/>
      <component glyphName="uni0301.cap" x="0" y="0" flags="0x4"/>
    </TTGlyph>
    <TTGlyph name="Ycircumflex" xMin="33" yMin="0" xMax="567" yMax="819">
      <component glyphName="Y" x="0" y="0" flags="0x204"/>
      <component glyphName="uni0302.cap" x="0" y="0" flags="0x4"/>
    </TTGlyph>
    <TTGlyph name="Ydieresis" xMin="33" yMin="0" xMax="567" yMax="820">
      <component glyphName="Y" x="0" y="0" flags="0x204"/>
      <component glyphName="uni0308.cap" x="0" y="0" flags="0x4"/>
    </TTGlyph>
    <TTGlyph name="Ygrave" xMin="33" yMin="0" xMax="567" yMax="819">
      <component glyphName="Y" x="0" y="0" flags="0x204"/>
      <component glyphName="uni0300.cap" x="0" y="0" flags="0x4"/>
    </TTGlyph>
    <TTGlyph name="Z" xMin="63" yMin="0" xMax="541" yMax="656">
      <contour>
        <pt x="63" y="60" on="1"/>
        <pt x="414" y="572" on="1"/>
        <pt x="94" y="572" on="1"/>
        <pt x="94" y="656" on="1"/>
        <pt x="536" y="656" on="1"/>
        <pt x="536" y="595" on="1"/>
        <pt x="185" y="84" on="1"/>
        <pt x="541" y="84" on="1"/>
        <pt x="541" y="0" on="1"/>
        <pt x="63" y="0" on="1"/>
      </contour>
    </TTGlyph>
    <TTGlyph name="Zacute" xMin="63" yMin="0" xMax="541" yMax="819">
      <component glyphName="Z" x="0" y="0" flags="0x204"/>
      <component glyphName="uni0301.cap" x="15" y="0" flags="0x4"/>
    </TTGlyph>
    <TTGlyph name="Zcaron" xMin="63" yMin="0" xMax="541" yMax="819">
      <component glyphName="Z" x="0" y="0" flags="0x204"/>
      <component glyphName="uni030C.cap" x="15" y="0" flags="0x4"/>
    </TTGlyph>
    <TTGlyph name="Zdotaccent" xMin="63" yMin="0" xMax="541" yMax="830">
      <component glyphName="Z" x="0" y="0" flags="0x204"/>
      <component glyphName="uni0307.cap" x="15" y="0" flags="0x4"/>
    </TTGlyph>
    <TTGlyph name="a" xMin="76" yMin="-12" xMax="520" yMax="501">
      <contour>
        <pt x="76" y="129" on="1"/>
        <pt x="76" y="170" on="0"/>
        <pt x="115" y="232" on="0"/>
        <pt x="198" y="276" on="0"/>
        <pt x="329" y="304" on="0"/>
        <pt x="421" y="311" on="1"/>
        <pt x="419" y="356" on="0"/>
        <pt x="364" y="420" on="0"/>
        <pt x="299" y="420" on="1"/>
        <pt x="254" y="420" on="0"/>
        <pt x="169" y="386" on="0"/>
        <pt x="133" y="365" on="1"/>
        <pt x="96" y="432" on="1"/>
        <pt x="116" y="444" on="0"/>
        <pt x="166" y="469" on="0"/>
        <pt x="223" y="489" on="0"/>
        <pt x="284" y="501" on="0"/>
        <pt x="316" y="501" on="1"/>
        <pt x="418" y="501" on="0"/>
        <pt x="520" y="391" on="0"/>
        <pt x="520" y="294" on="1"/>
        <pt x="520" y="0" on="1"/>
        <pt x="439" y="0" on="1"/>
        <pt x="431" y="63" on="1"/>
        <pt x="428" y="63" on="1"/>
        <pt x="389" y="33" on="0"/>
        <pt x="292" y="-12" on="0"/>
        <pt x="241" y="-12" on="1"/>
        <pt x="206" y="-12" on="0"/>
        <pt x="145" y="8" on="0"/>
        <pt x="101" y="45" on="0"/>
        <pt x="76" y="97" on="0"/>
      </contour>
      <contour>
        <pt x="172" y="136" on="1"/>
        <pt x="172" y="99" on="0"/>
        <pt x="229" y="67" on="0"/>
        <pt x="269" y="67" on="1"/>
        <pt x="308" y="67" on="0"/>
        <pt x="383" y="101" on="0"/>
        <pt x="421" y="132" on="1"/>
        <pt x="421" y="248" on="1"/>
        <pt x="349" y="242" on="0"/>
        <pt x="253" y="223" on="0"/>
        <pt x="196" y="194" on="0"/>
        <pt x="172" y="158" on="0"/>
      </contour>
    </TTGlyph>
    <TTGlyph name="a.a" xMin="56" yMin="-12" xMax="512" yMax="501">
      <component glyphName="uni0251" x="0" y="0" flags="0x204"/>
    </TTGlyph>
    <TTGlyph name="a.supa" xMin="135" yMin="252" xMax="442" yMax="592">
      <contour>
        <pt x="211" y="422" on="1"/>
        <pt x="211" y="369" on="0"/>
        <pt x="254" y="313" on="0"/>
        <pt x="292" y="313" on="1"/>
        <pt x="334" y="313" on="0"/>
        <pt x="367" y="350" on="1"/>
        <pt x="367" y="503" on="1"/>
        <pt x="349" y="518" on="0"/>
        <pt x="312" y="531" on="0"/>
        <pt x="294" y="531" on="1"/>
        <pt x="260" y="531" on="0"/>
        <pt x="211" y="474" on="0"/>
      </contour>
      <contour>
        <pt x="135" y="421" on="1"/>
        <pt x="135" y="461" on="0"/>
        <pt x="159" y="524" on="0"/>
        <pt x="199" y="568" on="0"/>
        <pt x="251" y="592" on="0"/>
        <pt x="280" y="592" on="1"/>
        <pt x="307" y="592" on="0"/>
        <pt x="352" y="572" on="0"/>
        <pt x="374" y="552" on="1"/>
        <pt x="377" y="552" on="1"/>
        <pt x="382" y="584" on="1"/>
        <pt x="442" y="584" on="1"/>
        <pt x="442" y="260" on="1"/>
        <pt x="381" y="260" on="1"/>
        <pt x="375" y="296" on="1"/>
        <pt x="373" y="296" on="1"/>
        <pt x="354" y="278" on="0"/>
        <pt x="302" y="252" on="0"/>
        <pt x="274" y="252" on="1"/>
        <pt x="211" y="252" on="0"/>
        <pt x="135" y="340" on="0"/>
      </contour>
    </TTGlyph>
    <TTGlyph name="a.sups" xMin="164" yMin="252" xMax="445" yMax="592">
      <contour>
        <pt x="164" y="346" on="1"/>
        <pt x="164" y="399" on="0"/>
        <pt x="263" y="456" on="0"/>
        <pt x="371" y="467" on="1"/>
        <pt x="369" y="495" on="0"/>
        <pt x="340" y="533" on="0"/>
        <pt x="304" y="533" on="1"/>
        <pt x="278" y="533" on="0"/>
        <pt x="227" y="514" on="0"/>
        <pt x="205" y="500" on="1"/>
        <pt x="176" y="549" on="1"/>
        <pt x="204" y="566" on="0"/>
        <pt x="277" y="592" on="0"/>
        <pt x="317" y="592" on="1"/>
        <pt x="381" y="592" on="0"/>
        <pt x="445" y="520" on="0"/>
        <pt x="445" y="453" on="1"/>
        <pt x="445" y="260" on="1"/>
        <pt x="384" y="260" on="1"/>
        <pt x="379" y="296" on="1"/>
        <pt x="377" y="296" on="1"/>
        <pt x="354" y="278" on="0"/>
        <pt x="298" y="252" on="0"/>
        <pt x="267" y="252" on="1"/>
        <pt x="223" y="252" on="0"/>
        <pt x="164" y="304" on="0"/>
      </contour>
      <contour>
        <pt x="236" y="352" on="1"/>
        <pt x="236" y="330" on="0"/>
        <pt x="267" y="310" on="0"/>
        <pt x="289" y="310" on="1"/>
        <pt x="311" y="310" on="0"/>
        <pt x="351" y="329" on="0"/>
        <pt x="371" y="346" on="1"/>
        <pt x="371" y="420" on="1"/>
        <pt x="297" y="412" on="0"/>
        <pt x="236" y="377" on="0"/>
      </contour>
    </TTGlyph>
    <TTGlyph name="aacute" xMin="76" yMin="-12" xMax="520" yMax="726">
      <component glyphName="a" x="0" y="0" flags="0x204"/>
      <component glyphName="uni0301" x="12" y="0" flags="0x4"/>
    </TTGlyph>
    <TTGlyph name="aacute.a" xMin="56" yMin="-12" xMax="512" yMax="726">
      <component glyphName="uni0251" x="0" y="0" flags="0x204"/>
      <component glyphName="uni0301" x="9" y="0" flags="0x4"/>
    </TTGlyph>
    <TTGlyph name="abreve" xMin="76" yMin="-12" xMax="520" yMax="714">
      <component glyphName="a" x="0" y="0" flags="0x204"/>
      <component glyphName="uni0306" x="12" y="0" flags="0x4"/>
    </TTGlyph>
    <TTGlyph name="abreve.a" xMin="56" yMin="-12" xMax="512" yMax="714">
      <component glyphName="uni0251" x="0" y="0" flags="0x204"/>
      <component glyphName="uni0306" x="9" y="0" flags="0x4"/>
    </TTGlyph>
    <TTGlyph name="acircumflex" xMin="76" yMin="-12" xMax="520" yMax="726">
      <component glyphName="a" x="0" y="0" flags="0x204"/>
      <component glyphName="uni0302" x="12" y="0" flags="0x4"/>
    </TTGlyph>
    <TTGlyph name="acircumflex.a" xMin="56" yMin="-12" xMax="512" yMax="726">
      <component glyphName="uni0251" x="0" y="0" flags="0x204"/>
      <component glyphName="uni0302" x="9" y="0" flags="0x4"/>
    </TTGlyph>
    <TTGlyph name="acute" xMin="231" yMin="573" xMax="426" yMax="726">
      <component glyphName="uni0301" x="0" y="0" flags="0x204"/>
    </TTGlyph>
    <TTGlyph name="adieresis" xMin="76" yMin="-12" xMax="520" yMax="706">
      <component glyphName="a" x="0" y="0" flags="0x204"/>
      <component glyphName="uni0308" x="12" y="0" flags="0x4"/>
    </TTGlyph>
    <TTGlyph name="adieresis.a" xMin="56" yMin="-12" xMax="512" yMax="706">
      <component glyphName="uni0251" x="0" y="0" flags="0x204"/>
      <component glyphName="uni0308" x="9" y="0" flags="0x4"/>
    </TTGlyph>
    <TTGlyph name="ae" xMin="17" yMin="-12" xMax="596" yMax="501">
      <contour>
        <pt x="17" y="132" on="1"/>
        <pt x="17" y="206" on="0"/>
        <pt x="138" y="291" on="0"/>
        <pt x="259" y="311" on="1"/>
        <pt x="257" y="360" on="0"/>
        <pt x="222" y="421" on="0"/>
        <pt x="180" y="421" on="1"/>
        <pt x="155" y="421" on="0"/>
        <pt x="92" y="398" on="0"/>
        <pt x="68" y="382" on="1"/>
        <pt x="32" y="448" on="1"/>
        <pt x="65" y="469" on="0"/>
        <pt x="144" y="501" on="0"/>
        <pt x="189" y="501" on="1"/>
        <pt x="236" y="501" on="0"/>
        <pt x="295" y="449" on="0"/>
        <pt x="309" y="409" on="1"/>
        <pt x="333" y="453" on="0"/>
        <pt x="400" y="501" on="0"/>
        <pt x="447" y="501" on="1"/>
        <pt x="484" y="501" on="0"/>
        <pt x="540" y="464" on="0"/>
        <pt x="577" y="402" on="0"/>
        <pt x="596" y="320" on="0"/>
        <pt x="596" y="274" on="1"/>
        <pt x="596" y="258" on="0"/>
        <pt x="593" y="231" on="0"/>
        <pt x="591" y="219" on="1"/>
        <pt x="341" y="219" on="1"/>
        <pt x="346" y="149" on="0"/>
        <pt x="402" y="67" on="0"/>
        <pt x="455" y="67" on="1"/>
        <pt x="481" y="67" on="0"/>
        <pt x="526" y="83" on="0"/>
        <pt x="546" y="97" on="1"/>
        <pt x="581" y="32" on="1"/>
        <pt x="555" y="13" on="0"/>
        <pt x="488" y="-12" on="0"/>
        <pt x="452" y="-12" on="1"/>
        <pt x="398" y="-12" on="0"/>
        <pt x="326" y="34" on="0"/>
        <pt x="302" y="75" on="1"/>
        <pt x="220" y="-12" on="0"/>
        <pt x="149" y="-12" on="1"/>
        <pt x="87" y="-12" on="0"/>
        <pt x="17" y="66" on="0"/>
      </contour>
      <contour>
        <pt x="515" y="282" on="1"/>
        <pt x="515" y="310" on="0"/>
        <pt x="508" y="362" on="0"/>
        <pt x="490" y="400" on="0"/>
        <pt x="460" y="423" on="0"/>
        <pt x="438" y="423" on="1"/>
        <pt x="397" y="423" on="0"/>
        <pt x="345" y="350" on="0"/>
        <pt x="340" y="282" on="1"/>
      </contour>
      <contour>
        <pt x="107" y="137" on="1"/>
        <pt x="107" y="102" on="0"/>
        <pt x="143" y="66" on="0"/>
        <pt x="174" y="66" on="1"/>
        <pt x="197" y="66" on="0"/>
        <pt x="251" y="98" on="0"/>
        <pt x="274" y="128" on="1"/>
        <pt x="267" y="148" on="0"/>
        <pt x="260" y="198" on="0"/>
        <pt x="259" y="224" on="1"/>
        <pt x="258" y="248" on="1"/>
        <pt x="177" y="234" on="0"/>
        <pt x="107" y="179" on="0"/>
      </contour>
    </TTGlyph>
    <TTGlyph name="agrave" xMin="76" yMin="-12" xMax="520" yMax="726">
      <component glyphName="a" x="0" y="0" flags="0x204"/>
      <component glyphName="uni0300" x="12" y="0" flags="0x4"/>
    </TTGlyph>
    <TTGlyph name="agrave.a" xMin="56" yMin="-12" xMax="512" yMax="726">
      <component glyphName="uni0251" x="0" y="0" flags="0x204"/>
      <component glyphName="uni0300" x="9" y="0" flags="0x4"/>
    </TTGlyph>
    <TTGlyph name="amacron" xMin="76" yMin="-12" xMax="520" yMax="665">
      <component glyphName="a" x="0" y="0" flags="0x204"/>
      <component glyphName="uni0304" x="12" y="0" flags="0x4"/>
    </TTGlyph>
    <TTGlyph name="amacron.a" xMin="56" yMin="-12" xMax="512" yMax="665">
      <component glyphName="uni0251" x="0" y="0" flags="0x204"/>
      <component glyphName="uni0304" x="9" y="0" flags="0x4"/>
    </TTGlyph>
    <TTGlyph name="ampersand" xMin="37" yMin="-12" xMax="579" yMax="667">
      <contour>
        <pt x="132" y="177" on="1"/>
        <pt x="132" y="126" on="0"/>
        <pt x="199" y="66" on="0"/>
        <pt x="248" y="66" on="1"/>
        <pt x="276" y="66" on="0"/>
        <pt x="328" y="90" on="0"/>
        <pt x="352" y="111" on="1"/>
        <pt x="307" y="150" on="0"/>
        <pt x="226" y="242" on="0"/>
        <pt x="194" y="291" on="1"/>
        <pt x="167" y="266" on="0"/>
        <pt x="132" y="211" on="0"/>
      </contour>
      <contour>
        <pt x="196" y="509" on="1"/>
        <pt x="196" y="484" on="0"/>
        <pt x="210" y="432" on="0"/>
        <pt x="223" y="404" on="1"/>
        <pt x="262" y="432" on="0"/>
        <pt x="317" y="491" on="0"/>
        <pt x="317" y="532" on="1"/>
        <pt x="317" y="559" on="0"/>
        <pt x="292" y="598" on="0"/>
        <pt x="261" y="598" on="1"/>
        <pt x="231" y="598" on="0"/>
        <pt x="196" y="548" on="0"/>
      </contour>
      <contour>
        <pt x="554" y="-12" on="1"/>
        <pt x="488" y="7" on="0"/>
        <pt x="416" y="60" on="1"/>
        <pt x="380" y="27" on="0"/>
        <pt x="292" y="-12" on="0"/>
        <pt x="237" y="-12" on="1"/>
        <pt x="191" y="-12" on="0"/>
        <pt x="117" y="16" on="0"/>
        <pt x="65" y="65" on="0"/>
        <pt x="37" y="132" on="0"/>
        <pt x="37" y="171" on="1"/>
        <pt x="37" y="203" on="0"/>
        <pt x="56" y="256" on="0"/>
        <pt x="89" y="301" on="0"/>
        <pt x="132" y="339" on="0"/>
        <pt x="155" y="356" on="1"/>
        <pt x="135" y="397" on="0"/>
        <pt x="112" y="473" on="0"/>
        <pt x="112" y="508" on="1"/>
        <pt x="112" y="541" on="0"/>
        <pt x="133" y="599" on="0"/>
        <pt x="172" y="642" on="0"/>
        <pt x="226" y="667" on="0"/>
        <pt x="260" y="667" on="1"/>
        <pt x="325" y="667" on="0"/>
        <pt x="395" y="593" on="0"/>
        <pt x="395" y="533" on="1"/>
        <pt x="395" y="501" on="0"/>
        <pt x="371" y="449" on="0"/>
        <pt x="332" y="403" on="0"/>
        <pt x="283" y="362" on="0"/>
        <pt x="258" y="343" on="1"/>
        <pt x="287" y="298" on="0"/>
        <pt x="366" y="212" on="0"/>
        <pt x="408" y="176" on="1"/>
        <pt x="457" y="251" on="0"/>
        <pt x="483" y="358" on="1"/>
        <pt x="574" y="358" on="1"/>
        <pt x="541" y="229" on="0"/>
        <pt x="472" y="126" on="1"/>
        <pt x="501" y="105" on="0"/>
        <pt x="555" y="77" on="0"/>
        <pt x="579" y="69" on="1"/>
      </contour>
    </TTGlyph>
    <TTGlyph name="aogonek" xMin="76" yMin="-207" xMax="541" yMax="501">
      <contour>
        <pt x="76" y="129" on="1"/>
        <pt x="76" y="170" on="0"/>
        <pt x="115" y="232" on="0"/>
        <pt x="198" y="276" on="0"/>
        <pt x="329" y="304" on="0"/>
        <pt x="421" y="311" on="1"/>
        <pt x="419" y="356" on="0"/>
        <pt x="364" y="420" on="0"/>
        <pt x="299" y="420" on="1"/>
        <pt x="254" y="420" on="0"/>
        <pt x="169" y="386" on="0"/>
        <pt x="133" y="365" on="1"/>
        <pt x="96" y="432" on="1"/>
        <pt x="116" y="444" on="0"/>
        <pt x="166" y="469" on="0"/>
        <pt x="223" y="489" on="0"/>
        <pt x="284" y="501" on="0"/>
        <pt x="316" y="501" on="1"/>
        <pt x="418" y="501" on="0"/>
        <pt x="520" y="391" on="0"/>
        <pt x="520" y="294" on="1"/>
        <pt x="520" y="0" on="1"/>
        <pt x="477" y="-16" on="0"/>
        <pt x="433" y="-72" on="0"/>
        <pt x="433" y="-100" on="1"/>
        <pt x="433" y="-123" on="0"/>
        <pt x="461" y="-144" on="0"/>
        <pt x="479" y="-144" on="1"/>
        <pt x="500" y="-144" on="0"/>
        <pt x="518" y="-131" on="1"/>
        <pt x="541" y="-178" on="1"/>
        <pt x="526" y="-191" on="0"/>
        <pt x="477" y="-207" on="0"/>
        <pt x="457" y="-207" on="1"/>
        <pt x="417" y="-207" on="0"/>
        <pt x="363" y="-164" on="0"/>
        <pt x="363" y="-120" on="1"/>
        <pt x="363" y="-99" on="0"/>
        <pt x="377" y="-62" on="0"/>
        <pt x="400" y="-31" on="0"/>
        <pt x="427" y="-6" on="0"/>
        <pt x="440" y="2" on="1"/>
        <pt x="431" y="63" on="1"/>
        <pt x="428" y="63" on="1"/>
        <pt x="389" y="33" on="0"/>
        <pt x="292" y="-12" on="0"/>
        <pt x="241" y="-12" on="1"/>
        <pt x="206" y="-12" on="0"/>
        <pt x="145" y="8" on="0"/>
        <pt x="101" y="45" on="0"/>
        <pt x="76" y="97" on="0"/>
      </contour>
      <contour>
        <pt x="172" y="136" on="1"/>
        <pt x="172" y="99" on="0"/>
        <pt x="229" y="67" on="0"/>
        <pt x="269" y="67" on="1"/>
        <pt x="308" y="67" on="0"/>
        <pt x="383" y="101" on="0"/>
        <pt x="421" y="132" on="1"/>
        <pt x="421" y="248" on="1"/>
        <pt x="349" y="242" on="0"/>
        <pt x="253" y="223" on="0"/>
        <pt x="196" y="194" on="0"/>
        <pt x="172" y="158" on="0"/>
      </contour>
    </TTGlyph>
    <TTGlyph name="aogonek.a" xMin="56" yMin="-207" xMax="533" yMax="501">
      <contour>
        <pt x="158" y="245" on="1"/>
        <pt x="158" y="160" on="0"/>
        <pt x="227" y="70" on="0"/>
        <pt x="290" y="70" on="1"/>
        <pt x="356" y="70" on="0"/>
        <pt x="413" y="136" on="1"/>
        <pt x="413" y="368" on="1"/>
        <pt x="384" y="396" on="0"/>
        <pt x="326" y="418" on="0"/>
        <pt x="297" y="418" on="1"/>
        <pt x="268" y="418" on="0"/>
        <pt x="218" y="394" on="0"/>
        <pt x="180" y="349" on="0"/>
        <pt x="158" y="285" on="0"/>
      </contour>
      <contour>
        <pt x="56" y="244" on="1"/>
        <pt x="56" y="304" on="0"/>
        <pt x="92" y="399" on="0"/>
        <pt x="154" y="465" on="0"/>
        <pt x="233" y="501" on="0"/>
        <pt x="277" y="501" on="1"/>
        <pt x="319" y="501" on="0"/>
        <pt x="389" y="468" on="0"/>
        <pt x="422" y="436" on="1"/>
        <pt x="425" y="436" on="1"/>
        <pt x="434" y="489" on="1"/>
        <pt x="512" y="489" on="1"/>
        <pt x="512" y="0" on="1"/>
        <pt x="467" y="-20" on="0"/>
        <pt x="425" y="-72" on="0"/>
        <pt x="425" y="-100" on="1"/>
        <pt x="425" y="-122" on="0"/>
        <pt x="453" y="-144" on="0"/>
        <pt x="471" y="-144" on="1"/>
        <pt x="492" y="-144" on="0"/>
        <pt x="510" y="-131" on="1"/>
        <pt x="533" y="-178" on="1"/>
        <pt x="518" y="-191" on="0"/>
        <pt x="469" y="-207" on="0"/>
        <pt x="449" y="-207" on="1"/>
        <pt x="409" y="-207" on="0"/>
        <pt x="355" y="-164" on="0"/>
        <pt x="355" y="-120" on="1"/>
        <pt x="355" y="-78" on="0"/>
        <pt x="403" y="-18" on="0"/>
        <pt x="432" y="2" on="1"/>
        <pt x="423" y="60" on="1"/>
        <pt x="420" y="60" on="1"/>
        <pt x="391" y="31" on="0"/>
        <pt x="310" y="-12" on="0"/>
        <pt x="266" y="-12" on="1"/>
        <pt x="219" y="-12" on="0"/>
        <pt x="142" y="22" on="0"/>
        <pt x="86" y="88" on="0"/>
        <pt x="56" y="183" on="0"/>
      </contour>
    </TTGlyph>
    <TTGlyph name="approxequal" xMin="70" yMin="141" xMax="530" yMax="520">
      <component glyphName="asciitilde" x="0" y="110" flags="0x204"/>
      <component glyphName="asciitilde" x="0" y="-109" flags="0x4"/>
    </TTGlyph>
    <TTGlyph name="aring" xMin="76" yMin="-12" xMax="520" yMax="733">
      <component glyphName="a" x="0" y="0" flags="0x204"/>
      <component glyphName="uni030A" x="12" y="0" flags="0x4"/>
    </TTGlyph>
    <TTGlyph name="aring.a" xMin="56" yMin="-12" xMax="512" yMax="733">
      <component glyphName="uni0251" x="0" y="0" flags="0x204"/>
      <component glyphName="uni030A" x="9" y="0" flags="0x4"/>
    </TTGlyph>
    <TTGlyph name="arrowdown" xMin="32" yMin="-25" xMax="568" yMax="528">
      <contour>
        <pt x="298" y="-25" on="1"/>
        <pt x="32" y="249" on="1"/>
        <pt x="87" y="298" on="1"/>
        <pt x="260" y="110" on="1"/>
        <pt x="260" y="528" on="1"/>
        <pt x="340" y="528" on="1"/>
        <pt x="340" y="110" on="1"/>
        <pt x="513" y="298" on="1"/>
        <pt x="568" y="249" on="1"/>
        <pt x="302" y="-25" on="1"/>
      </contour>
    </TTGlyph>
    <TTGlyph name="arrowup" xMin="32" yMin="-25" xMax="568" yMax="528">
      <contour>
        <pt x="302" y="528" on="1"/>
        <pt x="568" y="254" on="1"/>
        <pt x="513" y="205" on="1"/>
        <pt x="340" y="393" on="1"/>
        <pt x="340" y="-25" on="1"/>
        <pt x="260" y="-25" on="1"/>
        <pt x="260" y="393" on="1"/>
        <pt x="87" y="205" on="1"/>
        <pt x="32" y="254" on="1"/>
        <pt x="298" y="528" on="1"/>
      </contour>
    </TTGlyph>
    <TTGlyph name="asciicircum" xMin="105" yMin="281" xMax="495" yMax="670">
      <contour>
        <pt x="258" y="670" on="1"/>
        <pt x="342" y="670" on="1"/>
        <pt x="495" y="281" on="1"/>
        <pt x="411" y="281" on="1"/>
        <pt x="350" y="445" on="1"/>
        <pt x="302" y="579" on="1"/>
        <pt x="298" y="579" on="1"/>
        <pt x="250" y="445" on="1"/>
        <pt x="189" y="281" on="1"/>
        <pt x="105" y="281" on="1"/>
      </contour>
    </TTGlyph>
    <TTGlyph name="asciitilde" xMin="70" yMin="250" xMax="530" yMax="410">
      <contour>
        <pt x="70" y="277" on="1"/>
        <pt x="98" y="350" on="0"/>
        <pt x="172" y="407" on="0"/>
        <pt x="213" y="407" on="1"/>
        <pt x="243" y="407" on="0"/>
        <pt x="290" y="381" on="0"/>
        <pt x="330" y="351" on="0"/>
        <pt x="368" y="325" on="0"/>
        <pt x="389" y="325" on="1"/>
        <pt x="412" y="325" on="0"/>
        <pt x="451" y="360" on="0"/>
        <pt x="468" y="410" on="1"/>
        <pt x="530" y="382" on="1"/>
        <pt x="502" y="310" on="0"/>
        <pt x="428" y="253" on="0"/>
        <pt x="387" y="253" on="1"/>
        <pt x="357" y="253" on="0"/>
        <pt x="310" y="279" on="0"/>
        <pt x="270" y="309" on="0"/>
        <pt x="232" y="335" on="0"/>
        <pt x="211" y="335" on="1"/>
        <pt x="188" y="335" on="0"/>
        <pt x="149" y="299" on="0"/>
        <pt x="132" y="250" on="1"/>
      </contour>
    </TTGlyph>
    <TTGlyph name="asterisk" xMin="79" yMin="106" xMax="521" yMax="559">
      <contour>
        <pt x="133" y="139" on="1"/>
        <pt x="239" y="302" on="1"/>
        <pt x="79" y="372" on="1"/>
        <pt x="96" y="424" on="1"/>
        <pt x="263" y="372" on="1"/>
        <pt x="272" y="559" on="1"/>
        <pt x="328" y="559" on="1"/>
        <pt x="337" y="372" on="1"/>
        <pt x="504" y="424" on="1"/>
        <pt x="521" y="372" on="1"/>
        <pt x="361" y="302" on="1"/>
        <pt x="467" y="139" on="1"/>
        <pt x="419" y="106" on="1"/>
        <pt x="300" y="261" on="1"/>
        <pt x="181" y="106" on="1"/>
      </contour>
    </TTGlyph>
    <TTGlyph name="asterisk.a" xMin="99" yMin="307" xMax="501" yMax="712">
      <contour>
        <pt x="150" y="340" on="1"/>
        <pt x="239" y="485" on="1"/>
        <pt x="99" y="541" on="1"/>
        <pt x="116" y="594" on="1"/>
        <pt x="263" y="553" on="1"/>
        <pt x="272" y="712" on="1"/>
        <pt x="328" y="712" on="1"/>
        <pt x="337" y="554" on="1"/>
        <pt x="484" y="594" on="1"/>
        <pt x="501" y="541" on="1"/>
        <pt x="361" y="485" on="1"/>
        <pt x="450" y="340" on="1"/>
        <pt x="402" y="307" on="1"/>
        <pt x="300" y="443" on="1"/>
        <pt x="198" y="307" on="1"/>
      </contour>
    </TTGlyph>
    <TTGlyph name="at" xMin="45" yMin="-145" xMax="547" yMax="638">
      <contour>
        <pt x="547" y="100" on="1"/>
        <pt x="490" y="100" on="1"/>
        <pt x="482" y="156" on="1"/>
        <pt x="478" y="156" on="1"/>
        <pt x="457" y="128" on="0"/>
        <pt x="388" y="88" on="0"/>
        <pt x="349" y="88" on="1"/>
        <pt x="322" y="88" on="0"/>
        <pt x="275" y="107" on="0"/>
        <pt x="240" y="142" on="0"/>
        <pt x="220" y="192" on="0"/>
        <pt x="220" y="222" on="1"/>
        <pt x="220" y="299" on="0"/>
        <pt x="356" y="377" on="0"/>
        <pt x="481" y="393" on="1"/>
        <pt x="481" y="407" on="1"/>
        <pt x="481" y="441" on="0"/>
        <pt x="464" y="501" on="0"/>
        <pt x="429" y="547" on="0"/>
        <pt x="374" y="574" on="0"/>
        <pt x="336" y="574" on="1"/>
        <pt x="294" y="574" on="0"/>
        <pt x="215" y="534" on="0"/>
        <pt x="154" y="453" on="0"/>
        <pt x="117" y="330" on="0"/>
        <pt x="117" y="248" on="1"/>
        <pt x="117" y="168" on="0"/>
        <pt x="153" y="45" on="0"/>
        <pt x="214" y="-38" on="0"/>
        <pt x="296" y="-81" on="0"/>
        <pt x="343" y="-81" on="1"/>
        <pt x="388" y="-81" on="0"/>
        <pt x="453" y="-58" on="0"/>
        <pt x="482" y="-38" on="1"/>
        <pt x="514" y="-90" on="1"/>
        <pt x="474" y="-116" on="0"/>
        <pt x="391" y="-145" on="0"/>
        <pt x="340" y="-145" on="1"/>
        <pt x="281" y="-145" on="0"/>
        <pt x="174" y="-95" on="0"/>
        <pt x="93" y="5" on="0"/>
        <pt x="45" y="153" on="0"/>
        <pt x="45" y="251" on="1"/>
        <pt x="45" y="348" on="0"/>
        <pt x="91" y="493" on="0"/>
        <pt x="170" y="590" on="0"/>
        <pt x="278" y="638" on="0"/>
        <pt x="340" y="638" on="1"/>
        <pt x="393" y="638" on="0"/>
        <pt x="471" y="601" on="0"/>
        <pt x="522" y="536" on="0"/>
        <pt x="547" y="449" on="0"/>
        <pt x="547" y="398" on="1"/>
      </contour>
      <contour>
        <pt x="297" y="224" on="1"/>
        <pt x="297" y="192" on="0"/>
        <pt x="336" y="156" on="0"/>
        <pt x="370" y="156" on="1"/>
        <pt x="421" y="156" on="0"/>
        <pt x="472" y="213" on="1"/>
        <pt x="472" y="330" on="1"/>
        <pt x="425" y="323" on="0"/>
        <pt x="358" y="304" on="0"/>
        <pt x="316" y="279" on="0"/>
        <pt x="297" y="245" on="0"/>
      </contour>
    </TTGlyph>
    <TTGlyph name="at.case" xMin="45" yMin="-20" xMax="547" yMax="667">
      <contour>
        <pt x="547" y="170" on="1"/>
        <pt x="490" y="170" on="1"/>
        <pt x="482" y="227" on="1"/>
        <pt x="478" y="227" on="1"/>
        <pt x="457" y="198" on="0"/>
        <pt x="388" y="158" on="0"/>
        <pt x="349" y="158" on="1"/>
        <pt x="322" y="158" on="0"/>
        <pt x="275" y="177" on="0"/>
        <pt x="240" y="212" on="0"/>
        <pt x="220" y="262" on="0"/>
        <pt x="220" y="292" on="1"/>
        <pt x="220" y="369" on="0"/>
        <pt x="356" y="447" on="0"/>
        <pt x="481" y="463" on="1"/>
        <pt x="481" y="473" on="1"/>
        <pt x="481" y="499" on="0"/>
        <pt x="464" y="546" on="0"/>
        <pt x="430" y="582" on="0"/>
        <pt x="376" y="603" on="0"/>
        <pt x="340" y="603" on="1"/>
        <pt x="297" y="603" on="0"/>
        <pt x="217" y="569" on="0"/>
        <pt x="155" y="498" on="0"/>
        <pt x="117" y="391" on="0"/>
        <pt x="117" y="318" on="1"/>
        <pt x="117" y="252" on="0"/>
        <pt x="153" y="149" on="0"/>
        <pt x="214" y="80" on="0"/>
        <pt x="296" y="44" on="0"/>
        <pt x="343" y="44" on="1"/>
        <pt x="388" y="44" on="0"/>
        <pt x="453" y="67" on="0"/>
        <pt x="482" y="87" on="1"/>
        <pt x="514" y="35" on="1"/>
        <pt x="474" y="9" on="0"/>
        <pt x="391" y="-20" on="0"/>
        <pt x="340" y="-20" on="1"/>
        <pt x="281" y="-20" on="0"/>
        <pt x="174" y="23" on="0"/>
        <pt x="93" y="109" on="0"/>
        <pt x="45" y="237" on="0"/>
        <pt x="45" y="321" on="1"/>
        <pt x="45" y="408" on="0"/>
        <pt x="92" y="538" on="0"/>
        <pt x="173" y="624" on="0"/>
        <pt x="282" y="667" on="0"/>
        <pt x="344" y="667" on="1"/>
        <pt x="396" y="667" on="0"/>
        <pt x="472" y="634" on="0"/>
        <pt x="522" y="577" on="0"/>
        <pt x="547" y="502" on="0"/>
        <pt x="547" y="459" on="1"/>
      </contour>
      <contour>
        <pt x="297" y="294" on="1"/>
        <pt x="297" y="262" on="0"/>
        <pt x="336" y="226" on="0"/>
        <pt x="370" y="226" on="1"/>
        <pt x="421" y="226" on="0"/>
        <pt x="472" y="283" on="1"/>
        <pt x="472" y="400" on="1"/>
        <pt x="425" y="393" on="0"/>
        <pt x="358" y="374" on="0"/>
        <pt x="316" y="349" on="0"/>
        <pt x="297" y="315" on="0"/>
      </contour>
    </TTGlyph>
    <TTGlyph name="atilde" xMin="76" yMin="-12" xMax="520" yMax="696">
      <component glyphName="a" x="0" y="0" flags="0x204"/>
      <component glyphName="uni0303" x="12" y="0" flags="0x4"/>
    </TTGlyph>
    <TTGlyph name="atilde.a" xMin="56" yMin="-12" xMax="512" yMax="696">
      <component glyphName="uni0251" x="0" y="0" flags="0x204"/>
      <component glyphName="uni0303" x="9" y="0" flags="0x4"/>
    </TTGlyph>
    <TTGlyph name="b" xMin="88" yMin="-12" xMax="544" yMax="709">
      <contour>
        <pt x="88" y="709" on="1"/>
        <pt x="187" y="709" on="1"/>
        <pt x="187" y="521" on="1"/>
        <pt x="184" y="431" on="1"/>
        <pt x="217" y="463" on="0"/>
        <pt x="300" y="501" on="0"/>
        <pt x="342" y="501" on="1"/>
        <pt x="390" y="501" on="0"/>
        <pt x="466" y="466" on="0"/>
        <pt x="517" y="401" on="0"/>
        <pt x="544" y="309" on="0"/>
        <pt x="544" y="252" on="1"/>
        <pt x="544" y="189" on="0"/>
        <pt x="508" y="91" on="0"/>
        <pt x="447" y="24" on="0"/>
        <pt x="368" y="-12" on="0"/>
        <pt x="325" y="-12" on="1"/>
        <pt x="290" y="-12" on="0"/>
        <pt x="211" y="22" on="0"/>
        <pt x="178" y="54" on="1"/>
        <pt x="175" y="54" on="1"/>
        <pt x="166" y="0" on="1"/>
        <pt x="88" y="0" on="1"/>
      </contour>
      <contour>
        <pt x="187" y="121" on="1"/>
        <pt x="218" y="93" on="0"/>
        <pt x="282" y="70" on="0"/>
        <pt x="306" y="70" on="1"/>
        <pt x="364" y="70" on="0"/>
        <pt x="442" y="163" on="0"/>
        <pt x="442" y="251" on="1"/>
        <pt x="442" y="328" on="0"/>
        <pt x="382" y="418" on="0"/>
        <pt x="316" y="418" on="1"/>
        <pt x="286" y="418" on="0"/>
        <pt x="220" y="387" on="0"/>
        <pt x="187" y="352" on="1"/>
      </contour>
    </TTGlyph>
    <TTGlyph name="b.sups" xMin="167" yMin="252" xMax="474" yMax="727">
      <contour>
        <pt x="167" y="727" on="1"/>
        <pt x="241" y="727" on="1"/>
        <pt x="241" y="605" on="1"/>
        <pt x="239" y="551" on="1"/>
        <pt x="261" y="569" on="0"/>
        <pt x="313" y="592" on="0"/>
        <pt x="339" y="592" on="1"/>
        <pt x="404" y="592" on="0"/>
        <pt x="474" y="502" on="0"/>
        <pt x="474" y="427" on="1"/>
        <pt x="474" y="385" on="0"/>
        <pt x="450" y="320" on="0"/>
        <pt x="409" y="275" on="0"/>
        <pt x="357" y="252" on="0"/>
        <pt x="329" y="252" on="1"/>
        <pt x="305" y="252" on="0"/>
        <pt x="256" y="273" on="0"/>
        <pt x="234" y="293" on="1"/>
        <pt x="233" y="293" on="1"/>
        <pt x="226" y="260" on="1"/>
        <pt x="167" y="260" on="1"/>
      </contour>
      <contour>
        <pt x="241" y="340" on="1"/>
        <pt x="261" y="325" on="0"/>
        <pt x="297" y="313" on="0"/>
        <pt x="313" y="313" on="1"/>
        <pt x="349" y="313" on="0"/>
        <pt x="397" y="370" on="0"/>
        <pt x="397" y="426" on="1"/>
        <pt x="397" y="475" on="0"/>
        <pt x="361" y="531" on="0"/>
        <pt x="320" y="531" on="1"/>
        <pt x="282" y="531" on="0"/>
        <pt x="241" y="494" on="1"/>
      </contour>
    </TTGlyph>
    <TTGlyph name="backslash" xMin="93" yMin="-160" xMax="507" yMax="710">
      <contour>
        <pt x="93" y="710" on="1"/>
        <pt x="179" y="710" on="1"/>
        <pt x="507" y="-160" on="1"/>
        <pt x="421" y="-160" on="1"/>
      </contour>
    </TTGlyph>
    <TTGlyph name="bar" xMin="256" yMin="-250" xMax="344" yMax="750">
      <contour>
        <pt x="256" y="750" on="1"/>
        <pt x="344" y="750" on="1"/>
        <pt x="344" y="-250" on="1"/>
        <pt x="256" y="-250" on="1"/>
      </contour>
    </TTGlyph>
    <TTGlyph name="braceleft" xMin="116" yMin="-152" xMax="500" yMax="708">
      <contour>
        <pt x="250" y="-16" on="1"/>
        <pt x="250" y="11" on="0"/>
        <pt x="253" y="57" on="0"/>
        <pt x="256" y="101" on="0"/>
        <pt x="259" y="146" on="0"/>
        <pt x="259" y="171" on="1"/>
        <pt x="259" y="185" on="0"/>
        <pt x="247" y="213" on="0"/>
        <pt x="215" y="234" on="0"/>
        <pt x="159" y="248" on="0"/>
        <pt x="116" y="248" on="1"/>
        <pt x="116" y="308" on="1"/>
        <pt x="159" y="308" on="0"/>
        <pt x="215" y="322" on="0"/>
        <pt x="247" y="343" on="0"/>
        <pt x="259" y="371" on="0"/>
        <pt x="259" y="385" on="1"/>
        <pt x="259" y="433" on="0"/>
        <pt x="250" y="520" on="0"/>
        <pt x="250" y="572" on="1"/>
        <pt x="250" y="611" on="0"/>
        <pt x="272" y="664" on="0"/>
        <pt x="318" y="695" on="0"/>
        <pt x="388" y="708" on="0"/>
        <pt x="435" y="708" on="1"/>
        <pt x="500" y="708" on="1"/>
        <pt x="500" y="652" on="1"/>
        <pt x="451" y="652" on="1"/>
        <pt x="415" y="652" on="0"/>
        <pt x="369" y="643" on="0"/>
        <pt x="343" y="623" on="0"/>
        <pt x="333" y="591" on="0"/>
        <pt x="333" y="567" on="1"/>
        <pt x="333" y="525" on="0"/>
        <pt x="339" y="437" on="0"/>
        <pt x="339" y="391" on="1"/>
        <pt x="339" y="340" on="0"/>
        <pt x="298" y="289" on="0"/>
        <pt x="245" y="280" on="1"/>
        <pt x="245" y="276" on="1"/>
        <pt x="298" y="267" on="0"/>
        <pt x="339" y="216" on="0"/>
        <pt x="339" y="165" on="1"/>
        <pt x="339" y="115" on="0"/>
        <pt x="333" y="34" on="0"/>
        <pt x="333" y="-11" on="1"/>
        <pt x="333" y="-35" on="0"/>
        <pt x="343" y="-67" on="0"/>
        <pt x="369" y="-87" on="0"/>
        <pt x="415" y="-96" on="0"/>
        <pt x="451" y="-96" on="1"/>
        <pt x="500" y="-96" on="1"/>
        <pt x="500" y="-152" on="1"/>
        <pt x="435" y="-152" on="1"/>
        <pt x="388" y="-152" on="0"/>
        <pt x="318" y="-139" on="0"/>
        <pt x="272" y="-108" on="0"/>
        <pt x="250" y="-55" on="0"/>
      </contour>
    </TTGlyph>
    <TTGlyph name="braceright" xMin="100" yMin="-152" xMax="484" yMax="708">
      <contour>
        <pt x="149" y="-96" on="1"/>
        <pt x="185" y="-96" on="0"/>
        <pt x="232" y="-87" on="0"/>
        <pt x="258" y="-67" on="0"/>
        <pt x="268" y="-35" on="0"/>
        <pt x="268" y="-11" on="1"/>
        <pt x="268" y="34" on="0"/>
        <pt x="262" y="115" on="0"/>
        <pt x="262" y="165" on="1"/>
        <pt x="262" y="216" on="0"/>
        <pt x="302" y="267" on="0"/>
        <pt x="355" y="276" on="1"/>
        <pt x="355" y="280" on="1"/>
        <pt x="302" y="289" on="0"/>
        <pt x="262" y="340" on="0"/>
        <pt x="262" y="391" on="1"/>
        <pt x="262" y="437" on="0"/>
        <pt x="268" y="525" on="0"/>
        <pt x="268" y="567" on="1"/>
        <pt x="268" y="591" on="0"/>
        <pt x="258" y="623" on="0"/>
        <pt x="232" y="643" on="0"/>
        <pt x="185" y="652" on="0"/>
        <pt x="149" y="652" on="1"/>
        <pt x="100" y="652" on="1"/>
        <pt x="100" y="708" on="1"/>
        <pt x="165" y="708" on="1"/>
        <pt x="213" y="708" on="0"/>
        <pt x="282" y="695" on="0"/>
        <pt x="328" y="664" on="0"/>
        <pt x="350" y="611" on="0"/>
        <pt x="350" y="572" on="1"/>
        <pt x="350" y="520" on="0"/>
        <pt x="341" y="433" on="0"/>
        <pt x="341" y="385" on="1"/>
        <pt x="341" y="371" on="0"/>
        <pt x="353" y="343" on="0"/>
        <pt x="385" y="322" on="0"/>
        <pt x="440" y="308" on="0"/>
        <pt x="484" y="308" on="1"/>
        <pt x="484" y="248" on="1"/>
        <pt x="440" y="248" on="0"/>
        <pt x="385" y="234" on="0"/>
        <pt x="353" y="213" on="0"/>
        <pt x="341" y="185" on="0"/>
        <pt x="341" y="171" on="1"/>
        <pt x="341" y="146" on="0"/>
        <pt x="344" y="101" on="0"/>
        <pt x="347" y="57" on="0"/>
        <pt x="350" y="11" on="0"/>
        <pt x="350" y="-16" on="1"/>
        <pt x="350" y="-55" on="0"/>
        <pt x="328" y="-108" on="0"/>
        <pt x="282" y="-139" on="0"/>
        <pt x="213" y="-152" on="0"/>
        <pt x="165" y="-152" on="1"/>
        <pt x="100" y="-152" on="1"/>
        <pt x="100" y="-96" on="1"/>
      </contour>
    </TTGlyph>
    <TTGlyph name="bracketleft" xMin="219" yMin="-152" xMax="500" yMax="708">
      <contour>
        <pt x="219" y="708" on="1"/>
        <pt x="500" y="708" on="1"/>
        <pt x="500" y="652" on="1"/>
        <pt x="297" y="652" on="1"/>
        <pt x="297" y="-96" on="1"/>
        <pt x="500" y="-96" on="1"/>
        <pt x="500" y="-152" on="1"/>
        <pt x="219" y="-152" on="1"/>
      </contour>
    </TTGlyph>
    <TTGlyph name="bracketright" xMin="100" yMin="-152" xMax="381" yMax="708">
      <contour>
        <pt x="303" y="-96" on="1"/>
        <pt x="303" y="652" on="1"/>
        <pt x="100" y="652" on="1"/>
        <pt x="100" y="708" on="1"/>
        <pt x="381" y="708" on="1"/>
        <pt x="381" y="-152" on="1"/>
        <pt x="100" y="-152" on="1"/>
        <pt x="100" y="-96" on="1"/>
      </contour>
    </TTGlyph>
    <TTGlyph name="breve" xMin="166" yMin="575" xMax="434" yMax="714">
      <component glyphName="uni0306" x="0" y="0" flags="0x204"/>
    </TTGlyph>
    <TTGlyph name="brokenbar" xMin="256" yMin="-250" xMax="344" yMax="750">
      <contour>
        <pt x="256" y="750" on="1"/>
        <pt x="344" y="750" on="1"/>
        <pt x="344" y="296" on="1"/>
        <pt x="256" y="296" on="1"/>
      </contour>
      <contour>
        <pt x="344" y="211" on="1"/>
        <pt x="344" y="-250" on="1"/>
        <pt x="256" y="-250" on="1"/>
        <pt x="256" y="211" on="1"/>
      </contour>
    </TTGlyph>
    <TTGlyph name="bullet" xMin="147" yMin="111" xMax="453" yMax="413">
      <contour>
        <pt x="300" y="111" on="1"/>
        <pt x="269" y="111" on="0"/>
        <pt x="213" y="133" on="0"/>
        <pt x="171" y="173" on="0"/>
        <pt x="147" y="229" on="0"/>
        <pt x="147" y="262" on="1"/>
        <pt x="147" y="295" on="0"/>
        <pt x="171" y="351" on="0"/>
        <pt x="213" y="391" on="0"/>
        <pt x="269" y="413" on="0"/>
        <pt x="300" y="413" on="1"/>
        <pt x="331" y="413" on="0"/>
        <pt x="387" y="391" on="0"/>
        <pt x="429" y="351" on="0"/>
        <pt x="453" y="295" on="0"/>
        <pt x="453" y="262" on="1"/>
        <pt x="453" y="229" on="0"/>
        <pt x="429" y="173" on="0"/>
        <pt x="387" y="133" on="0"/>
        <pt x="331" y="111" on="0"/>
      </contour>
    </TTGlyph>
    <TTGlyph name="c" xMin="76" yMin="-12" xMax="541" yMax="501">
      <contour>
        <pt x="76" y="244" on="1"/>
        <pt x="76" y="305" on="0"/>
        <pt x="120" y="401" on="0"/>
        <pt x="196" y="467" on="0"/>
        <pt x="295" y="501" on="0"/>
        <pt x="351" y="501" on="1"/>
        <pt x="411" y="501" on="0"/>
        <pt x="501" y="460" on="0"/>
        <pt x="531" y="431" on="1"/>
        <pt x="483" y="368" on="1"/>
        <pt x="454" y="392" on="0"/>
        <pt x="392" y="419" on="0"/>
        <pt x="356" y="419" on="1"/>
        <pt x="317" y="419" on="0"/>
        <pt x="251" y="394" on="0"/>
        <pt x="204" y="348" on="0"/>
        <pt x="178" y="283" on="0"/>
        <pt x="178" y="244" on="1"/>
        <pt x="178" y="205" on="0"/>
        <pt x="203" y="140" on="0"/>
        <pt x="250" y="94" on="0"/>
        <pt x="314" y="69" on="0"/>
        <pt x="353" y="69" on="1"/>
        <pt x="398" y="69" on="0"/>
        <pt x="470" y="103" on="0"/>
        <pt x="499" y="127" on="1"/>
        <pt x="541" y="63" on="1"/>
        <pt x="499" y="27" on="0"/>
        <pt x="399" y="-12" on="0"/>
        <pt x="345" y="-12" on="1"/>
        <pt x="288" y="-12" on="0"/>
        <pt x="189" y="22" on="0"/>
        <pt x="117" y="88" on="0"/>
        <pt x="76" y="183" on="0"/>
      </contour>
    </TTGlyph>
    <TTGlyph name="c.sups" xMin="178" yMin="252" xMax="462" yMax="592">
      <contour>
        <pt x="178" y="421" on="1"/>
        <pt x="178" y="461" on="0"/>
        <pt x="206" y="525" on="0"/>
        <pt x="254" y="569" on="0"/>
        <pt x="317" y="592" on="0"/>
        <pt x="352" y="592" on="1"/>
        <pt x="387" y="592" on="0"/>
        <pt x="438" y="570" on="0"/>
        <pt x="456" y="554" on="1"/>
        <pt x="420" y="507" on="1"/>
        <pt x="390" y="532" on="0"/>
        <pt x="356" y="532" on="1"/>
        <pt x="311" y="532" on="0"/>
        <pt x="254" y="471" on="0"/>
        <pt x="254" y="421" on="1"/>
        <pt x="254" y="372" on="0"/>
        <pt x="309" y="312" on="0"/>
        <pt x="354" y="312" on="1"/>
        <pt x="377" y="312" on="0"/>
        <pt x="416" y="330" on="0"/>
        <pt x="431" y="341" on="1"/>
        <pt x="462" y="294" on="1"/>
        <pt x="411" y="252" on="0"/>
        <pt x="346" y="252" on="1"/>
        <pt x="310" y="252" on="0"/>
        <pt x="249" y="275" on="0"/>
        <pt x="204" y="318" on="0"/>
        <pt x="178" y="381" on="0"/>
      </contour>
    </TTGlyph>
    <TTGlyph name="cacute" xMin="76" yMin="-12" xMax="541" yMax="726">
      <component glyphName="c" x="0" y="0" flags="0x204"/>
      <component glyphName="uni0301" x="43" y="0" flags="0x4"/>
    </TTGlyph>
    <TTGlyph name="caron" xMin="160" yMin="573" xMax="440" yMax="726">
      <component glyphName="uni030C" x="0" y="0" flags="0x204"/>
    </TTGlyph>
    <TTGlyph name="ccaron" xMin="76" yMin="-12" xMax="541" yMax="726">
      <component glyphName="c" x="0" y="0" flags="0x204"/>
      <component glyphName="uni030C" x="43" y="0" flags="0x4"/>
    </TTGlyph>
    <TTGlyph name="ccedilla" xMin="76" yMin="-215" xMax="541" yMax="501">
      <component glyphName="c" x="0" y="0" flags="0x204"/>
      <component glyphName="uni0327" x="42" y="0" flags="0x4"/>
    </TTGlyph>
    <TTGlyph name="ccircumflex" xMin="76" yMin="-12" xMax="541" yMax="726">
      <component glyphName="c" x="0" y="0" flags="0x204"/>
      <component glyphName="uni0302" x="43" y="0" flags="0x4"/>
    </TTGlyph>
    <TTGlyph name="cdotaccent" xMin="76" yMin="-12" xMax="541" yMax="723">
      <component glyphName="c" x="0" y="0" flags="0x204"/>
      <component glyphName="uni0307" x="43" y="0" flags="0x4"/>
    </TTGlyph>
    <TTGlyph name="cedilla" xMin="216" yMin="-215" xMax="377" yMax="3">
      <component glyphName="uni0327" x="5" y="0" flags="0x204"/>
    </TTGlyph>
    <TTGlyph name="cent" xMin="109" yMin="-35" xMax="510" yMax="654">
      <contour>
        <pt x="313" y="466" on="1"/>
        <pt x="262" y="452" on="0"/>
        <pt x="206" y="370" on="0"/>
        <pt x="206" y="309" on="1"/>
        <pt x="206" y="247" on="0"/>
        <pt x="262" y="166" on="0"/>
        <pt x="313" y="152" on="1"/>
      </contour>
      <contour>
        <pt x="510" y="128" on="1"/>
        <pt x="481" y="102" on="0"/>
        <pt x="410" y="70" on="0"/>
        <pt x="372" y="66" on="1"/>
        <pt x="372" y="-35" on="1"/>
        <pt x="313" y="-35" on="1"/>
        <pt x="313" y="67" on="1"/>
        <pt x="267" y="73" on="0"/>
        <pt x="192" y="110" on="0"/>
        <pt x="138" y="171" on="0"/>
        <pt x="109" y="256" on="0"/>
        <pt x="109" y="309" on="1"/>
        <pt x="109" y="361" on="0"/>
        <pt x="140" y="445" on="0"/>
        <pt x="195" y="506" on="0"/>
        <pt x="269" y="544" on="0"/>
        <pt x="313" y="551" on="1"/>
        <pt x="313" y="654" on="1"/>
        <pt x="372" y="654" on="1"/>
        <pt x="372" y="554" on="1"/>
        <pt x="415" y="551" on="0"/>
        <pt x="478" y="518" on="0"/>
        <pt x="501" y="496" on="1"/>
        <pt x="454" y="434" on="1"/>
        <pt x="416" y="468" on="0"/>
        <pt x="372" y="472" on="1"/>
        <pt x="372" y="147" on="1"/>
        <pt x="401" y="149" on="0"/>
        <pt x="449" y="174" on="0"/>
        <pt x="468" y="190" on="1"/>
      </contour>
    </TTGlyph>
    <TTGlyph name="circumflex" xMin="160" yMin="573" xMax="440" yMax="726">
      <component glyphName="uni0302" x="0" y="0" flags="0x204"/>
    </TTGlyph>
    <TTGlyph name="colon" xMin="210" yMin="-12" xMax="390" yMax="523">
      <component glyphName="period" x="0" y="349" flags="0x204"/>
      <component glyphName="period" x="0" y="0" flags="0x4"/>
    </TTGlyph>
    <TTGlyph name="colonmonetary" xMin="92" yMin="-110" xMax="550" yMax="747">
      <contour>
        <pt x="292" y="84" on="1"/>
        <pt x="303" y="77" on="0"/>
        <pt x="329" y="70" on="0"/>
        <pt x="343" y="68" on="1"/>
        <pt x="402" y="566" on="1"/>
        <pt x="384" y="571" on="0"/>
        <pt x="366" y="571" on="1"/>
        <pt x="362" y="571" on="0"/>
        <pt x="354" y="571" on="0"/>
        <pt x="350" y="570" on="1"/>
      </contour>
      <contour>
        <pt x="308" y="561" on="1"/>
        <pt x="251" y="539" on="0"/>
        <pt x="193" y="415" on="0"/>
        <pt x="193" y="320" on="1"/>
        <pt x="193" y="250" on="0"/>
        <pt x="225" y="145" on="0"/>
        <pt x="255" y="113" on="1"/>
      </contour>
      <contour>
        <pt x="550" y="81" on="1"/>
        <pt x="515" y="40" on="0"/>
        <pt x="429" y="-8" on="0"/>
        <pt x="375" y="-11" on="1"/>
        <pt x="363" y="-110" on="1"/>
        <pt x="322" y="-110" on="1"/>
        <pt x="334" y="-11" on="1"/>
        <pt x="306" y="-9" on="0"/>
        <pt x="282" y="-2" on="1"/>
        <pt x="269" y="-110" on="1"/>
        <pt x="228" y="-110" on="1"/>
        <pt x="243" y="13" on="1"/>
        <pt x="173" y="48" on="0"/>
        <pt x="92" y="202" on="0"/>
        <pt x="92" y="317" on="1"/>
        <pt x="92" y="456" on="0"/>
        <pt x="213" y="626" on="0"/>
        <pt x="318" y="644" on="1"/>
        <pt x="330" y="747" on="1"/>
        <pt x="371" y="747" on="1"/>
        <pt x="359" y="649" on="1"/>
        <pt x="372" y="649" on="1"/>
        <pt x="382" y="649" on="0"/>
        <pt x="402" y="647" on="0"/>
        <pt x="412" y="645" on="1"/>
        <pt x="424" y="747" on="1"/>
        <pt x="465" y="747" on="1"/>
        <pt x="451" y="633" on="1"/>
        <pt x="477" y="623" on="0"/>
        <pt x="523" y="591" on="0"/>
        <pt x="541" y="571" on="1"/>
        <pt x="484" y="516" on="1"/>
        <pt x="465" y="535" on="0"/>
        <pt x="441" y="550" on="1"/>
        <pt x="384" y="68" on="1"/>
        <pt x="416" y="73" on="0"/>
        <pt x="469" y="105" on="0"/>
        <pt x="493" y="133" on="1"/>
      </contour>
    </TTGlyph>
    <TTGlyph name="comma" xMin="193" yMin="-214" xMax="404" yMax="170">
      <contour>
        <pt x="193" y="-153" on="1"/>
        <pt x="317" y="-101" on="0"/>
        <pt x="320" y="6" on="1"/>
        <pt x="316" y="5" on="0"/>
        <pt x="308" y="5" on="0"/>
        <pt x="304" y="5" on="1"/>
        <pt x="269" y="5" on="0"/>
        <pt x="218" y="46" on="0"/>
        <pt x="218" y="87" on="1"/>
        <pt x="218" y="127" on="0"/>
        <pt x="270" y="170" on="0"/>
        <pt x="306" y="170" on="1"/>
        <pt x="354" y="170" on="0"/>
        <pt x="404" y="96" on="0"/>
        <pt x="404" y="31" on="1"/>
        <pt x="404" y="-60" on="0"/>
        <pt x="308" y="-183" on="0"/>
        <pt x="220" y="-214" on="1"/>
      </contour>
    </TTGlyph>
    <TTGlyph name="comma.dnom" xMin="240" yMin="-120" xMax="360" yMax="96">
      <contour>
        <pt x="240" y="-78" on="1"/>
        <pt x="272" y="-67" on="0"/>
        <pt x="307" y="-29" on="0"/>
        <pt x="307" y="0" on="1"/>
        <pt x="301" y="0" on="1"/>
        <pt x="281" y="0" on="0"/>
        <pt x="251" y="23" on="0"/>
        <pt x="251" y="46" on="1"/>
        <pt x="251" y="69" on="0"/>
        <pt x="281" y="96" on="0"/>
        <pt x="302" y="96" on="1"/>
        <pt x="360" y="96" on="0"/>
        <pt x="360" y="17" on="1"/>
        <pt x="360" y="-31" on="0"/>
        <pt x="306" y="-103" on="0"/>
        <pt x="257" y="-120" on="1"/>
      </contour>
    </TTGlyph>
    <TTGlyph name="comma.numr" xMin="240" yMin="145" xMax="360" yMax="361">
      <component glyphName="comma.dnom" x="0" y="265" flags="0x204"/>
    </TTGlyph>
    <TTGlyph name="comma.subs" xMin="240" yMin="-289" xMax="360" yMax="-73">
      <component glyphName="comma.dnom" x="0" y="-169" flags="0x204"/>
    </TTGlyph>
    <TTGlyph name="comma.sups" xMin="240" yMin="320" xMax="360" yMax="536">
      <component glyphName="comma.dnom" x="0" y="440" flags="0x204"/>
    </TTGlyph>
    <TTGlyph name="copyright" xMin="27" yMin="-10" xMax="573" yMax="654">
      <contour>
        <pt x="27" y="324" on="1"/>
        <pt x="27" y="400" on="0"/>
        <pt x="69" y="523" on="0"/>
        <pt x="143" y="608" on="0"/>
        <pt x="243" y="654" on="0"/>
        <pt x="300" y="654" on="1"/>
        <pt x="357" y="654" on="0"/>
        <pt x="457" y="608" on="0"/>
        <pt x="531" y="523" on="0"/>
        <pt x="573" y="400" on="0"/>
        <pt x="573" y="324" on="1"/>
        <pt x="573" y="247" on="0"/>
        <pt x="531" y="124" on="0"/>
        <pt x="457" y="37" on="0"/>
        <pt x="357" y="-10" on="0"/>
        <pt x="300" y="-10" on="1"/>
        <pt x="243" y="-10" on="0"/>
        <pt x="143" y="37" on="0"/>
        <pt x="69" y="124" on="0"/>
        <pt x="27" y="247" on="0"/>
      </contour>
      <contour>
        <pt x="78" y="324" on="1"/>
        <pt x="78" y="259" on="0"/>
        <pt x="110" y="153" on="0"/>
        <pt x="168" y="78" on="0"/>
        <pt x="250" y="36" on="0"/>
        <pt x="300" y="36" on="1"/>
        <pt x="350" y="36" on="0"/>
        <pt x="432" y="78" on="0"/>
        <pt x="490" y="153" on="0"/>
        <pt x="522" y="259" on="0"/>
        <pt x="522" y="324" on="1"/>
        <pt x="522" y="388" on="0"/>
        <pt x="490" y="493" on="0"/>
        <pt x="432" y="568" on="0"/>
        <pt x="350" y="608" on="0"/>
        <pt x="300" y="608" on="1"/>
        <pt x="250" y="608" on="0"/>
        <pt x="168" y="568" on="0"/>
        <pt x="110" y="493" on="0"/>
        <pt x="78" y="388" on="0"/>
      </contour>
      <contour>
        <pt x="144" y="323" on="1"/>
        <pt x="144" y="367" on="0"/>
        <pt x="171" y="437" on="0"/>
        <pt x="218" y="487" on="0"/>
        <pt x="278" y="513" on="0"/>
        <pt x="311" y="513" on="1"/>
        <pt x="348" y="513" on="0"/>
        <pt x="398" y="486" on="0"/>
        <pt x="418" y="466" on="1"/>
        <pt x="378" y="421" on="1"/>
        <pt x="363" y="435" on="0"/>
        <pt x="335" y="450" on="0"/>
        <pt x="316" y="450" on="1"/>
        <pt x="272" y="450" on="0"/>
        <pt x="221" y="379" on="0"/>
        <pt x="221" y="323" on="1"/>
        <pt x="221" y="260" on="0"/>
        <pt x="270" y="189" on="0"/>
        <pt x="312" y="189" on="1"/>
        <pt x="336" y="189" on="0"/>
        <pt x="370" y="207" on="0"/>
        <pt x="387" y="220" on="1"/>
        <pt x="422" y="171" on="1"/>
        <pt x="399" y="151" on="0"/>
        <pt x="346" y="126" on="0"/>
        <pt x="309" y="126" on="1"/>
        <pt x="274" y="126" on="0"/>
        <pt x="214" y="153" on="0"/>
        <pt x="169" y="204" on="0"/>
        <pt x="144" y="277" on="0"/>
      </contour>
    </TTGlyph>
    <TTGlyph name="currency" xMin="52" yMin="78" xMax="548" yMax="581">
      <contour>
        <pt x="52" y="130" on="1"/>
        <pt x="135" y="214" on="1"/>
        <pt x="118" y="237" on="0"/>
        <pt x="100" y="295" on="0"/>
        <pt x="100" y="329" on="1"/>
        <pt x="100" y="364" on="0"/>
        <pt x="118" y="421" on="0"/>
        <pt x="135" y="444" on="1"/>
        <pt x="52" y="529" on="1"/>
        <pt x="104" y="581" on="1"/>
        <pt x="192" y="492" on="1"/>
        <pt x="240" y="526" on="0"/>
        <pt x="300" y="526" on="1"/>
        <pt x="360" y="526" on="0"/>
        <pt x="408" y="492" on="1"/>
        <pt x="496" y="581" on="1"/>
        <pt x="548" y="529" on="1"/>
        <pt x="464" y="444" on="1"/>
        <pt x="500" y="397" on="0"/>
        <pt x="500" y="329" on="1"/>
        <pt x="500" y="295" on="0"/>
        <pt x="481" y="237" on="0"/>
        <pt x="464" y="214" on="1"/>
        <pt x="548" y="130" on="1"/>
        <pt x="496" y="78" on="1"/>
        <pt x="408" y="167" on="1"/>
        <pt x="385" y="150" on="0"/>
        <pt x="329" y="133" on="0"/>
        <pt x="300" y="133" on="1"/>
        <pt x="240" y="133" on="0"/>
        <pt x="192" y="167" on="1"/>
        <pt x="104" y="78" on="1"/>
      </contour>
      <contour>
        <pt x="190" y="329" on="1"/>
        <pt x="190" y="272" on="0"/>
        <pt x="254" y="205" on="0"/>
        <pt x="300" y="205" on="1"/>
        <pt x="346" y="205" on="0"/>
        <pt x="410" y="272" on="0"/>
        <pt x="410" y="329" on="1"/>
        <pt x="410" y="386" on="0"/>
        <pt x="346" y="454" on="0"/>
        <pt x="300" y="454" on="1"/>
        <pt x="254" y="454" on="0"/>
        <pt x="190" y="386" on="0"/>
      </contour>
    </TTGlyph>
    <TTGlyph name="d" xMin="56" yMin="-12" xMax="512" yMax="709">
      <contour>
        <pt x="56" y="244" on="1"/>
        <pt x="56" y="304" on="0"/>
        <pt x="93" y="399" on="0"/>
        <pt x="154" y="465" on="0"/>
        <pt x="233" y="501" on="0"/>
        <pt x="275" y="501" on="1"/>
        <pt x="320" y="501" on="0"/>
        <pt x="385" y="469" on="0"/>
        <pt x="417" y="440" on="1"/>
        <pt x="413" y="527" on="1"/>
        <pt x="413" y="709" on="1"/>
        <pt x="512" y="709" on="1"/>
        <pt x="512" y="0" on="1"/>
        <pt x="431" y="0" on="1"/>
        <pt x="423" y="60" on="1"/>
        <pt x="420" y="60" on="1"/>
        <pt x="391" y="31" on="0"/>
        <pt x="311" y="-12" on="0"/>
        <pt x="267" y="-12" on="1"/>
        <pt x="219" y="-12" on="0"/>
        <pt x="142" y="22" on="0"/>
        <pt x="86" y="88" on="0"/>
        <pt x="56" y="183" on="0"/>
      </contour>
      <contour>
        <pt x="158" y="245" on="1"/>
        <pt x="158" y="160" on="0"/>
        <pt x="227" y="70" on="0"/>
        <pt x="290" y="70" on="1"/>
        <pt x="356" y="70" on="0"/>
        <pt x="413" y="136" on="1"/>
        <pt x="413" y="368" on="1"/>
        <pt x="384" y="396" on="0"/>
        <pt x="326" y="418" on="0"/>
        <pt x="297" y="418" on="1"/>
        <pt x="268" y="418" on="0"/>
        <pt x="218" y="394" on="0"/>
        <pt x="180" y="349" on="0"/>
        <pt x="158" y="285" on="0"/>
      </contour>
    </TTGlyph>
    <TTGlyph name="d.sups" xMin="135" yMin="252" xMax="442" yMax="727">
      <contour>
        <pt x="135" y="421" on="1"/>
        <pt x="135" y="461" on="0"/>
        <pt x="159" y="524" on="0"/>
        <pt x="199" y="568" on="0"/>
        <pt x="251" y="592" on="0"/>
        <pt x="279" y="592" on="1"/>
        <pt x="308" y="592" on="0"/>
        <pt x="350" y="573" on="0"/>
        <pt x="370" y="556" on="1"/>
        <pt x="367" y="608" on="1"/>
        <pt x="367" y="727" on="1"/>
        <pt x="442" y="727" on="1"/>
        <pt x="442" y="260" on="1"/>
        <pt x="381" y="260" on="1"/>
        <pt x="375" y="296" on="1"/>
        <pt x="373" y="296" on="1"/>
        <pt x="353" y="278" on="0"/>
        <pt x="302" y="252" on="0"/>
        <pt x="274" y="252" on="1"/>
        <pt x="211" y="252" on="0"/>
        <pt x="135" y="340" on="0"/>
      </contour>
      <contour>
        <pt x="211" y="422" on="1"/>
        <pt x="211" y="369" on="0"/>
        <pt x="254" y="313" on="0"/>
        <pt x="292" y="313" on="1"/>
        <pt x="333" y="313" on="0"/>
        <pt x="367" y="350" on="1"/>
        <pt x="367" y="503" on="1"/>
        <pt x="348" y="518" on="0"/>
        <pt x="313" y="531" on="0"/>
        <pt x="295" y="531" on="1"/>
        <pt x="260" y="531" on="0"/>
        <pt x="211" y="474" on="0"/>
      </contour>
    </TTGlyph>
    <TTGlyph name="dagger" xMin="117" yMin="-80" xMax="483" yMax="712">
      <contour>
        <pt x="265" y="478" on="1"/>
        <pt x="117" y="472" on="1"/>
        <pt x="117" y="554" on="1"/>
        <pt x="265" y="548" on="1"/>
        <pt x="259" y="712" on="1"/>
        <pt x="341" y="712" on="1"/>
        <pt x="335" y="548" on="1"/>
        <pt x="483" y="554" on="1"/>
        <pt x="483" y="472" on="1"/>
        <pt x="335" y="478" on="1"/>
        <pt x="341" y="-80" on="1"/>
        <pt x="259" y="-80" on="1"/>
      </contour>
    </TTGlyph>
    <TTGlyph name="daggerdbl" xMin="117" yMin="-80" xMax="483" yMax="712">
      <contour>
        <pt x="117" y="160" on="1"/>
        <pt x="265" y="152" on="1"/>
        <pt x="259" y="316" on="1"/>
        <pt x="265" y="480" on="1"/>
        <pt x="117" y="472" on="1"/>
        <pt x="117" y="554" on="1"/>
        <pt x="265" y="548" on="1"/>
        <pt x="259" y="712" on="1"/>
        <pt x="341" y="712" on="1"/>
        <pt x="335" y="548" on="1"/>
        <pt x="483" y="554" on="1"/>
        <pt x="483" y="472" on="1"/>
        <pt x="335" y="480" on="1"/>
        <pt x="341" y="316" on="1"/>
        <pt x="335" y="152" on="1"/>
        <pt x="483" y="160" on="1"/>
        <pt x="483" y="78" on="1"/>
        <pt x="335" y="84" on="1"/>
        <pt x="341" y="-80" on="1"/>
        <pt x="259" y="-80" on="1"/>
        <pt x="265" y="84" on="1"/>
        <pt x="117" y="78" on="1"/>
      </contour>
    </TTGlyph>
    <TTGlyph name="dcaron" xMin="44" yMin="-12" xMax="606" yMax="763">
      <component glyphName="d" x="-12" y="0" flags="0x204"/>
      <component glyphName="uni030C.a" x="278" y="0" flags="0x4"/>
    </TTGlyph>
    <TTGlyph name="dcroat" xMin="56" yMin="-12" xMax="583" yMax="709">
      <contour>
        <pt x="413" y="348" on="1"/>
        <pt x="384" y="375" on="0"/>
        <pt x="327" y="398" on="0"/>
        <pt x="298" y="398" on="1"/>
        <pt x="269" y="398" on="0"/>
        <pt x="218" y="375" on="0"/>
        <pt x="180" y="332" on="0"/>
        <pt x="158" y="272" on="0"/>
        <pt x="158" y="235" on="1"/>
        <pt x="158" y="156" on="0"/>
        <pt x="227" y="70" on="0"/>
        <pt x="290" y="70" on="1"/>
        <pt x="356" y="70" on="0"/>
        <pt x="413" y="136" on="1"/>
      </contour>
      <contour>
        <pt x="583" y="572" on="1"/>
        <pt x="512" y="567" on="1"/>
        <pt x="512" y="0" on="1"/>
        <pt x="431" y="0" on="1"/>
        <pt x="423" y="60" on="1"/>
        <pt x="420" y="60" on="1"/>
        <pt x="391" y="31" on="0"/>
        <pt x="311" y="-12" on="0"/>
        <pt x="267" y="-12" on="1"/>
        <pt x="219" y="-12" on="0"/>
        <pt x="142" y="21" on="0"/>
        <pt x="86" y="84" on="0"/>
        <pt x="56" y="175" on="0"/>
        <pt x="56" y="234" on="1"/>
        <pt x="56" y="291" on="0"/>
        <pt x="93" y="383" on="0"/>
        <pt x="154" y="447" on="0"/>
        <pt x="233" y="481" on="0"/>
        <pt x="275" y="481" on="1"/>
        <pt x="320" y="481" on="0"/>
        <pt x="385" y="449" on="0"/>
        <pt x="417" y="420" on="1"/>
        <pt x="413" y="507" on="1"/>
        <pt x="413" y="567" on="1"/>
        <pt x="245" y="567" on="1"/>
        <pt x="245" y="621" on="1"/>
        <pt x="413" y="621" on="1"/>
        <pt x="413" y="709" on="1"/>
        <pt x="512" y="709" on="1"/>
        <pt x="512" y="621" on="1"/>
        <pt x="583" y="621" on="1"/>
      </contour>
    </TTGlyph>
    <TTGlyph name="degree" xMin="170" yMin="421" xMax="431" yMax="685">
      <contour>
        <pt x="300" y="421" on="1"/>
        <pt x="274" y="421" on="0"/>
        <pt x="227" y="440" on="0"/>
        <pt x="191" y="474" on="0"/>
        <pt x="170" y="523" on="0"/>
        <pt x="170" y="552" on="1"/>
        <pt x="170" y="582" on="0"/>
        <pt x="191" y="631" on="0"/>
        <pt x="227" y="666" on="0"/>
        <pt x="274" y="685" on="0"/>
        <pt x="300" y="685" on="1"/>
        <pt x="327" y="685" on="0"/>
        <pt x="374" y="666" on="0"/>
        <pt x="410" y="631" on="0"/>
        <pt x="431" y="582" on="0"/>
        <pt x="431" y="552" on="1"/>
        <pt x="431" y="523" on="0"/>
        <pt x="410" y="474" on="0"/>
        <pt x="374" y="440" on="0"/>
        <pt x="327" y="421" on="0"/>
      </contour>
      <contour>
        <pt x="300" y="473" on="1"/>
        <pt x="333" y="473" on="0"/>
        <pt x="374" y="517" on="0"/>
        <pt x="374" y="552" on="1"/>
        <pt x="374" y="588" on="0"/>
        <pt x="333" y="633" on="0"/>
        <pt x="300" y="633" on="1"/>
        <pt x="268" y="633" on="0"/>
        <pt x="227" y="588" on="0"/>
        <pt x="227" y="552" on="1"/>
        <pt x="227" y="517" on="0"/>
        <pt x="268" y="473" on="0"/>
      </contour>
    </TTGlyph>
    <TTGlyph name="dieresis" xMin="140" yMin="584" xMax="460" yMax="706">
      <component glyphName="uni0308" x="0" y="0" flags="0x204"/>
    </TTGlyph>
    <TTGlyph name="divide" xMin="81" yMin="90" xMax="519" yMax="569">
      <contour>
        <pt x="300" y="450" on="1"/>
        <pt x="274" y="450" on="0"/>
        <pt x="239" y="483" on="0"/>
        <pt x="239" y="510" on="1"/>
        <pt x="239" y="536" on="0"/>
        <pt x="274" y="569" on="0"/>
        <pt x="300" y="569" on="1"/>
        <pt x="326" y="569" on="0"/>
        <pt x="361" y="536" on="0"/>
        <pt x="361" y="510" on="1"/>
        <pt x="361" y="483" on="0"/>
        <pt x="326" y="450" on="0"/>
      </contour>
      <contour>
        <pt x="239" y="150" on="1"/>
        <pt x="239" y="176" on="0"/>
        <pt x="274" y="209" on="0"/>
        <pt x="300" y="209" on="1"/>
        <pt x="326" y="209" on="0"/>
        <pt x="361" y="176" on="0"/>
        <pt x="361" y="150" on="1"/>
        <pt x="361" y="123" on="0"/>
        <pt x="326" y="90" on="0"/>
        <pt x="300" y="90" on="1"/>
        <pt x="274" y="90" on="0"/>
        <pt x="239" y="123" on="0"/>
      </contour>
      <contour>
        <pt x="81" y="366" on="1"/>
        <pt x="519" y="366" on="1"/>
        <pt x="519" y="294" on="1"/>
        <pt x="81" y="294" on="1"/>
      </contour>
    </TTGlyph>
    <TTGlyph name="dollar" xMin="80" yMin="-110" xMax="515" yMax="747">
      <contour>
        <pt x="448" y="481" on="1"/>
        <pt x="431" y="494" on="0"/>
        <pt x="399" y="515" on="0"/>
        <pt x="365" y="529" on="0"/>
        <pt x="327" y="537" on="0"/>
        <pt x="303" y="537" on="1"/>
        <pt x="257" y="537" on="0"/>
        <pt x="204" y="498" on="0"/>
        <pt x="204" y="463" on="1"/>
        <pt x="204" y="438" on="0"/>
        <pt x="250" y="405" on="0"/>
        <pt x="319" y="377" on="0"/>
        <pt x="400" y="348" on="0"/>
        <pt x="469" y="306" on="0"/>
        <pt x="515" y="245" on="0"/>
        <pt x="515" y="199" on="1"/>
        <pt x="515" y="134" on="0"/>
        <pt x="421" y="47" on="0"/>
        <pt x="340" y="37" on="1"/>
        <pt x="340" y="-110" on="1"/>
        <pt x="271" y="-110" on="1"/>
        <pt x="271" y="35" on="1"/>
        <pt x="217" y="40" on="0"/>
        <pt x="115" y="83" on="0"/>
        <pt x="80" y="114" on="1"/>
        <pt x="125" y="182" on="1"/>
        <pt x="165" y="154" on="0"/>
        <pt x="256" y="115" on="0"/>
        <pt x="310" y="115" on="1"/>
        <pt x="363" y="115" on="0"/>
        <pt x="418" y="157" on="0"/>
        <pt x="418" y="192" on="1"/>
        <pt x="418" y="220" on="0"/>
        <pt x="372" y="258" on="0"/>
        <pt x="303" y="288" on="0"/>
        <pt x="223" y="318" on="0"/>
        <pt x="154" y="359" on="0"/>
        <pt x="108" y="417" on="0"/>
        <pt x="108" y="461" on="1"/>
        <pt x="108" y="525" on="0"/>
        <pt x="197" y="607" on="0"/>
        <pt x="271" y="616" on="1"/>
        <pt x="271" y="747" on="1"/>
        <pt x="340" y="747" on="1"/>
        <pt x="340" y="617" on="1"/>
        <pt x="394" y="612" on="0"/>
        <pt x="469" y="569" on="0"/>
        <pt x="499" y="539" on="1"/>
      </contour>
    </TTGlyph>
    <TTGlyph name="dollar.a" xMin="80" yMin="-114" xMax="519" yMax="751">
      <contour>
        <pt x="300" y="115" on="1"/>
        <pt x="314" y="115" on="1"/>
        <pt x="368" y="115" on="0"/>
        <pt x="423" y="157" on="0"/>
        <pt x="423" y="192" on="1"/>
        <pt x="423" y="222" on="0"/>
        <pt x="369" y="261" on="0"/>
        <pt x="330" y="277" on="1"/>
      </contour>
      <contour>
        <pt x="312" y="537" on="1"/>
        <pt x="298" y="537" on="1"/>
        <pt x="252" y="537" on="0"/>
        <pt x="199" y="498" on="0"/>
        <pt x="199" y="463" on="1"/>
        <pt x="199" y="437" on="0"/>
        <pt x="248" y="404" on="0"/>
        <pt x="285" y="390" on="1"/>
      </contour>
      <contour>
        <pt x="346" y="367" on="1"/>
        <pt x="377" y="355" on="0"/>
        <pt x="439" y="327" on="0"/>
        <pt x="489" y="288" on="0"/>
        <pt x="519" y="235" on="0"/>
        <pt x="519" y="199" on="1"/>
        <pt x="519" y="163" on="0"/>
        <pt x="488" y="102" on="0"/>
        <pt x="432" y="58" on="0"/>
        <pt x="351" y="34" on="0"/>
        <pt x="302" y="34" on="1"/>
        <pt x="297" y="34" on="0"/>
        <pt x="289" y="34" on="0"/>
        <pt x="285" y="35" on="1"/>
        <pt x="257" y="-114" on="1"/>
        <pt x="193" y="-106" on="1"/>
        <pt x="221" y="44" on="1"/>
        <pt x="180" y="55" on="0"/>
        <pt x="107" y="91" on="0"/>
        <pt x="80" y="114" on="1"/>
        <pt x="125" y="182" on="1"/>
        <pt x="151" y="165" on="0"/>
        <pt x="206" y="136" on="0"/>
        <pt x="236" y="127" on="1"/>
        <pt x="268" y="301" on="1"/>
        <pt x="238" y="313" on="0"/>
        <pt x="178" y="340" on="0"/>
        <pt x="132" y="378" on="0"/>
        <pt x="103" y="427" on="0"/>
        <pt x="103" y="461" on="1"/>
        <pt x="103" y="497" on="0"/>
        <pt x="133" y="555" on="0"/>
        <pt x="186" y="596" on="0"/>
        <pt x="260" y="618" on="0"/>
        <pt x="305" y="618" on="1"/>
        <pt x="311" y="618" on="0"/>
        <pt x="322" y="618" on="0"/>
        <pt x="327" y="617" on="1"/>
        <pt x="352" y="751" on="1"/>
        <pt x="416" y="743" on="1"/>
        <pt x="391" y="606" on="1"/>
        <pt x="424" y="595" on="0"/>
        <pt x="476" y="561" on="0"/>
        <pt x="499" y="539" on="1"/>
        <pt x="448" y="481" on="1"/>
        <pt x="428" y="495" on="0"/>
        <pt x="394" y="516" on="0"/>
        <pt x="375" y="524" on="1"/>
      </contour>
    </TTGlyph>
    <TTGlyph name="dong" xMin="105" yMin="0" xMax="550" yMax="661">
      <contour>
        <pt x="117" y="55" on="1"/>
        <pt x="505" y="55" on="1"/>
        <pt x="505" y="0" on="1"/>
        <pt x="117" y="0" on="1"/>
      </contour>
      <contour>
        <pt x="390" y="373" on="1"/>
        <pt x="365" y="393" on="0"/>
        <pt x="323" y="410" on="0"/>
        <pt x="295" y="410" on="1"/>
        <pt x="274" y="410" on="0"/>
        <pt x="236" y="394" on="0"/>
        <pt x="208" y="365" on="0"/>
        <pt x="191" y="325" on="0"/>
        <pt x="191" y="301" on="1"/>
        <pt x="191" y="243" on="0"/>
        <pt x="243" y="181" on="0"/>
        <pt x="291" y="181" on="1"/>
        <pt x="318" y="181" on="0"/>
        <pt x="366" y="203" on="0"/>
        <pt x="390" y="229" on="1"/>
      </contour>
      <contour>
        <pt x="550" y="599" on="1"/>
        <pt x="550" y="549" on="1"/>
        <pt x="473" y="544" on="1"/>
        <pt x="473" y="122" on="1"/>
        <pt x="405" y="122" on="1"/>
        <pt x="398" y="163" on="1"/>
        <pt x="395" y="163" on="1"/>
        <pt x="372" y="140" on="0"/>
        <pt x="310" y="112" on="0"/>
        <pt x="272" y="112" on="1"/>
        <pt x="196" y="112" on="0"/>
        <pt x="105" y="209" on="0"/>
        <pt x="105" y="301" on="1"/>
        <pt x="105" y="343" on="0"/>
        <pt x="134" y="409" on="0"/>
        <pt x="183" y="455" on="0"/>
        <pt x="246" y="480" on="0"/>
        <pt x="279" y="480" on="1"/>
        <pt x="317" y="480" on="0"/>
        <pt x="368" y="457" on="0"/>
        <pt x="394" y="436" on="1"/>
        <pt x="390" y="514" on="1"/>
        <pt x="390" y="544" on="1"/>
        <pt x="235" y="544" on="1"/>
        <pt x="235" y="599" on="1"/>
        <pt x="390" y="599" on="1"/>
        <pt x="390" y="661" on="1"/>
        <pt x="473" y="661" on="1"/>
        <pt x="473" y="599" on="1"/>
      </contour>
    </TTGlyph>
    <TTGlyph name="dotaccent" xMin="226" yMin="582" xMax="374" yMax="723">
      <component glyphName="uni0307" x="0" y="0" flags="0x204"/>
    </TTGlyph>
    <TTGlyph name="dotlessi" xMin="87" yMin="0" xMax="405" yMax="489">
      <contour>
        <pt x="87" y="489" on="1"/>
        <pt x="405" y="489" on="1"/>
        <pt x="405" y="0" on="1"/>
        <pt x="306" y="0" on="1"/>
        <pt x="306" y="409" on="1"/>
        <pt x="87" y="409" on="1"/>
      </contour>
    </TTGlyph>
    <TTGlyph name="e" xMin="65" yMin="-12" xMax="540" yMax="501">
      <contour>
        <pt x="65" y="244" on="1"/>
        <pt x="65" y="304" on="0"/>
        <pt x="107" y="399" on="0"/>
        <pt x="177" y="466" on="0"/>
        <pt x="267" y="501" on="0"/>
        <pt x="315" y="501" on="1"/>
        <pt x="369" y="501" on="0"/>
        <pt x="452" y="467" on="0"/>
        <pt x="510" y="406" on="0"/>
        <pt x="540" y="321" on="0"/>
        <pt x="540" y="270" on="1"/>
        <pt x="540" y="255" on="0"/>
        <pt x="537" y="228" on="0"/>
        <pt x="535" y="219" on="1"/>
        <pt x="167" y="219" on="1"/>
        <pt x="172" y="147" on="0"/>
        <pt x="269" y="66" on="0"/>
        <pt x="343" y="66" on="1"/>
        <pt x="383" y="66" on="0"/>
        <pt x="452" y="88" on="0"/>
        <pt x="485" y="108" on="1"/>
        <pt x="520" y="45" on="1"/>
        <pt x="482" y="21" on="0"/>
        <pt x="387" y="-12" on="0"/>
        <pt x="330" y="-12" on="1"/>
        <pt x="275" y="-12" on="0"/>
        <pt x="178" y="23" on="0"/>
        <pt x="106" y="89" on="0"/>
        <pt x="65" y="184" on="0"/>
      </contour>
      <contour>
        <pt x="448" y="287" on="1"/>
        <pt x="448" y="353" on="0"/>
        <pt x="380" y="423" on="0"/>
        <pt x="317" y="423" on="1"/>
        <pt x="262" y="423" on="0"/>
        <pt x="176" y="353" on="0"/>
        <pt x="166" y="287" on="1"/>
      </contour>
    </TTGlyph>
    <TTGlyph name="e.sups" xMin="157" yMin="252" xMax="459" yMax="592">
      <contour>
        <pt x="157" y="421" on="1"/>
        <pt x="157" y="461" on="0"/>
        <pt x="184" y="524" on="0"/>
        <pt x="228" y="568" on="0"/>
        <pt x="286" y="592" on="0"/>
        <pt x="316" y="592" on="1"/>
        <pt x="386" y="592" on="0"/>
        <pt x="459" y="507" on="0"/>
        <pt x="459" y="438" on="1"/>
        <pt x="459" y="427" on="0"/>
        <pt x="457" y="409" on="0"/>
        <pt x="456" y="403" on="1"/>
        <pt x="229" y="403" on="1"/>
        <pt x="234" y="358" on="0"/>
        <pt x="292" y="309" on="0"/>
        <pt x="336" y="309" on="1"/>
        <pt x="359" y="309" on="0"/>
        <pt x="400" y="322" on="0"/>
        <pt x="420" y="333" on="1"/>
        <pt x="446" y="287" on="1"/>
        <pt x="421" y="272" on="0"/>
        <pt x="360" y="252" on="0"/>
        <pt x="326" y="252" on="1"/>
        <pt x="291" y="252" on="0"/>
        <pt x="229" y="275" on="0"/>
        <pt x="183" y="318" on="0"/>
        <pt x="157" y="381" on="0"/>
      </contour>
      <contour>
        <pt x="395" y="450" on="1"/>
        <pt x="395" y="490" on="0"/>
        <pt x="356" y="535" on="0"/>
        <pt x="318" y="535" on="1"/>
        <pt x="286" y="535" on="0"/>
        <pt x="234" y="492" on="0"/>
        <pt x="229" y="450" on="1"/>
      </contour>
    </TTGlyph>
    <TTGlyph name="eacute" xMin="65" yMin="-12" xMax="540" yMax="726">
      <component glyphName="e" x="0" y="0" flags="0x204"/>
      <component glyphName="uni0301" x="14" y="0" flags="0x4"/>
    </TTGlyph>
    <TTGlyph name="eacute.sups" xMin="157" yMin="252" xMax="459" yMax="742">
      <contour>
        <pt x="157" y="421" on="1"/>
        <pt x="157" y="461" on="0"/>
        <pt x="184" y="524" on="0"/>
        <pt x="228" y="568" on="0"/>
        <pt x="286" y="592" on="0"/>
        <pt x="316" y="592" on="1"/>
        <pt x="386" y="592" on="0"/>
        <pt x="459" y="507" on="0"/>
        <pt x="459" y="438" on="1"/>
        <pt x="459" y="427" on="0"/>
        <pt x="457" y="409" on="0"/>
        <pt x="456" y="403" on="1"/>
        <pt x="229" y="403" on="1"/>
        <pt x="234" y="358" on="0"/>
        <pt x="292" y="309" on="0"/>
        <pt x="336" y="309" on="1"/>
        <pt x="359" y="309" on="0"/>
        <pt x="400" y="322" on="0"/>
        <pt x="420" y="333" on="1"/>
        <pt x="446" y="287" on="1"/>
        <pt x="421" y="272" on="0"/>
        <pt x="360" y="252" on="0"/>
        <pt x="326" y="252" on="1"/>
        <pt x="291" y="252" on="0"/>
        <pt x="229" y="275" on="0"/>
        <pt x="183" y="318" on="0"/>
        <pt x="157" y="381" on="0"/>
      </contour>
      <contour>
        <pt x="395" y="450" on="1"/>
        <pt x="395" y="490" on="0"/>
        <pt x="356" y="535" on="0"/>
        <pt x="318" y="535" on="1"/>
        <pt x="286" y="535" on="0"/>
        <pt x="234" y="492" on="0"/>
        <pt x="229" y="450" on="1"/>
      </contour>
      <contour>
        <pt x="322" y="638" on="1"/>
        <pt x="266" y="638" on="1"/>
        <pt x="327" y="742" on="1"/>
        <pt x="405" y="742" on="1"/>
      </contour>
    </TTGlyph>
    <TTGlyph name="ebreve" xMin="65" yMin="-12" xMax="540" yMax="714">
      <component glyphName="e" x="0" y="0" flags="0x204"/>
      <component glyphName="uni0306" x="14" y="0" flags="0x4"/>
    </TTGlyph>
    <TTGlyph name="ecaron" xMin="65" yMin="-12" xMax="540" yMax="726">
      <component glyphName="e" x="0" y="0" flags="0x204"/>
      <component glyphName="uni030C" x="14" y="0" flags="0x4"/>
    </TTGlyph>
    <TTGlyph name="ecircumflex" xMin="65" yMin="-12" xMax="540" yMax="726">
      <component glyphName="e" x="0" y="0" flags="0x204"/>
      <component glyphName="uni0302" x="14" y="0" flags="0x4"/>
    </TTGlyph>
    <TTGlyph name="edieresis" xMin="65" yMin="-12" xMax="540" yMax="706">
      <component glyphName="e" x="0" y="0" flags="0x204"/>
      <component glyphName="uni0308" x="14" y="0" flags="0x4"/>
    </TTGlyph>
    <TTGlyph name="edotaccent" xMin="65" yMin="-12" xMax="540" yMax="723">
      <component glyphName="e" x="0" y="0" flags="0x204"/>
      <component glyphName="uni0307" x="14" y="0" flags="0x4"/>
    </TTGlyph>
    <TTGlyph name="egrave" xMin="65" yMin="-12" xMax="540" yMax="726">
      <component glyphName="e" x="0" y="0" flags="0x204"/>
      <component glyphName="uni0300" x="14" y="0" flags="0x4"/>
    </TTGlyph>
    <TTGlyph name="egrave.sups" xMin="157" yMin="252" xMax="459" yMax="742">
      <contour>
        <pt x="157" y="421" on="1"/>
        <pt x="157" y="461" on="0"/>
        <pt x="184" y="524" on="0"/>
        <pt x="228" y="568" on="0"/>
        <pt x="286" y="592" on="0"/>
        <pt x="316" y="592" on="1"/>
        <pt x="386" y="592" on="0"/>
        <pt x="459" y="507" on="0"/>
        <pt x="459" y="438" on="1"/>
        <pt x="459" y="427" on="0"/>
        <pt x="457" y="409" on="0"/>
        <pt x="456" y="403" on="1"/>
        <pt x="229" y="403" on="1"/>
        <pt x="234" y="358" on="0"/>
        <pt x="292" y="309" on="0"/>
        <pt x="336" y="309" on="1"/>
        <pt x="359" y="309" on="0"/>
        <pt x="400" y="322" on="0"/>
        <pt x="420" y="333" on="1"/>
        <pt x="446" y="287" on="1"/>
        <pt x="421" y="272" on="0"/>
        <pt x="360" y="252" on="0"/>
        <pt x="326" y="252" on="1"/>
        <pt x="291" y="252" on="0"/>
        <pt x="229" y="275" on="0"/>
        <pt x="183" y="318" on="0"/>
        <pt x="157" y="381" on="0"/>
      </contour>
      <contour>
        <pt x="395" y="450" on="1"/>
        <pt x="395" y="490" on="0"/>
        <pt x="356" y="535" on="0"/>
        <pt x="318" y="535" on="1"/>
        <pt x="286" y="535" on="0"/>
        <pt x="234" y="492" on="0"/>
        <pt x="229" y="450" on="1"/>
      </contour>
      <contour>
        <pt x="226" y="742" on="1"/>
        <pt x="304" y="742" on="1"/>
        <pt x="364" y="638" on="1"/>
        <pt x="308" y="638" on="1"/>
      </contour>
    </TTGlyph>
    <TTGlyph name="eight" xMin="66" yMin="-12" xMax="534" yMax="649">
      <contour>
        <pt x="155" y="173" on="1"/>
        <pt x="155" y="122" on="0"/>
        <pt x="236" y="60" on="0"/>
        <pt x="304" y="60" on="1"/>
        <pt x="368" y="60" on="0"/>
        <pt x="440" y="115" on="0"/>
        <pt x="440" y="163" on="1"/>
        <pt x="440" y="193" on="0"/>
        <pt x="411" y="234" on="0"/>
        <pt x="360" y="264" on="0"/>
        <pt x="292" y="288" on="0"/>
        <pt x="252" y="302" on="1"/>
        <pt x="210" y="279" on="0"/>
        <pt x="155" y="217" on="0"/>
      </contour>
      <contour>
        <pt x="350" y="353" on="1"/>
        <pt x="421" y="409" on="0"/>
        <pt x="421" y="472" on="1"/>
        <pt x="421" y="517" on="0"/>
        <pt x="360" y="577" on="0"/>
        <pt x="303" y="577" on="1"/>
        <pt x="254" y="577" on="0"/>
        <pt x="192" y="527" on="0"/>
        <pt x="192" y="482" on="1"/>
        <pt x="192" y="456" on="0"/>
        <pt x="216" y="417" on="0"/>
        <pt x="258" y="387" on="0"/>
        <pt x="316" y="364" on="0"/>
      </contour>
      <contour>
        <pt x="66" y="163" on="1"/>
        <pt x="66" y="195" on="0"/>
        <pt x="88" y="246" on="0"/>
        <pt x="126" y="286" on="0"/>
        <pt x="173" y="317" on="0"/>
        <pt x="199" y="329" on="1"/>
        <pt x="199" y="333" on="1"/>
        <pt x="159" y="359" on="0"/>
        <pt x="103" y="431" on="0"/>
        <pt x="103" y="482" on="1"/>
        <pt x="103" y="520" on="0"/>
        <pt x="133" y="582" on="0"/>
        <pt x="187" y="625" on="0"/>
        <pt x="261" y="649" on="0"/>
        <pt x="305" y="649" on="1"/>
        <pt x="352" y="649" on="0"/>
        <pt x="426" y="624" on="0"/>
        <pt x="478" y="579" on="0"/>
        <pt x="506" y="516" on="0"/>
        <pt x="506" y="478" on="1"/>
        <pt x="506" y="433" on="0"/>
        <pt x="449" y="356" on="0"/>
        <pt x="410" y="329" on="1"/>
        <pt x="410" y="325" on="1"/>
        <pt x="436" y="312" on="0"/>
        <pt x="481" y="283" on="0"/>
        <pt x="515" y="244" on="0"/>
        <pt x="534" y="193" on="0"/>
        <pt x="534" y="160" on="1"/>
        <pt x="534" y="124" on="0"/>
        <pt x="503" y="61" on="0"/>
        <pt x="444" y="14" on="0"/>
        <pt x="357" y="-12" on="0"/>
        <pt x="302" y="-12" on="1"/>
        <pt x="248" y="-12" on="0"/>
        <pt x="160" y="14" on="0"/>
        <pt x="99" y="60" on="0"/>
        <pt x="66" y="125" on="0"/>
      </contour>
    </TTGlyph>
    <TTGlyph name="eight.dnom" xMin="172" yMin="-12" xMax="428" yMax="319">
      <contour>
        <pt x="240" y="82" on="1"/>
        <pt x="240" y="63" on="0"/>
        <pt x="275" y="39" on="0"/>
        <pt x="300" y="39" on="1"/>
        <pt x="323" y="39" on="0"/>
        <pt x="360" y="62" on="0"/>
        <pt x="360" y="80" on="1"/>
        <pt x="360" y="104" on="0"/>
        <pt x="313" y="127" on="0"/>
        <pt x="282" y="136" on="1"/>
        <pt x="240" y="116" on="0"/>
      </contour>
      <contour>
        <pt x="318" y="181" on="1"/>
        <pt x="335" y="192" on="0"/>
        <pt x="350" y="215" on="0"/>
        <pt x="350" y="229" on="1"/>
        <pt x="350" y="246" on="0"/>
        <pt x="324" y="267" on="0"/>
        <pt x="300" y="267" on="1"/>
        <pt x="278" y="267" on="0"/>
        <pt x="251" y="247" on="0"/>
        <pt x="251" y="231" on="1"/>
        <pt x="251" y="211" on="0"/>
        <pt x="290" y="190" on="0"/>
      </contour>
      <contour>
        <pt x="172" y="77" on="1"/>
        <pt x="172" y="108" on="0"/>
        <pt x="212" y="145" on="0"/>
        <pt x="236" y="157" on="1"/>
        <pt x="236" y="161" on="1"/>
        <pt x="214" y="175" on="0"/>
        <pt x="183" y="205" on="0"/>
        <pt x="183" y="233" on="1"/>
        <pt x="183" y="252" on="0"/>
        <pt x="202" y="284" on="0"/>
        <pt x="234" y="306" on="0"/>
        <pt x="276" y="319" on="0"/>
        <pt x="300" y="319" on="1"/>
        <pt x="351" y="319" on="0"/>
        <pt x="418" y="271" on="0"/>
        <pt x="418" y="233" on="1"/>
        <pt x="418" y="205" on="0"/>
        <pt x="385" y="174" on="0"/>
        <pt x="365" y="163" on="1"/>
        <pt x="365" y="159" on="1"/>
        <pt x="391" y="147" on="0"/>
        <pt x="428" y="111" on="0"/>
        <pt x="428" y="77" on="1"/>
        <pt x="428" y="39" on="0"/>
        <pt x="355" y="-12" on="0"/>
        <pt x="300" y="-12" on="1"/>
        <pt x="243" y="-12" on="0"/>
        <pt x="172" y="41" on="0"/>
      </contour>
    </TTGlyph>
    <TTGlyph name="eight.numr" xMin="172" yMin="318" xMax="428" yMax="649">
      <component glyphName="eight.dnom" x="0" y="330" flags="0x204"/>
    </TTGlyph>
    <TTGlyph name="eight.onum" xMin="66" yMin="-12" xMax="534" yMax="649">
      <component glyphName="eight" x="0" y="0" flags="0x204"/>
    </TTGlyph>
    <TTGlyph name="eight.subs" xMin="172" yMin="-181" xMax="428" yMax="150">
      <component glyphName="eight.dnom" x="0" y="-169" flags="0x204"/>
    </TTGlyph>
    <TTGlyph name="eight.sups" xMin="172" yMin="428" xMax="428" yMax="759">
      <component glyphName="eight.dnom" x="0" y="440" flags="0x204"/>
    </TTGlyph>
    <TTGlyph name="ellipsis" xMin="23" yMin="-12" xMax="577" yMax="149">
      <contour>
        <pt x="23" y="68" on="1"/>
        <pt x="23" y="104" on="0"/>
        <pt x="67" y="149" on="0"/>
        <pt x="99" y="149" on="1"/>
        <pt x="131" y="149" on="0"/>
        <pt x="174" y="104" on="0"/>
        <pt x="174" y="68" on="1"/>
        <pt x="174" y="33" on="0"/>
        <pt x="131" y="-12" on="0"/>
        <pt x="99" y="-12" on="1"/>
        <pt x="67" y="-12" on="0"/>
        <pt x="23" y="33" on="0"/>
      </contour>
      <contour>
        <pt x="225" y="68" on="1"/>
        <pt x="225" y="104" on="0"/>
        <pt x="268" y="149" on="0"/>
        <pt x="300" y="149" on="1"/>
        <pt x="332" y="149" on="0"/>
        <pt x="375" y="104" on="0"/>
        <pt x="375" y="68" on="1"/>
        <pt x="375" y="33" on="0"/>
        <pt x="332" y="-12" on="0"/>
        <pt x="300" y="-12" on="1"/>
        <pt x="268" y="-12" on="0"/>
        <pt x="225" y="33" on="0"/>
      </contour>
      <contour>
        <pt x="426" y="68" on="1"/>
        <pt x="426" y="104" on="0"/>
        <pt x="469" y="149" on="0"/>
        <pt x="501" y="149" on="1"/>
        <pt x="533" y="149" on="0"/>
        <pt x="577" y="104" on="0"/>
        <pt x="577" y="68" on="1"/>
        <pt x="577" y="33" on="0"/>
        <pt x="533" y="-12" on="0"/>
        <pt x="501" y="-12" on="1"/>
        <pt x="469" y="-12" on="0"/>
        <pt x="426" y="33" on="0"/>
      </contour>
    </TTGlyph>
    <TTGlyph name="emacron" xMin="65" yMin="-12" xMax="540" yMax="665">
      <component glyphName="e" x="0" y="0" flags="0x204"/>
      <component glyphName="uni0304" x="14" y="0" flags="0x4"/>
    </TTGlyph>
    <TTGlyph name="emdash" xMin="20" yMin="212" xMax="580" yMax="293">
      <contour>
        <pt x="20" y="293" on="1"/>
        <pt x="580" y="293" on="1"/>
        <pt x="580" y="212" on="1"/>
        <pt x="20" y="212" on="1"/>
      </contour>
    </TTGlyph>
    <TTGlyph name="endash" xMin="80" yMin="212" xMax="520" yMax="293">
      <contour>
        <pt x="80" y="293" on="1"/>
        <pt x="520" y="293" on="1"/>
        <pt x="520" y="212" on="1"/>
        <pt x="80" y="212" on="1"/>
      </contour>
    </TTGlyph>
    <TTGlyph name="eogonek" xMin="65" yMin="-207" xMax="540" yMax="501">
      <contour>
        <pt x="520" y="45" on="1"/>
        <pt x="486" y="21" on="0"/>
        <pt x="441" y="-18" on="0"/>
        <pt x="415" y="-53" on="0"/>
        <pt x="404" y="-84" on="0"/>
        <pt x="404" y="-100" on="1"/>
        <pt x="404" y="-122" on="0"/>
        <pt x="432" y="-144" on="0"/>
        <pt x="450" y="-144" on="1"/>
        <pt x="461" y="-144" on="0"/>
        <pt x="480" y="-137" on="0"/>
        <pt x="489" y="-131" on="1"/>
        <pt x="512" y="-178" on="1"/>
        <pt x="497" y="-191" on="0"/>
        <pt x="448" y="-207" on="0"/>
        <pt x="428" y="-207" on="1"/>
        <pt x="388" y="-207" on="0"/>
        <pt x="335" y="-164" on="0"/>
        <pt x="335" y="-120" on="1"/>
        <pt x="335" y="-101" on="0"/>
        <pt x="347" y="-66" on="0"/>
        <pt x="365" y="-36" on="0"/>
        <pt x="388" y="-11" on="0"/>
        <pt x="399" y="-2" on="1"/>
        <pt x="378" y="-9" on="0"/>
        <pt x="347" y="-12" on="0"/>
        <pt x="330" y="-12" on="1"/>
        <pt x="275" y="-12" on="0"/>
        <pt x="178" y="23" on="0"/>
        <pt x="106" y="89" on="0"/>
        <pt x="65" y="184" on="0"/>
        <pt x="65" y="244" on="1"/>
        <pt x="65" y="304" on="0"/>
        <pt x="107" y="399" on="0"/>
        <pt x="177" y="466" on="0"/>
        <pt x="267" y="501" on="0"/>
        <pt x="315" y="501" on="1"/>
        <pt x="369" y="501" on="0"/>
        <pt x="452" y="467" on="0"/>
        <pt x="510" y="406" on="0"/>
        <pt x="540" y="321" on="0"/>
        <pt x="540" y="270" on="1"/>
        <pt x="540" y="255" on="0"/>
        <pt x="537" y="228" on="0"/>
        <pt x="535" y="219" on="1"/>
        <pt x="167" y="219" on="1"/>
        <pt x="172" y="147" on="0"/>
        <pt x="269" y="66" on="0"/>
        <pt x="343" y="66" on="1"/>
        <pt x="383" y="66" on="0"/>
        <pt x="452" y="88" on="0"/>
        <pt x="485" y="108" on="1"/>
      </contour>
      <contour>
        <pt x="448" y="287" on="1"/>
        <pt x="448" y="353" on="0"/>
        <pt x="380" y="423" on="0"/>
        <pt x="317" y="423" on="1"/>
        <pt x="262" y="423" on="0"/>
        <pt x="176" y="353" on="0"/>
        <pt x="166" y="287" on="1"/>
      </contour>
    </TTGlyph>
    <TTGlyph name="equal" xMin="81" yMin="185" xMax="519" yMax="476">
      <component glyphName="minus" x="0" y="110" flags="0x204"/>
      <component glyphName="minus" x="0" y="-109" flags="0x4"/>
    </TTGlyph>
    <TTGlyph name="estimated" xMin="26" yMin="-12" xMax="574" yMax="660">
      <contour>
        <pt x="164" y="68" on="1"/>
        <pt x="190" y="39" on="0"/>
        <pt x="261" y="8" on="0"/>
        <pt x="302" y="8" on="1"/>
        <pt x="355" y="8" on="0"/>
        <pt x="449" y="69" on="0"/>
        <pt x="484" y="120" on="1"/>
        <pt x="522" y="120" on="1"/>
        <pt x="481" y="60" on="0"/>
        <pt x="368" y="-12" on="0"/>
        <pt x="300" y="-12" on="1"/>
        <pt x="243" y="-12" on="0"/>
        <pt x="144" y="41" on="0"/>
        <pt x="69" y="132" on="0"/>
        <pt x="26" y="254" on="0"/>
        <pt x="26" y="324" on="1"/>
        <pt x="26" y="394" on="0"/>
        <pt x="69" y="516" on="0"/>
        <pt x="144" y="607" on="0"/>
        <pt x="243" y="660" on="0"/>
        <pt x="300" y="660" on="1"/>
        <pt x="357" y="660" on="0"/>
        <pt x="456" y="607" on="0"/>
        <pt x="531" y="516" on="0"/>
        <pt x="574" y="394" on="0"/>
        <pt x="574" y="324" on="1"/>
        <pt x="574" y="316" on="1"/>
        <pt x="160" y="316" on="1"/>
        <pt x="156" y="316" on="0"/>
        <pt x="156" y="312" on="1"/>
        <pt x="156" y="88" on="1"/>
        <pt x="156" y="82" on="0"/>
        <pt x="161" y="73" on="0"/>
      </contour>
      <contour>
        <pt x="440" y="334" on="1"/>
        <pt x="446" y="334" on="0"/>
        <pt x="446" y="340" on="1"/>
        <pt x="446" y="564" on="1"/>
        <pt x="446" y="576" on="0"/>
        <pt x="436" y="586" on="1"/>
        <pt x="410" y="612" on="0"/>
        <pt x="340" y="640" on="0"/>
        <pt x="302" y="640" on="1"/>
        <pt x="261" y="640" on="0"/>
        <pt x="190" y="609" on="0"/>
        <pt x="164" y="582" on="1"/>
        <pt x="161" y="577" on="0"/>
        <pt x="156" y="565" on="0"/>
        <pt x="156" y="560" on="1"/>
        <pt x="156" y="340" on="1"/>
        <pt x="156" y="334" on="0"/>
        <pt x="160" y="334" on="1"/>
      </contour>
    </TTGlyph>
    <TTGlyph name="eth" xMin="56" yMin="-12" xMax="540" yMax="733">
      <contour>
        <pt x="300" y="69" on="1"/>
        <pt x="373" y="69" on="0"/>
        <pt x="445" y="170" on="0"/>
        <pt x="445" y="255" on="1"/>
        <pt x="445" y="266" on="0"/>
        <pt x="445" y="287" on="0"/>
        <pt x="444" y="297" on="1"/>
        <pt x="412" y="339" on="0"/>
        <pt x="337" y="373" on="0"/>
        <pt x="300" y="373" on="1"/>
        <pt x="225" y="373" on="0"/>
        <pt x="149" y="291" on="0"/>
        <pt x="149" y="224" on="1"/>
        <pt x="149" y="188" on="0"/>
        <pt x="173" y="131" on="0"/>
        <pt x="214" y="91" on="0"/>
        <pt x="269" y="69" on="0"/>
      </contour>
      <contour>
        <pt x="396" y="609" on="1"/>
        <pt x="461" y="548" on="0"/>
        <pt x="540" y="379" on="0"/>
        <pt x="540" y="260" on="1"/>
        <pt x="540" y="200" on="0"/>
        <pt x="506" y="100" on="0"/>
        <pt x="443" y="28" on="0"/>
        <pt x="353" y="-12" on="0"/>
        <pt x="297" y="-12" on="1"/>
        <pt x="249" y="-12" on="0"/>
        <pt x="162" y="21" on="0"/>
        <pt x="95" y="82" on="0"/>
        <pt x="56" y="169" on="0"/>
        <pt x="56" y="224" on="1"/>
        <pt x="56" y="276" on="0"/>
        <pt x="91" y="359" on="0"/>
        <pt x="152" y="417" on="0"/>
        <pt x="235" y="449" on="0"/>
        <pt x="283" y="449" on="1"/>
        <pt x="327" y="449" on="0"/>
        <pt x="407" y="411" on="0"/>
        <pt x="433" y="376" on="1"/>
        <pt x="419" y="438" on="0"/>
        <pt x="362" y="532" on="0"/>
        <pt x="319" y="570" on="1"/>
        <pt x="169" y="493" on="1"/>
        <pt x="141" y="541" on="1"/>
        <pt x="271" y="607" on="1"/>
        <pt x="222" y="640" on="0"/>
        <pt x="157" y="671" on="1"/>
        <pt x="202" y="733" on="1"/>
        <pt x="242" y="715" on="0"/>
        <pt x="316" y="673" on="0"/>
        <pt x="349" y="647" on="1"/>
        <pt x="484" y="716" on="1"/>
        <pt x="512" y="668" on="1"/>
      </contour>
    </TTGlyph>
    <TTGlyph name="exclam" xMin="220" yMin="-12" xMax="380" yMax="670">
      <contour>
        <pt x="254" y="566" on="1"/>
        <pt x="251" y="670" on="1"/>
        <pt x="349" y="670" on="1"/>
        <pt x="346" y="566" on="1"/>
        <pt x="333" y="238" on="1"/>
        <pt x="267" y="238" on="1"/>
      </contour>
      <contour>
        <pt x="220" y="72" on="1"/>
        <pt x="220" y="110" on="0"/>
        <pt x="267" y="155" on="0"/>
        <pt x="300" y="155" on="1"/>
        <pt x="333" y="155" on="0"/>
        <pt x="380" y="110" on="0"/>
        <pt x="380" y="72" on="1"/>
        <pt x="380" y="34" on="0"/>
        <pt x="333" y="-12" on="0"/>
        <pt x="300" y="-12" on="1"/>
        <pt x="267" y="-12" on="0"/>
        <pt x="220" y="34" on="0"/>
      </contour>
    </TTGlyph>
    <TTGlyph name="exclamdown" xMin="220" yMin="-181" xMax="380" yMax="501">
      <contour>
        <pt x="346" y="-78" on="1"/>
        <pt x="349" y="-181" on="1"/>
        <pt x="251" y="-181" on="1"/>
        <pt x="254" y="-78" on="1"/>
        <pt x="267" y="250" on="1"/>
        <pt x="333" y="250" on="1"/>
      </contour>
      <contour>
        <pt x="380" y="417" on="1"/>
        <pt x="380" y="379" on="0"/>
        <pt x="333" y="334" on="0"/>
        <pt x="300" y="334" on="1"/>
        <pt x="267" y="334" on="0"/>
        <pt x="220" y="379" on="0"/>
        <pt x="220" y="417" on="1"/>
        <pt x="220" y="455" on="0"/>
        <pt x="267" y="501" on="0"/>
        <pt x="300" y="501" on="1"/>
        <pt x="333" y="501" on="0"/>
        <pt x="380" y="455" on="0"/>
      </contour>
    </TTGlyph>
    <TTGlyph name="f" xMin="98" yMin="0" xMax="580" yMax="721">
      <contour>
        <pt x="558" y="620" on="1"/>
        <pt x="530" y="632" on="0"/>
        <pt x="479" y="642" on="0"/>
        <pt x="448" y="642" on="1"/>
        <pt x="387" y="642" on="0"/>
        <pt x="333" y="581" on="0"/>
        <pt x="333" y="525" on="1"/>
        <pt x="333" y="489" on="1"/>
        <pt x="528" y="489" on="1"/>
        <pt x="528" y="409" on="1"/>
        <pt x="333" y="409" on="1"/>
        <pt x="333" y="0" on="1"/>
        <pt x="235" y="0" on="1"/>
        <pt x="235" y="409" on="1"/>
        <pt x="98" y="409" on="1"/>
        <pt x="98" y="484" on="1"/>
        <pt x="235" y="489" on="1"/>
        <pt x="235" y="523" on="1"/>
        <pt x="235" y="567" on="0"/>
        <pt x="259" y="640" on="0"/>
        <pt x="309" y="692" on="0"/>
        <pt x="385" y="721" on="0"/>
        <pt x="437" y="721" on="1"/>
        <pt x="510" y="721" on="0"/>
        <pt x="580" y="693" on="1"/>
      </contour>
    </TTGlyph>
    <TTGlyph name="f.sups" xMin="194" yMin="260" xMax="504" yMax="735">
      <contour>
        <pt x="489" y="663" on="1"/>
        <pt x="456" y="676" on="0"/>
        <pt x="418" y="676" on="1"/>
        <pt x="380" y="676" on="0"/>
        <pt x="345" y="638" on="0"/>
        <pt x="345" y="606" on="1"/>
        <pt x="345" y="584" on="1"/>
        <pt x="469" y="584" on="1"/>
        <pt x="469" y="525" on="1"/>
        <pt x="345" y="525" on="1"/>
        <pt x="345" y="260" on="1"/>
        <pt x="272" y="260" on="1"/>
        <pt x="272" y="525" on="1"/>
        <pt x="194" y="525" on="1"/>
        <pt x="194" y="581" on="1"/>
        <pt x="272" y="584" on="1"/>
        <pt x="272" y="604" on="1"/>
        <pt x="272" y="662" on="0"/>
        <pt x="338" y="735" on="0"/>
        <pt x="410" y="735" on="1"/>
        <pt x="436" y="735" on="0"/>
        <pt x="482" y="726" on="0"/>
        <pt x="504" y="718" on="1"/>
      </contour>
    </TTGlyph>
    <TTGlyph name="fi" xMin="40" yMin="0" xMax="538" yMax="724">
      <contour>
        <pt x="106" y="552" on="1"/>
        <pt x="106" y="628" on="0"/>
        <pt x="179" y="721" on="0"/>
        <pt x="259" y="721" on="1"/>
        <pt x="284" y="721" on="0"/>
        <pt x="328" y="711" on="0"/>
        <pt x="345" y="704" on="1"/>
        <pt x="325" y="630" on="1"/>
        <pt x="298" y="642" on="0"/>
        <pt x="271" y="642" on="1"/>
        <pt x="205" y="642" on="0"/>
        <pt x="205" y="553" on="1"/>
        <pt x="205" y="489" on="1"/>
        <pt x="305" y="489" on="1"/>
        <pt x="305" y="409" on="1"/>
        <pt x="205" y="409" on="1"/>
        <pt x="205" y="0" on="1"/>
        <pt x="106" y="0" on="1"/>
        <pt x="106" y="409" on="1"/>
        <pt x="40" y="409" on="1"/>
        <pt x="40" y="484" on="1"/>
        <pt x="106" y="489" on="1"/>
      </contour>
      <contour>
        <pt x="412" y="489" on="1"/>
        <pt x="511" y="489" on="1"/>
        <pt x="511" y="0" on="1"/>
        <pt x="412" y="0" on="1"/>
      </contour>
      <contour>
        <pt x="461" y="724" on="1"/>
        <pt x="494" y="724" on="0"/>
        <pt x="538" y="685" on="0"/>
        <pt x="538" y="653" on="1"/>
        <pt x="538" y="621" on="0"/>
        <pt x="494" y="582" on="0"/>
        <pt x="461" y="582" on="1"/>
        <pt x="429" y="582" on="0"/>
        <pt x="385" y="621" on="0"/>
        <pt x="385" y="653" on="1"/>
        <pt x="385" y="685" on="0"/>
        <pt x="429" y="724" on="0"/>
      </contour>
    </TTGlyph>
    <TTGlyph name="figuredash" xMin="80" yMin="212" xMax="520" yMax="293">
      <contour>
        <pt x="80" y="293" on="1"/>
        <pt x="520" y="293" on="1"/>
        <pt x="520" y="212" on="1"/>
        <pt x="80" y="212" on="1"/>
      </contour>
    </TTGlyph>
    <TTGlyph name="five" xMin="53" yMin="-12" xMax="525" yMax="637">
      <contour>
        <pt x="101" y="140" on="1"/>
        <pt x="132" y="112" on="0"/>
        <pt x="214" y="69" on="0"/>
        <pt x="273" y="69" on="1"/>
        <pt x="305" y="69" on="0"/>
        <pt x="360" y="88" on="0"/>
        <pt x="401" y="122" on="0"/>
        <pt x="425" y="172" on="0"/>
        <pt x="425" y="203" on="1"/>
        <pt x="425" y="265" on="0"/>
        <pt x="344" y="332" on="0"/>
        <pt x="278" y="332" on="1"/>
        <pt x="259" y="332" on="0"/>
        <pt x="228" y="327" on="0"/>
        <pt x="200" y="318" on="0"/>
        <pt x="171" y="304" on="0"/>
        <pt x="155" y="295" on="1"/>
        <pt x="105" y="327" on="1"/>
        <pt x="125" y="637" on="1"/>
        <pt x="494" y="637" on="1"/>
        <pt x="494" y="553" on="1"/>
        <pt x="212" y="553" on="1"/>
        <pt x="197" y="382" on="1"/>
        <pt x="223" y="393" on="0"/>
        <pt x="273" y="405" on="0"/>
        <pt x="306" y="405" on="1"/>
        <pt x="351" y="405" on="0"/>
        <pt x="431" y="381" on="0"/>
        <pt x="490" y="332" on="0"/>
        <pt x="525" y="257" on="0"/>
        <pt x="525" y="206" on="1"/>
        <pt x="525" y="154" on="0"/>
        <pt x="485" y="73" on="0"/>
        <pt x="418" y="17" on="0"/>
        <pt x="331" y="-12" on="0"/>
        <pt x="285" y="-12" on="1"/>
        <pt x="243" y="-12" on="0"/>
        <pt x="174" y="3" on="0"/>
        <pt x="117" y="27" on="0"/>
        <pt x="72" y="59" on="0"/>
        <pt x="53" y="76" on="1"/>
      </contour>
    </TTGlyph>
    <TTGlyph name="five.dnom" xMin="170" yMin="-12" xMax="428" yMax="307">
      <contour>
        <pt x="204" y="85" on="1"/>
        <pt x="221" y="68" on="0"/>
        <pt x="265" y="45" on="0"/>
        <pt x="294" y="45" on="1"/>
        <pt x="320" y="45" on="0"/>
        <pt x="354" y="72" on="0"/>
        <pt x="354" y="97" on="1"/>
        <pt x="354" y="123" on="0"/>
        <pt x="321" y="149" on="0"/>
        <pt x="293" y="149" on="1"/>
        <pt x="275" y="149" on="0"/>
        <pt x="247" y="138" on="0"/>
        <pt x="232" y="128" on="1"/>
        <pt x="199" y="150" on="1"/>
        <pt x="214" y="307" on="1"/>
        <pt x="410" y="307" on="1"/>
        <pt x="410" y="244" on="1"/>
        <pt x="272" y="244" on="1"/>
        <pt x="264" y="183" on="1"/>
        <pt x="286" y="194" on="0"/>
        <pt x="317" y="194" on="1"/>
        <pt x="367" y="194" on="0"/>
        <pt x="428" y="143" on="0"/>
        <pt x="428" y="95" on="1"/>
        <pt x="428" y="47" on="0"/>
        <pt x="356" y="-12" on="0"/>
        <pt x="301" y="-12" on="1"/>
        <pt x="262" y="-12" on="0"/>
        <pt x="199" y="13" on="0"/>
        <pt x="170" y="39" on="1"/>
      </contour>
    </TTGlyph>
    <TTGlyph name="five.numr" xMin="170" yMin="318" xMax="428" yMax="637">
      <component glyphName="five.dnom" x="0" y="330" flags="0x204"/>
    </TTGlyph>
    <TTGlyph name="five.onum" xMin="53" yMin="-87" xMax="525" yMax="575">
      <contour>
        <pt x="101" y="65" on="1"/>
        <pt x="132" y="37" on="0"/>
        <pt x="214" y="-5" on="0"/>
        <pt x="273" y="-5" on="1"/>
        <pt x="305" y="-5" on="0"/>
        <pt x="360" y="14" on="0"/>
        <pt x="401" y="50" on="0"/>
        <pt x="425" y="101" on="0"/>
        <pt x="425" y="133" on="1"/>
        <pt x="425" y="197" on="0"/>
        <pt x="344" y="265" on="0"/>
        <pt x="278" y="265" on="1"/>
        <pt x="259" y="265" on="0"/>
        <pt x="228" y="260" on="0"/>
        <pt x="200" y="251" on="0"/>
        <pt x="171" y="237" on="0"/>
        <pt x="155" y="228" on="1"/>
        <pt x="105" y="259" on="1"/>
        <pt x="125" y="575" on="1"/>
        <pt x="494" y="575" on="1"/>
        <pt x="494" y="490" on="1"/>
        <pt x="212" y="490" on="1"/>
        <pt x="197" y="314" on="1"/>
        <pt x="223" y="326" on="0"/>
        <pt x="273" y="338" on="0"/>
        <pt x="306" y="338" on="1"/>
        <pt x="351" y="338" on="0"/>
        <pt x="431" y="314" on="0"/>
        <pt x="490" y="265" on="0"/>
        <pt x="525" y="188" on="0"/>
        <pt x="525" y="136" on="1"/>
        <pt x="525" y="83" on="0"/>
        <pt x="485" y="0" on="0"/>
        <pt x="418" y="-57" on="0"/>
        <pt x="331" y="-87" on="0"/>
        <pt x="285" y="-87" on="1"/>
        <pt x="243" y="-87" on="0"/>
        <pt x="174" y="-72" on="0"/>
        <pt x="117" y="-48" on="0"/>
        <pt x="72" y="-16" on="0"/>
        <pt x="53" y="1" on="1"/>
      </contour>
    </TTGlyph>
    <TTGlyph name="five.subs" xMin="170" yMin="-181" xMax="428" yMax="138">
      <component glyphName="five.dnom" x="0" y="-169" flags="0x204"/>
    </TTGlyph>
    <TTGlyph name="five.sups" xMin="170" yMin="428" xMax="428" yMax="747">
      <component glyphName="five.dnom" x="0" y="440" flags="0x204"/>
    </TTGlyph>
    <TTGlyph name="fiveeighths" xMin="25" yMin="-12" xMax="575" yMax="637">
      <component glyphName="five.dnom" x="-131" y="330" flags="0x204"/>
      <component glyphName="fraction" x="0" y="0" flags="0x4"/>
      <component glyphName="eight.dnom" x="133" y="0" flags="0x4"/>
    </TTGlyph>
    <TTGlyph name="fl" xMin="45" yMin="-12" xMax="552" yMax="721">
      <contour>
        <pt x="111" y="552" on="1"/>
        <pt x="111" y="628" on="0"/>
        <pt x="184" y="721" on="0"/>
        <pt x="264" y="721" on="1"/>
        <pt x="288" y="721" on="0"/>
        <pt x="332" y="711" on="0"/>
        <pt x="349" y="704" on="1"/>
        <pt x="329" y="630" on="1"/>
        <pt x="302" y="642" on="0"/>
        <pt x="275" y="642" on="1"/>
        <pt x="210" y="642" on="0"/>
        <pt x="210" y="553" on="1"/>
        <pt x="210" y="489" on="1"/>
        <pt x="309" y="489" on="1"/>
        <pt x="309" y="409" on="1"/>
        <pt x="210" y="409" on="1"/>
        <pt x="210" y="0" on="1"/>
        <pt x="111" y="0" on="1"/>
        <pt x="111" y="409" on="1"/>
        <pt x="45" y="409" on="1"/>
        <pt x="45" y="484" on="1"/>
        <pt x="111" y="489" on="1"/>
      </contour>
      <contour>
        <pt x="552" y="-3" on="1"/>
        <pt x="543" y="-7" on="0"/>
        <pt x="517" y="-12" on="0"/>
        <pt x="498" y="-12" on="1"/>
        <pt x="444" y="-12" on="0"/>
        <pt x="399" y="53" on="0"/>
        <pt x="399" y="112" on="1"/>
        <pt x="399" y="709" on="1"/>
        <pt x="498" y="709" on="1"/>
        <pt x="498" y="106" on="1"/>
        <pt x="498" y="86" on="0"/>
        <pt x="513" y="69" on="0"/>
        <pt x="522" y="69" on="1"/>
        <pt x="526" y="69" on="0"/>
        <pt x="533" y="69" on="0"/>
        <pt x="540" y="71" on="1"/>
      </contour>
    </TTGlyph>
    <TTGlyph name="four" xMin="38" yMin="0" xMax="549" yMax="638">
      <contour>
        <pt x="361" y="248" on="1"/>
        <pt x="361" y="422" on="1"/>
        <pt x="362" y="449" on="0"/>
        <pt x="364" y="514" on="0"/>
        <pt x="366" y="542" on="1"/>
        <pt x="361" y="542" on="1"/>
        <pt x="346" y="517" on="0"/>
        <pt x="312" y="469" on="0"/>
        <pt x="295" y="445" on="1"/>
        <pt x="142" y="248" on="1"/>
      </contour>
      <contour>
        <pt x="549" y="170" on="1"/>
        <pt x="454" y="170" on="1"/>
        <pt x="454" y="0" on="1"/>
        <pt x="361" y="0" on="1"/>
        <pt x="361" y="170" on="1"/>
        <pt x="38" y="170" on="1"/>
        <pt x="38" y="237" on="1"/>
        <pt x="343" y="638" on="1"/>
        <pt x="454" y="638" on="1"/>
        <pt x="454" y="248" on="1"/>
        <pt x="549" y="248" on="1"/>
      </contour>
    </TTGlyph>
    <TTGlyph name="four.dnom" xMin="169" yMin="0" xMax="448" yMax="307">
      <contour>
        <pt x="330" y="119" on="1"/>
        <pt x="330" y="166" on="1"/>
        <pt x="335" y="252" on="1"/>
        <pt x="332" y="252" on="1"/>
        <pt x="290" y="189" on="1"/>
        <pt x="241" y="119" on="1"/>
      </contour>
      <contour>
        <pt x="448" y="70" on="1"/>
        <pt x="397" y="70" on="1"/>
        <pt x="397" y="0" on="1"/>
        <pt x="330" y="0" on="1"/>
        <pt x="330" y="70" on="1"/>
        <pt x="169" y="70" on="1"/>
        <pt x="169" y="106" on="1"/>
        <pt x="310" y="307" on="1"/>
        <pt x="397" y="307" on="1"/>
        <pt x="397" y="119" on="1"/>
        <pt x="448" y="119" on="1"/>
      </contour>
    </TTGlyph>
    <TTGlyph name="four.numr" xMin="169" yMin="330" xMax="448" yMax="637">
      <component glyphName="four.dnom" x="0" y="330" flags="0x204"/>
    </TTGlyph>
    <TTGlyph name="four.onum" xMin="38" yMin="-75" xMax="549" yMax="575">
      <contour>
        <pt x="361" y="169" on="1"/>
        <pt x="361" y="360" on="1"/>
        <pt x="362" y="387" on="0"/>
        <pt x="364" y="452" on="0"/>
        <pt x="366" y="480" on="1"/>
        <pt x="361" y="480" on="1"/>
        <pt x="346" y="454" on="0"/>
        <pt x="313" y="404" on="0"/>
        <pt x="296" y="379" on="1"/>
        <pt x="141" y="169" on="1"/>
      </contour>
      <contour>
        <pt x="549" y="91" on="1"/>
        <pt x="454" y="91" on="1"/>
        <pt x="454" y="-75" on="1"/>
        <pt x="361" y="-75" on="1"/>
        <pt x="361" y="91" on="1"/>
        <pt x="38" y="91" on="1"/>
        <pt x="38" y="158" on="1"/>
        <pt x="343" y="575" on="1"/>
        <pt x="454" y="575" on="1"/>
        <pt x="454" y="169" on="1"/>
        <pt x="549" y="169" on="1"/>
      </contour>
    </TTGlyph>
    <TTGlyph name="four.subs" xMin="169" yMin="-169" xMax="448" yMax="138">
      <component glyphName="four.dnom" x="0" y="-169" flags="0x204"/>
    </TTGlyph>
    <TTGlyph name="four.sups" xMin="169" yMin="440" xMax="448" yMax="747">
      <component glyphName="four.dnom" x="0" y="440" flags="0x204"/>
    </TTGlyph>
    <TTGlyph name="fraction" xMin="25" yMin="31" xMax="575" yMax="624">
      <contour>
        <pt x="25" y="83" on="1"/>
        <pt x="209" y="268" on="1"/>
        <pt x="247" y="233" on="1"/>
        <pt x="81" y="31" on="1"/>
      </contour>
      <contour>
        <pt x="575" y="572" on="1"/>
        <pt x="391" y="387" on="1"/>
        <pt x="353" y="422" on="1"/>
        <pt x="519" y="624" on="1"/>
      </contour>
    </TTGlyph>
    <TTGlyph name="g" xMin="67" yMin="-220" xMax="567" yMax="501">
      <contour>
        <pt x="151" y="-76" on="1"/>
        <pt x="151" y="-111" on="0"/>
        <pt x="228" y="-154" on="0"/>
        <pt x="301" y="-154" on="1"/>
        <pt x="340" y="-154" on="0"/>
        <pt x="403" y="-139" on="0"/>
        <pt x="448" y="-114" on="0"/>
        <pt x="472" y="-82" on="0"/>
        <pt x="472" y="-64" on="1"/>
        <pt x="472" y="-32" on="0"/>
        <pt x="419" y="-11" on="0"/>
        <pt x="366" y="-11" on="1"/>
        <pt x="280" y="-11" on="1"/>
        <pt x="257" y="-11" on="0"/>
        <pt x="221" y="-8" on="0"/>
        <pt x="205" y="-3" on="1"/>
        <pt x="175" y="-20" on="0"/>
        <pt x="151" y="-56" on="0"/>
      </contour>
      <contour>
        <pt x="67" y="-88" on="1"/>
        <pt x="67" y="-59" on="0"/>
        <pt x="108" y="-4" on="0"/>
        <pt x="146" y="18" on="1"/>
        <pt x="146" y="22" on="1"/>
        <pt x="126" y="33" on="0"/>
        <pt x="96" y="72" on="0"/>
        <pt x="96" y="103" on="1"/>
        <pt x="96" y="127" on="0"/>
        <pt x="127" y="176" on="0"/>
        <pt x="155" y="195" on="1"/>
        <pt x="155" y="199" on="1"/>
        <pt x="129" y="218" on="0"/>
        <pt x="93" y="281" on="0"/>
        <pt x="93" y="325" on="1"/>
        <pt x="93" y="366" on="0"/>
        <pt x="125" y="431" on="0"/>
        <pt x="179" y="477" on="0"/>
        <pt x="250" y="501" on="0"/>
        <pt x="290" y="501" on="1"/>
        <pt x="331" y="501" on="0"/>
        <pt x="364" y="489" on="1"/>
        <pt x="565" y="489" on="1"/>
        <pt x="565" y="414" on="1"/>
        <pt x="443" y="414" on="1"/>
        <pt x="458" y="398" on="0"/>
        <pt x="482" y="351" on="0"/>
        <pt x="482" y="322" on="1"/>
        <pt x="482" y="282" on="0"/>
        <pt x="452" y="220" on="0"/>
        <pt x="400" y="177" on="0"/>
        <pt x="330" y="155" on="0"/>
        <pt x="290" y="155" on="1"/>
        <pt x="272" y="155" on="0"/>
        <pt x="231" y="163" on="0"/>
        <pt x="211" y="171" on="1"/>
        <pt x="177" y="149" on="0"/>
        <pt x="177" y="120" on="1"/>
        <pt x="177" y="93" on="0"/>
        <pt x="227" y="69" on="0"/>
        <pt x="274" y="69" on="1"/>
        <pt x="378" y="69" on="1"/>
        <pt x="474" y="69" on="0"/>
        <pt x="567" y="14" on="0"/>
        <pt x="567" y="-49" on="1"/>
        <pt x="567" y="-84" on="0"/>
        <pt x="528" y="-146" on="0"/>
        <pt x="456" y="-193" on="0"/>
        <pt x="354" y="-220" on="0"/>
        <pt x="291" y="-220" on="1"/>
        <pt x="187" y="-220" on="0"/>
        <pt x="67" y="-153" on="0"/>
      </contour>
      <contour>
        <pt x="290" y="219" on="1"/>
        <pt x="332" y="219" on="0"/>
        <pt x="392" y="275" on="0"/>
        <pt x="392" y="325" on="1"/>
        <pt x="392" y="373" on="0"/>
        <pt x="332" y="431" on="0"/>
        <pt x="290" y="431" on="1"/>
        <pt x="248" y="431" on="0"/>
        <pt x="188" y="373" on="0"/>
        <pt x="188" y="325" on="1"/>
        <pt x="188" y="275" on="0"/>
        <pt x="248" y="219" on="0"/>
      </contour>
    </TTGlyph>
    <TTGlyph name="g.a" xMin="56" yMin="-212" xMax="512" yMax="501">
      <component glyphName="uni0261" x="0" y="0" flags="0x204"/>
    </TTGlyph>
    <TTGlyph name="g.supa" xMin="135" yMin="124" xMax="442" yMax="592">
      <contour>
        <pt x="183" y="209" on="1"/>
        <pt x="208" y="195" on="0"/>
        <pt x="259" y="182" on="0"/>
        <pt x="282" y="182" on="1"/>
        <pt x="325" y="182" on="0"/>
        <pt x="366" y="221" on="0"/>
        <pt x="367" y="253" on="1"/>
        <pt x="369" y="304" on="1"/>
        <pt x="351" y="287" on="0"/>
        <pt x="302" y="265" on="0"/>
        <pt x="274" y="265" on="1"/>
        <pt x="211" y="265" on="0"/>
        <pt x="135" y="353" on="0"/>
        <pt x="135" y="427" on="1"/>
        <pt x="135" y="464" on="0"/>
        <pt x="160" y="525" on="0"/>
        <pt x="200" y="569" on="0"/>
        <pt x="253" y="592" on="0"/>
        <pt x="280" y="592" on="1"/>
        <pt x="307" y="592" on="0"/>
        <pt x="352" y="573" on="0"/>
        <pt x="373" y="554" on="1"/>
        <pt x="375" y="554" on="1"/>
        <pt x="381" y="584" on="1"/>
        <pt x="442" y="584" on="1"/>
        <pt x="442" y="252" on="1"/>
        <pt x="442" y="191" on="0"/>
        <pt x="358" y="124" on="0"/>
        <pt x="282" y="124" on="1"/>
        <pt x="252" y="124" on="0"/>
        <pt x="185" y="142" on="0"/>
        <pt x="157" y="160" on="1"/>
      </contour>
      <contour>
        <pt x="292" y="325" on="1"/>
        <pt x="332" y="325" on="0"/>
        <pt x="367" y="364" on="1"/>
        <pt x="367" y="503" on="1"/>
        <pt x="349" y="518" on="0"/>
        <pt x="312" y="531" on="0"/>
        <pt x="294" y="531" on="1"/>
        <pt x="259" y="531" on="0"/>
        <pt x="211" y="476" on="0"/>
        <pt x="211" y="428" on="1"/>
        <pt x="211" y="380" on="0"/>
        <pt x="254" y="325" on="0"/>
      </contour>
    </TTGlyph>
    <TTGlyph name="g.sups" xMin="145" yMin="116" xMax="483" yMax="592">
      <contour>
        <pt x="207" y="213" on="1"/>
        <pt x="207" y="190" on="0"/>
        <pt x="256" y="164" on="0"/>
        <pt x="303" y="164" on="1"/>
        <pt x="353" y="164" on="0"/>
        <pt x="412" y="198" on="0"/>
        <pt x="412" y="219" on="1"/>
        <pt x="412" y="239" on="0"/>
        <pt x="377" y="251" on="0"/>
        <pt x="344" y="251" on="1"/>
        <pt x="290" y="251" on="1"/>
        <pt x="274" y="251" on="0"/>
        <pt x="251" y="254" on="0"/>
        <pt x="241" y="256" on="1"/>
        <pt x="222" y="246" on="0"/>
        <pt x="207" y="224" on="0"/>
      </contour>
      <contour>
        <pt x="145" y="203" on="1"/>
        <pt x="145" y="242" on="0"/>
        <pt x="198" y="272" on="1"/>
        <pt x="198" y="274" on="1"/>
        <pt x="184" y="282" on="0"/>
        <pt x="164" y="308" on="0"/>
        <pt x="164" y="328" on="1"/>
        <pt x="164" y="344" on="0"/>
        <pt x="186" y="376" on="0"/>
        <pt x="204" y="389" on="1"/>
        <pt x="204" y="391" on="1"/>
        <pt x="187" y="404" on="0"/>
        <pt x="162" y="446" on="0"/>
        <pt x="162" y="475" on="1"/>
        <pt x="162" y="503" on="0"/>
        <pt x="183" y="546" on="0"/>
        <pt x="220" y="576" on="0"/>
        <pt x="268" y="592" on="0"/>
        <pt x="295" y="592" on="1"/>
        <pt x="324" y="592" on="0"/>
        <pt x="346" y="584" on="1"/>
        <pt x="480" y="584" on="1"/>
        <pt x="480" y="529" on="1"/>
        <pt x="403" y="529" on="1"/>
        <pt x="412" y="519" on="0"/>
        <pt x="425" y="490" on="0"/>
        <pt x="425" y="473" on="1"/>
        <pt x="425" y="419" on="0"/>
        <pt x="350" y="362" on="0"/>
        <pt x="295" y="362" on="1"/>
        <pt x="283" y="362" on="0"/>
        <pt x="259" y="367" on="0"/>
        <pt x="245" y="372" on="1"/>
        <pt x="225" y="360" on="0"/>
        <pt x="225" y="341" on="1"/>
        <pt x="225" y="310" on="0"/>
        <pt x="286" y="310" on="1"/>
        <pt x="354" y="310" on="1"/>
        <pt x="418" y="310" on="0"/>
        <pt x="483" y="273" on="0"/>
        <pt x="483" y="231" on="1"/>
        <pt x="483" y="207" on="0"/>
        <pt x="457" y="165" on="0"/>
        <pt x="407" y="134" on="0"/>
        <pt x="337" y="116" on="0"/>
        <pt x="294" y="116" on="1"/>
        <pt x="225" y="116" on="0"/>
        <pt x="145" y="159" on="0"/>
      </contour>
      <contour>
        <pt x="295" y="409" on="1"/>
        <pt x="321" y="409" on="0"/>
        <pt x="358" y="444" on="0"/>
        <pt x="358" y="475" on="1"/>
        <pt x="358" y="505" on="0"/>
        <pt x="321" y="541" on="0"/>
        <pt x="295" y="541" on="1"/>
        <pt x="269" y="541" on="0"/>
        <pt x="232" y="505" on="0"/>
        <pt x="232" y="475" on="1"/>
        <pt x="232" y="444" on="0"/>
        <pt x="269" y="409" on="0"/>
      </contour>
    </TTGlyph>
    <TTGlyph name="gbreve" xMin="67" yMin="-220" xMax="567" yMax="714">
      <component glyphName="g" x="0" y="0" flags="0x204"/>
      <component glyphName="uni0306" x="7" y="0" flags="0x4"/>
    </TTGlyph>
    <TTGlyph name="gbreve.a" xMin="56" yMin="-212" xMax="512" yMax="714">
      <component glyphName="uni0261" x="0" y="0" flags="0x204"/>
      <component glyphName="uni0306" x="8" y="0" flags="0x4"/>
    </TTGlyph>
    <TTGlyph name="gcaron" xMin="67" yMin="-220" xMax="567" yMax="726">
      <component glyphName="g" x="0" y="0" flags="0x204"/>
      <component glyphName="uni030C" x="7" y="0" flags="0x4"/>
    </TTGlyph>
    <TTGlyph name="gcaron.a" xMin="56" yMin="-212" xMax="512" yMax="726">
      <component glyphName="uni0261" x="0" y="0" flags="0x204"/>
      <component glyphName="uni030C" x="8" y="0" flags="0x4"/>
    </TTGlyph>
    <TTGlyph name="gcircumflex" xMin="67" yMin="-220" xMax="567" yMax="726">
      <component glyphName="g" x="0" y="0" flags="0x204"/>
      <component glyphName="uni0302" x="7" y="0" flags="0x4"/>
    </TTGlyph>
    <TTGlyph name="gcircumflex.a" xMin="56" yMin="-212" xMax="512" yMax="726">
      <component glyphName="uni0261" x="0" y="0" flags="0x204"/>
      <component glyphName="uni0302" x="8" y="0" flags="0x4"/>
    </TTGlyph>
    <TTGlyph name="gdotaccent" xMin="67" yMin="-220" xMax="567" yMax="723">
      <component glyphName="g" x="0" y="0" flags="0x204"/>
      <component glyphName="uni0307" x="7" y="0" flags="0x4"/>
    </TTGlyph>
    <TTGlyph name="gdotaccent.a" xMin="56" yMin="-212" xMax="512" yMax="723">
      <component glyphName="uni0261" x="0" y="0" flags="0x204"/>
      <component glyphName="uni0307" x="8" y="0" flags="0x4"/>
    </TTGlyph>
    <TTGlyph name="germandbls" xMin="81" yMin="-12" xMax="566" yMax="721">
      <contour>
        <pt x="81" y="513" on="1"/>
        <pt x="81" y="559" on="0"/>
        <pt x="109" y="636" on="0"/>
        <pt x="162" y="691" on="0"/>
        <pt x="239" y="721" on="0"/>
        <pt x="289" y="721" on="1"/>
        <pt x="331" y="721" on="0"/>
        <pt x="394" y="696" on="0"/>
        <pt x="437" y="654" on="0"/>
        <pt x="459" y="598" on="0"/>
        <pt x="459" y="568" on="1"/>
        <pt x="459" y="531" on="0"/>
        <pt x="433" y="479" on="0"/>
        <pt x="402" y="436" on="0"/>
        <pt x="376" y="396" on="0"/>
        <pt x="376" y="372" on="1"/>
        <pt x="376" y="350" on="0"/>
        <pt x="404" y="320" on="0"/>
        <pt x="446" y="294" on="0"/>
        <pt x="496" y="268" on="0"/>
        <pt x="538" y="232" on="0"/>
        <pt x="566" y="180" on="0"/>
        <pt x="566" y="141" on="1"/>
        <pt x="566" y="109" on="0"/>
        <pt x="543" y="53" on="0"/>
        <pt x="500" y="12" on="0"/>
        <pt x="439" y="-12" on="0"/>
        <pt x="400" y="-12" on="1"/>
        <pt x="358" y="-12" on="0"/>
        <pt x="289" y="11" on="0"/>
        <pt x="257" y="31" on="1"/>
        <pt x="294" y="100" on="1"/>
        <pt x="321" y="81" on="0"/>
        <pt x="370" y="64" on="0"/>
        <pt x="397" y="64" on="1"/>
        <pt x="434" y="64" on="0"/>
        <pt x="473" y="104" on="0"/>
        <pt x="473" y="133" on="1"/>
        <pt x="473" y="159" on="0"/>
        <pt x="445" y="194" on="0"/>
        <pt x="403" y="222" on="0"/>
        <pt x="353" y="247" on="0"/>
        <pt x="311" y="280" on="0"/>
        <pt x="283" y="326" on="0"/>
        <pt x="283" y="360" on="1"/>
        <pt x="283" y="393" on="0"/>
        <pt x="309" y="441" on="0"/>
        <pt x="340" y="485" on="0"/>
        <pt x="366" y="531" on="0"/>
        <pt x="366" y="562" on="1"/>
        <pt x="366" y="596" on="0"/>
        <pt x="325" y="642" on="0"/>
        <pt x="288" y="642" on="1"/>
        <pt x="237" y="642" on="0"/>
        <pt x="180" y="571" on="0"/>
        <pt x="180" y="502" on="1"/>
        <pt x="180" y="0" on="1"/>
        <pt x="81" y="0" on="1"/>
      </contour>
    </TTGlyph>
    <TTGlyph name="grave" xMin="174" yMin="573" xMax="369" yMax="726">
      <component glyphName="uni0300" x="0" y="0" flags="0x204"/>
    </TTGlyph>
    <TTGlyph name="greater" xMin="104" yMin="44" xMax="481" yMax="620">
      <contour>
        <pt x="481" y="296" on="1"/>
        <pt x="104" y="44" on="1"/>
        <pt x="104" y="137" on="1"/>
        <pt x="396" y="330" on="1"/>
        <pt x="396" y="334" on="1"/>
        <pt x="104" y="527" on="1"/>
        <pt x="104" y="620" on="1"/>
        <pt x="481" y="368" on="1"/>
      </contour>
    </TTGlyph>
    <TTGlyph name="greaterequal" xMin="81" yMin="0" xMax="519" yMax="540">
      <contour>
        <pt x="81" y="73" on="1"/>
        <pt x="519" y="73" on="1"/>
        <pt x="519" y="0" on="1"/>
        <pt x="81" y="0" on="1"/>
      </contour>
      <contour>
        <pt x="519" y="303" on="1"/>
        <pt x="81" y="153" on="1"/>
        <pt x="81" y="237" on="1"/>
        <pt x="282" y="303" on="1"/>
        <pt x="418" y="345" on="1"/>
        <pt x="418" y="349" on="1"/>
        <pt x="282" y="390" on="1"/>
        <pt x="81" y="456" on="1"/>
        <pt x="81" y="540" on="1"/>
        <pt x="519" y="390" on="1"/>
      </contour>
    </TTGlyph>
    <TTGlyph name="guillemotleft" xMin="73" yMin="45" xMax="513" yMax="459">
      <component glyphName="guilsinglleft" x="-118" y="0" flags="0x204"/>
      <component glyphName="guilsinglleft" x="119" y="0" flags="0x4"/>
    </TTGlyph>
    <TTGlyph name="guillemotright" xMin="88" yMin="45" xMax="528" yMax="459">
      <component glyphName="guilsinglright" x="-118" y="0" flags="0x204"/>
      <component glyphName="guilsinglright" x="119" y="0" flags="0x4"/>
    </TTGlyph>
    <TTGlyph name="guilsinglleft" xMin="191" yMin="45" xMax="394" yMax="459">
      <contour>
        <pt x="191" y="203" on="1"/>
        <pt x="191" y="301" on="1"/>
        <pt x="349" y="459" on="1"/>
        <pt x="394" y="419" on="1"/>
        <pt x="267" y="252" on="1"/>
        <pt x="394" y="84" on="1"/>
        <pt x="349" y="45" on="1"/>
      </contour>
    </TTGlyph>
    <TTGlyph name="guilsinglright" xMin="206" yMin="45" xMax="409" yMax="459">
      <contour>
        <pt x="333" y="252" on="1"/>
        <pt x="206" y="419" on="1"/>
        <pt x="251" y="459" on="1"/>
        <pt x="409" y="301" on="1"/>
        <pt x="409" y="203" on="1"/>
        <pt x="251" y="45" on="1"/>
        <pt x="206" y="84" on="1"/>
      </contour>
    </TTGlyph>
    <TTGlyph name="h" xMin="88" yMin="0" xMax="527" yMax="709">
      <contour>
        <pt x="88" y="709" on="1"/>
        <pt x="187" y="709" on="1"/>
        <pt x="187" y="521" on="1"/>
        <pt x="181" y="411" on="1"/>
        <pt x="218" y="449" on="0"/>
        <pt x="304" y="501" on="0"/>
        <pt x="361" y="501" on="1"/>
        <pt x="447" y="501" on="0"/>
        <pt x="527" y="399" on="0"/>
        <pt x="527" y="303" on="1"/>
        <pt x="527" y="0" on="1"/>
        <pt x="428" y="0" on="1"/>
        <pt x="428" y="290" on="1"/>
        <pt x="428" y="354" on="0"/>
        <pt x="382" y="415" on="0"/>
        <pt x="326" y="415" on="1"/>
        <pt x="287" y="415" on="0"/>
        <pt x="225" y="376" on="0"/>
        <pt x="187" y="337" on="1"/>
        <pt x="187" y="0" on="1"/>
        <pt x="88" y="0" on="1"/>
      </contour>
    </TTGlyph>
    <TTGlyph name="h.sups" xMin="170" yMin="260" xMax="462" yMax="727">
      <contour>
        <pt x="170" y="727" on="1"/>
        <pt x="244" y="727" on="1"/>
        <pt x="244" y="605" on="1"/>
        <pt x="240" y="538" on="1"/>
        <pt x="263" y="560" on="0"/>
        <pt x="318" y="592" on="0"/>
        <pt x="354" y="592" on="1"/>
        <pt x="411" y="592" on="0"/>
        <pt x="462" y="525" on="0"/>
        <pt x="462" y="463" on="1"/>
        <pt x="462" y="260" on="1"/>
        <pt x="388" y="260" on="1"/>
        <pt x="388" y="454" on="1"/>
        <pt x="388" y="492" on="0"/>
        <pt x="360" y="529" on="0"/>
        <pt x="327" y="529" on="1"/>
        <pt x="303" y="529" on="0"/>
        <pt x="267" y="507" on="0"/>
        <pt x="244" y="485" on="1"/>
        <pt x="244" y="260" on="1"/>
        <pt x="170" y="260" on="1"/>
      </contour>
    </TTGlyph>
    <TTGlyph name="hbar" xMin="16" yMin="0" xMax="527" yMax="709">
      <contour>
        <pt x="181" y="391" on="1"/>
        <pt x="218" y="429" on="0"/>
        <pt x="304" y="481" on="0"/>
        <pt x="361" y="481" on="1"/>
        <pt x="447" y="481" on="0"/>
        <pt x="527" y="379" on="0"/>
        <pt x="527" y="283" on="1"/>
        <pt x="527" y="0" on="1"/>
        <pt x="428" y="0" on="1"/>
        <pt x="428" y="270" on="1"/>
        <pt x="428" y="334" on="0"/>
        <pt x="382" y="395" on="0"/>
        <pt x="326" y="395" on="1"/>
        <pt x="287" y="395" on="0"/>
        <pt x="225" y="356" on="0"/>
        <pt x="187" y="317" on="1"/>
        <pt x="187" y="0" on="1"/>
        <pt x="88" y="0" on="1"/>
        <pt x="88" y="567" on="1"/>
        <pt x="16" y="567" on="1"/>
        <pt x="16" y="616" on="1"/>
        <pt x="88" y="621" on="1"/>
        <pt x="88" y="709" on="1"/>
        <pt x="187" y="709" on="1"/>
        <pt x="187" y="621" on="1"/>
        <pt x="391" y="621" on="1"/>
        <pt x="391" y="567" on="1"/>
        <pt x="187" y="567" on="1"/>
        <pt x="187" y="501" on="1"/>
      </contour>
    </TTGlyph>
    <TTGlyph name="hcircumflex" xMin="3" yMin="0" xMax="527" yMax="863">
      <component glyphName="h" x="0" y="0" flags="0x204"/>
      <component glyphName="uni0302.cap" x="-153" y="44" flags="0x4"/>
    </TTGlyph>
    <TTGlyph name="hungarumlaut" xMin="195" yMin="572" xMax="502" yMax="717">
      <component glyphName="uni030B" x="0" y="0" flags="0x204"/>
    </TTGlyph>
    <TTGlyph name="hyphen" xMin="81" yMin="294" xMax="519" yMax="366">
      <component glyphName="minus" x="0" y="0" flags="0x204"/>
    </TTGlyph>
    <TTGlyph name="hyphen.a" xMin="131" yMin="212" xMax="469" yMax="293">
      <contour>
        <pt x="131" y="293" on="1"/>
        <pt x="469" y="293" on="1"/>
        <pt x="469" y="212" on="1"/>
        <pt x="131" y="212" on="1"/>
      </contour>
    </TTGlyph>
    <TTGlyph name="i" xMin="87" yMin="0" xMax="421" yMax="723">
      <contour>
        <pt x="87" y="489" on="1"/>
        <pt x="405" y="489" on="1"/>
        <pt x="405" y="0" on="1"/>
        <pt x="306" y="0" on="1"/>
        <pt x="306" y="409" on="1"/>
        <pt x="87" y="409" on="1"/>
      </contour>
      <contour>
        <pt x="347" y="582" on="1"/>
        <pt x="315" y="582" on="0"/>
        <pt x="273" y="620" on="0"/>
        <pt x="273" y="652" on="1"/>
        <pt x="273" y="684" on="0"/>
        <pt x="315" y="723" on="0"/>
        <pt x="347" y="723" on="1"/>
        <pt x="379" y="723" on="0"/>
        <pt x="421" y="684" on="0"/>
        <pt x="421" y="652" on="1"/>
        <pt x="421" y="620" on="0"/>
        <pt x="379" y="582" on="0"/>
      </contour>
    </TTGlyph>
    <TTGlyph name="i.sups" xMin="174" yMin="260" xMax="400" yMax="742">
      <contour>
        <pt x="174" y="584" on="1"/>
        <pt x="384" y="584" on="1"/>
        <pt x="384" y="260" on="1"/>
        <pt x="311" y="260" on="1"/>
        <pt x="311" y="525" on="1"/>
        <pt x="174" y="525" on="1"/>
      </contour>
      <contour>
        <pt x="347" y="642" on="1"/>
        <pt x="323" y="642" on="0"/>
        <pt x="293" y="668" on="0"/>
        <pt x="293" y="691" on="1"/>
        <pt x="293" y="714" on="0"/>
        <pt x="323" y="742" on="0"/>
        <pt x="347" y="742" on="1"/>
        <pt x="370" y="742" on="0"/>
        <pt x="400" y="714" on="0"/>
        <pt x="400" y="691" on="1"/>
        <pt x="400" y="668" on="0"/>
        <pt x="370" y="642" on="0"/>
      </contour>
    </TTGlyph>
    <TTGlyph name="iacute" xMin="87" yMin="0" xMax="473" yMax="726">
      <component glyphName="dotlessi" x="0" y="0" flags="0x204"/>
      <component glyphName="uni0301" x="47" y="0" flags="0x4"/>
    </TTGlyph>
    <TTGlyph name="icircumflex" xMin="87" yMin="0" xMax="487" yMax="726">
      <component glyphName="dotlessi" x="0" y="0" flags="0x204"/>
      <component glyphName="uni0302" x="47" y="0" flags="0x4"/>
    </TTGlyph>
    <TTGlyph name="idieresis" xMin="87" yMin="0" xMax="507" yMax="706">
      <component glyphName="dotlessi" x="0" y="0" flags="0x204"/>
      <component glyphName="uni0308" x="47" y="0" flags="0x4"/>
    </TTGlyph>
    <TTGlyph name="igrave" xMin="87" yMin="0" xMax="416" yMax="726">
      <component glyphName="dotlessi" x="0" y="0" flags="0x204"/>
      <component glyphName="uni0300" x="47" y="0" flags="0x4"/>
    </TTGlyph>
    <TTGlyph name="imacron" xMin="87" yMin="0" xMax="474" yMax="665">
      <component glyphName="dotlessi" x="0" y="0" flags="0x204"/>
      <component glyphName="uni0304" x="47" y="0" flags="0x4"/>
    </TTGlyph>
    <TTGlyph name="infinity" xMin="-6" yMin="143" xMax="606" yMax="513">
      <contour>
        <pt x="130" y="164" on="1"/>
        <pt x="102" y="164" on="0"/>
        <pt x="52" y="189" on="0"/>
        <pt x="15" y="232" on="0"/>
        <pt x="-6" y="289" on="0"/>
        <pt x="-6" y="322" on="1"/>
        <pt x="-6" y="363" on="0"/>
        <pt x="17" y="428" on="0"/>
        <pt x="57" y="473" on="0"/>
        <pt x="112" y="497" on="0"/>
        <pt x="144" y="497" on="1"/>
        <pt x="193" y="497" on="0"/>
        <pt x="259" y="442" on="0"/>
        <pt x="282" y="401" on="1"/>
        <pt x="286" y="401" on="1"/>
        <pt x="318" y="454" on="0"/>
        <pt x="396" y="513" on="0"/>
        <pt x="450" y="513" on="1"/>
        <pt x="483" y="513" on="0"/>
        <pt x="540" y="487" on="0"/>
        <pt x="582" y="440" on="0"/>
        <pt x="606" y="376" on="0"/>
        <pt x="606" y="337" on="1"/>
        <pt x="606" y="292" on="0"/>
        <pt x="582" y="221" on="0"/>
        <pt x="540" y="170" on="0"/>
        <pt x="481" y="143" on="0"/>
        <pt x="447" y="143" on="1"/>
        <pt x="393" y="143" on="0"/>
        <pt x="314" y="196" on="0"/>
        <pt x="275" y="259" on="1"/>
        <pt x="271" y="259" on="1"/>
        <pt x="260" y="241" on="0"/>
        <pt x="232" y="207" on="0"/>
        <pt x="197" y="180" on="0"/>
        <pt x="155" y="164" on="0"/>
      </contour>
      <contour>
        <pt x="317" y="343" on="1"/>
        <pt x="348" y="285" on="0"/>
        <pt x="406" y="236" on="0"/>
        <pt x="443" y="236" on="1"/>
        <pt x="485" y="236" on="0"/>
        <pt x="531" y="294" on="0"/>
        <pt x="531" y="334" on="1"/>
        <pt x="531" y="381" on="0"/>
        <pt x="481" y="439" on="0"/>
        <pt x="436" y="439" on="1"/>
        <pt x="403" y="439" on="0"/>
        <pt x="345" y="394" on="0"/>
      </contour>
      <contour>
        <pt x="144" y="238" on="1"/>
        <pt x="203" y="238" on="0"/>
        <pt x="240" y="318" on="1"/>
        <pt x="217" y="364" on="0"/>
        <pt x="169" y="404" on="0"/>
        <pt x="141" y="404" on="1"/>
        <pt x="108" y="404" on="0"/>
        <pt x="69" y="362" on="0"/>
        <pt x="69" y="325" on="1"/>
        <pt x="69" y="288" on="0"/>
        <pt x="112" y="238" on="0"/>
      </contour>
    </TTGlyph>
    <TTGlyph name="integral" xMin="176" yMin="-158" xMax="448" yMax="790">
      <contour>
        <pt x="187" y="-77" on="1"/>
        <pt x="199" y="-81" on="0"/>
        <pt x="222" y="-81" on="1"/>
        <pt x="263" y="-81" on="0"/>
        <pt x="288" y="-5" on="0"/>
        <pt x="288" y="71" on="1"/>
        <pt x="288" y="126" on="0"/>
        <pt x="275" y="249" on="0"/>
        <pt x="259" y="375" on="0"/>
        <pt x="246" y="500" on="0"/>
        <pt x="246" y="557" on="1"/>
        <pt x="246" y="606" on="0"/>
        <pt x="258" y="692" on="0"/>
        <pt x="291" y="754" on="0"/>
        <pt x="351" y="790" on="0"/>
        <pt x="398" y="790" on="1"/>
        <pt x="414" y="790" on="0"/>
        <pt x="441" y="785" on="0"/>
        <pt x="448" y="783" on="1"/>
        <pt x="437" y="709" on="1"/>
        <pt x="425" y="713" on="0"/>
        <pt x="402" y="713" on="1"/>
        <pt x="361" y="713" on="0"/>
        <pt x="337" y="635" on="0"/>
        <pt x="337" y="559" on="1"/>
        <pt x="337" y="504" on="0"/>
        <pt x="349" y="382" on="0"/>
        <pt x="364" y="257" on="0"/>
        <pt x="377" y="132" on="0"/>
        <pt x="377" y="75" on="1"/>
        <pt x="377" y="25" on="0"/>
        <pt x="365" y="-60" on="0"/>
        <pt x="332" y="-123" on="0"/>
        <pt x="273" y="-158" on="0"/>
        <pt x="226" y="-158" on="1"/>
        <pt x="193" y="-158" on="0"/>
        <pt x="176" y="-151" on="1"/>
        <pt x="187" y="-77" on="1"/>
      </contour>
    </TTGlyph>
    <TTGlyph name="iogonek" xMin="87" yMin="-207" xMax="446" yMax="723">
      <contour>
        <pt x="306" y="409" on="1"/>
        <pt x="87" y="409" on="1"/>
        <pt x="87" y="489" on="1"/>
        <pt x="405" y="489" on="1"/>
        <pt x="405" y="0" on="1"/>
        <pt x="373" y="-20" on="0"/>
        <pt x="338" y="-72" on="0"/>
        <pt x="338" y="-100" on="1"/>
        <pt x="338" y="-122" on="0"/>
        <pt x="366" y="-144" on="0"/>
        <pt x="384" y="-144" on="1"/>
        <pt x="395" y="-144" on="0"/>
        <pt x="413" y="-137" on="0"/>
        <pt x="423" y="-131" on="1"/>
        <pt x="446" y="-178" on="1"/>
        <pt x="431" y="-191" on="0"/>
        <pt x="382" y="-207" on="0"/>
        <pt x="362" y="-207" on="1"/>
        <pt x="322" y="-207" on="0"/>
        <pt x="268" y="-164" on="0"/>
        <pt x="268" y="-120" on="1"/>
        <pt x="268" y="-100" on="0"/>
        <pt x="280" y="-65" on="0"/>
        <pt x="299" y="-35" on="0"/>
        <pt x="321" y="-10" on="0"/>
        <pt x="331" y="0" on="1"/>
        <pt x="306" y="0" on="1"/>
      </contour>
      <contour>
        <pt x="347" y="582" on="1"/>
        <pt x="315" y="582" on="0"/>
        <pt x="273" y="620" on="0"/>
        <pt x="273" y="652" on="1"/>
        <pt x="273" y="684" on="0"/>
        <pt x="315" y="723" on="0"/>
        <pt x="347" y="723" on="1"/>
        <pt x="379" y="723" on="0"/>
        <pt x="421" y="684" on="0"/>
        <pt x="421" y="652" on="1"/>
        <pt x="421" y="620" on="0"/>
        <pt x="379" y="582" on="0"/>
      </contour>
    </TTGlyph>
    <TTGlyph name="iogonek.d" xMin="87" yMin="-207" xMax="446" yMax="489">
      <contour>
        <pt x="306" y="409" on="1"/>
        <pt x="87" y="409" on="1"/>
        <pt x="87" y="489" on="1"/>
        <pt x="405" y="489" on="1"/>
        <pt x="405" y="0" on="1"/>
        <pt x="373" y="-20" on="0"/>
        <pt x="338" y="-72" on="0"/>
        <pt x="338" y="-100" on="1"/>
        <pt x="338" y="-122" on="0"/>
        <pt x="366" y="-144" on="0"/>
        <pt x="384" y="-144" on="1"/>
        <pt x="395" y="-144" on="0"/>
        <pt x="413" y="-137" on="0"/>
        <pt x="423" y="-131" on="1"/>
        <pt x="446" y="-178" on="1"/>
        <pt x="431" y="-191" on="0"/>
        <pt x="382" y="-207" on="0"/>
        <pt x="362" y="-207" on="1"/>
        <pt x="322" y="-207" on="0"/>
        <pt x="268" y="-164" on="0"/>
        <pt x="268" y="-120" on="1"/>
        <pt x="268" y="-100" on="0"/>
        <pt x="280" y="-65" on="0"/>
        <pt x="299" y="-35" on="0"/>
        <pt x="321" y="-10" on="0"/>
        <pt x="331" y="0" on="1"/>
        <pt x="306" y="0" on="1"/>
      </contour>
    </TTGlyph>
    <TTGlyph name="itilde" xMin="87" yMin="0" xMax="496" yMax="696">
      <component glyphName="dotlessi" x="0" y="0" flags="0x204"/>
      <component glyphName="uni0303" x="47" y="0" flags="0x4"/>
    </TTGlyph>
    <TTGlyph name="j" xMin="52" yMin="-212" xMax="421" yMax="723">
      <contour>
        <pt x="87" y="489" on="1"/>
        <pt x="405" y="489" on="1"/>
        <pt x="405" y="-1" on="1"/>
        <pt x="405" y="-46" on="0"/>
        <pt x="385" y="-123" on="0"/>
        <pt x="336" y="-180" on="0"/>
        <pt x="255" y="-212" on="0"/>
        <pt x="194" y="-212" on="1"/>
        <pt x="154" y="-212" on="0"/>
        <pt x="81" y="-193" on="0"/>
        <pt x="52" y="-179" on="1"/>
        <pt x="83" y="-106" on="1"/>
        <pt x="138" y="-132" on="0"/>
        <pt x="191" y="-132" on="1"/>
        <pt x="258" y="-132" on="0"/>
        <pt x="306" y="-67" on="0"/>
        <pt x="306" y="-7" on="1"/>
        <pt x="306" y="409" on="1"/>
        <pt x="87" y="409" on="1"/>
      </contour>
      <contour>
        <pt x="347" y="582" on="1"/>
        <pt x="315" y="582" on="0"/>
        <pt x="273" y="620" on="0"/>
        <pt x="273" y="652" on="1"/>
        <pt x="273" y="684" on="0"/>
        <pt x="315" y="723" on="0"/>
        <pt x="347" y="723" on="1"/>
        <pt x="379" y="723" on="0"/>
        <pt x="421" y="684" on="0"/>
        <pt x="421" y="652" on="1"/>
        <pt x="421" y="620" on="0"/>
        <pt x="379" y="582" on="0"/>
      </contour>
    </TTGlyph>
    <TTGlyph name="j.sups" xMin="138" yMin="123" xMax="388" yMax="742">
      <contour>
        <pt x="162" y="584" on="1"/>
        <pt x="373" y="584" on="1"/>
        <pt x="373" y="264" on="1"/>
        <pt x="373" y="234" on="0"/>
        <pt x="359" y="183" on="0"/>
        <pt x="326" y="145" on="0"/>
        <pt x="271" y="123" on="0"/>
        <pt x="229" y="123" on="1"/>
        <pt x="203" y="123" on="0"/>
        <pt x="157" y="136" on="0"/>
        <pt x="138" y="145" on="1"/>
        <pt x="161" y="198" on="1"/>
        <pt x="194" y="182" on="0"/>
        <pt x="226" y="182" on="1"/>
        <pt x="269" y="182" on="0"/>
        <pt x="299" y="222" on="0"/>
        <pt x="299" y="260" on="1"/>
        <pt x="299" y="525" on="1"/>
        <pt x="162" y="525" on="1"/>
      </contour>
      <contour>
        <pt x="335" y="642" on="1"/>
        <pt x="312" y="642" on="0"/>
        <pt x="281" y="668" on="0"/>
        <pt x="281" y="691" on="1"/>
        <pt x="281" y="714" on="0"/>
        <pt x="312" y="742" on="0"/>
        <pt x="335" y="742" on="1"/>
        <pt x="358" y="742" on="0"/>
        <pt x="388" y="714" on="0"/>
        <pt x="388" y="691" on="1"/>
        <pt x="388" y="668" on="0"/>
        <pt x="358" y="642" on="0"/>
      </contour>
    </TTGlyph>
    <TTGlyph name="jcircumflex" xMin="52" yMin="-212" xMax="487" yMax="726">
      <component glyphName="uni0237" x="0" y="0" flags="0x204"/>
      <component glyphName="uni0302" x="47" y="0" flags="0x4"/>
    </TTGlyph>
    <TTGlyph name="k" xMin="98" yMin="0" xMax="577" yMax="709">
      <contour>
        <pt x="98" y="709" on="1"/>
        <pt x="197" y="709" on="1"/>
        <pt x="197" y="247" on="1"/>
        <pt x="201" y="247" on="1"/>
        <pt x="442" y="489" on="1"/>
        <pt x="553" y="489" on="1"/>
        <pt x="362" y="293" on="1"/>
        <pt x="577" y="0" on="1"/>
        <pt x="468" y="0" on="1"/>
        <pt x="301" y="232" on="1"/>
        <pt x="197" y="130" on="1"/>
        <pt x="197" y="0" on="1"/>
        <pt x="98" y="0" on="1"/>
      </contour>
    </TTGlyph>
    <TTGlyph name="k.sups" xMin="181" yMin="260" xMax="501" yMax="727">
      <contour>
        <pt x="181" y="727" on="1"/>
        <pt x="256" y="727" on="1"/>
        <pt x="256" y="433" on="1"/>
        <pt x="258" y="433" on="1"/>
        <pt x="405" y="584" on="1"/>
        <pt x="487" y="584" on="1"/>
        <pt x="363" y="454" on="1"/>
        <pt x="501" y="260" on="1"/>
        <pt x="420" y="260" on="1"/>
        <pt x="319" y="405" on="1"/>
        <pt x="256" y="344" on="1"/>
        <pt x="256" y="260" on="1"/>
        <pt x="181" y="260" on="1"/>
      </contour>
    </TTGlyph>
    <TTGlyph name="kgreenlandic" xMin="98" yMin="0" xMax="577" yMax="489">
      <contour>
        <pt x="98" y="489" on="1"/>
        <pt x="197" y="489" on="1"/>
        <pt x="197" y="248" on="1"/>
        <pt x="200" y="249" on="1"/>
        <pt x="442" y="489" on="1"/>
        <pt x="553" y="489" on="1"/>
        <pt x="362" y="293" on="1"/>
        <pt x="577" y="0" on="1"/>
        <pt x="468" y="0" on="1"/>
        <pt x="302" y="228" on="1"/>
        <pt x="197" y="128" on="1"/>
        <pt x="197" y="0" on="1"/>
        <pt x="98" y="0" on="1"/>
      </contour>
    </TTGlyph>
</ttFont>
